M48
; DRILL file {KiCad 9.0.8} date 2026-03-20T01:11:52-0700
; FORMAT={-:-/ absolute / metric / decimal}
; #@! TF.CreationDate,2026-03-20T01:11:52-07:00
; #@! TF.GenerationSoftware,Kicad,Pcbnew,9.0.8
; #@! TF.FileFunction,NonPlated,1,2,NPTH
FMAT,2
METRIC
; #@! TA.AperFunction,NonPlated,NPTH,ComponentDrill
T1C0.900
; #@! TA.AperFunction,NonPlated,NPTH,ComponentDrill
T2C1.702
; #@! TA.AperFunction,NonPlated,NPTH,ComponentDrill
T3C3.000
; #@! TA.AperFunction,NonPlated,NPTH,ComponentDrill
T4C3.429
%
G90
G05
T1
X104.0Y54.5
X104.0Y51.5
T2
X-5.5Y76.0
X-5.5Y57.0
X-5.5Y38.0
X-5.5Y19.0
X-5.5Y0.0
X5.5Y76.0
X5.5Y57.0
X5.5Y38.0
X5.5Y19.0
X5.5Y0.0
X13.5Y76.0
X13.5Y57.0
X13.5Y38.0
X13.5Y19.0
X13.5Y0.0
X24.5Y76.0
X24.5Y57.0
X24.5Y38.0
X24.5Y19.0
X24.5Y0.0
X32.5Y88.0
X32.5Y69.0
X32.5Y50.0
X32.5Y31.0
X32.5Y12.0
X43.5Y88.0
X43.5Y69.0
X43.5Y50.0
X43.5Y31.0
X43.5Y12.0
X51.5Y95.0
X51.5Y76.0
X51.5Y57.0
X51.5Y38.0
X51.5Y19.0
X62.5Y95.0
X62.5Y76.0
X62.5Y57.0
X62.5Y38.0
X62.5Y19.0
X70.5Y89.0
X70.5Y70.0
X70.5Y51.0
X70.5Y32.0
X70.5Y13.0
X81.5Y89.0
X81.5Y70.0
X81.5Y51.0
X81.5Y32.0
X81.5Y13.0
X89.5Y87.0
X89.5Y68.0
X89.5Y49.0
X89.5Y30.0
X89.5Y11.0
X100.5Y87.0
X100.5Y68.0
X100.5Y49.0
X100.5Y30.0
X100.5Y11.0
T3
X-5.0Y72.25
X-5.0Y53.25
X-5.0Y34.25
X-5.0Y15.25
X-5.0Y-3.75
X0.0Y70.05
X0.0Y51.05
X0.0Y32.05
X0.0Y13.05
X0.0Y-5.95
X14.0Y72.25
X14.0Y53.25
X14.0Y34.25
X14.0Y15.25
X14.0Y-3.75
X19.0Y70.05
X19.0Y51.05
X19.0Y32.05
X19.0Y13.05
X19.0Y-5.95
X33.0Y84.25
X33.0Y65.25
X33.0Y46.25
X33.0Y27.25
X33.0Y8.25
X38.0Y82.05
X38.0Y63.05
X38.0Y44.05
X38.0Y25.05
X38.0Y6.05
X52.0Y91.25
X52.0Y72.25
X52.0Y53.25
X52.0Y34.25
X52.0Y15.25
X57.0Y89.05
X57.0Y70.05
X57.0Y51.05
X57.0Y32.05
X57.0Y13.05
X71.0Y85.25
X71.0Y66.25
X71.0Y47.25
X71.0Y28.25
X71.0Y9.25
X76.0Y83.05
X76.0Y64.05
X76.0Y45.05
X76.0Y26.05
X76.0Y7.05
X90.0Y83.25
X90.0Y64.25
X90.0Y45.25
X90.0Y26.25
X90.0Y7.25
X95.0Y81.05
X95.0Y62.05
X95.0Y43.05
X95.0Y24.05
X95.0Y5.05
T4
X0.0Y76.0
X0.0Y57.0
X0.0Y38.0
X0.0Y19.0
X0.0Y0.0
X19.0Y76.0
X19.0Y57.0
X19.0Y38.0
X19.0Y19.0
X19.0Y0.0
X38.0Y88.0
X38.0Y69.0
X38.0Y50.0
X38.0Y31.0
X38.0Y12.0
X57.0Y95.0
X57.0Y76.0
X57.0Y57.0
X57.0Y38.0
X57.0Y19.0
X76.0Y89.0
X76.0Y70.0
X76.0Y51.0
X76.0Y32.0
X76.0Y13.0
X95.0Y87.0
X95.0Y68.0
X95.0Y49.0
X95.0Y30.0
X95.0Y11.0
M30
