M48
; DRILL file {KiCad 9.0.8} date 2026-03-20T01:18:50-0700
; FORMAT={-:-/ absolute / metric / decimal}
; #@! TF.CreationDate,2026-03-20T01:18:50-07:00
; #@! TF.GenerationSoftware,Kicad,Pcbnew,9.0.8
; #@! TF.FileFunction,NonPlated,1,2,NPTH
FMAT,2
METRIC
; #@! TA.AperFunction,NonPlated,NPTH,ComponentDrill
T1C0.900
; #@! TA.AperFunction,NonPlated,NPTH,ComponentDrill
T2C1.702
; #@! TA.AperFunction,NonPlated,NPTH,ComponentDrill
T3C3.000
; #@! TA.AperFunction,NonPlated,NPTH,ComponentDrill
T4C3.429
%
G90
G05
T1
X103.5Y-90.0
X103.5Y-93.0
T2
X108.472Y-58.5
X108.472Y-77.5
X108.472Y-96.5
X108.472Y-115.5
X109.775Y-39.25
X119.472Y-58.5
X119.472Y-77.5
X119.472Y-96.5
X119.472Y-115.5
X120.775Y-39.25
X127.472Y-37.5
X127.472Y-56.5
X127.472Y-75.5
X127.472Y-94.5
X127.472Y-113.5
X138.472Y-37.5
X138.472Y-56.5
X138.472Y-75.5
X138.472Y-94.5
X138.472Y-113.5
X146.472Y-31.5
X146.472Y-50.5
X146.472Y-69.5
X146.472Y-88.5
X146.472Y-107.5
X157.472Y-31.5
X157.472Y-50.5
X157.472Y-69.5
X157.472Y-88.5
X157.472Y-107.5
X165.472Y-38.5
X165.472Y-57.5
X165.472Y-76.5
X165.472Y-95.5
X165.472Y-114.5
X176.472Y-38.5
X176.472Y-57.5
X176.472Y-76.5
X176.472Y-95.5
X176.472Y-114.5
X183.35Y-50.5
X183.35Y-69.5
X183.35Y-88.5
X183.35Y-107.5
X183.35Y-126.5
X194.35Y-50.5
X194.35Y-69.5
X194.35Y-88.5
X194.35Y-107.5
X194.35Y-126.5
X203.972Y-50.5
X203.972Y-69.5
X203.972Y-88.5
X203.972Y-107.5
X203.972Y-126.5
X214.972Y-50.5
X214.972Y-69.5
X214.972Y-88.5
X214.972Y-107.5
X214.972Y-126.5
T3
X108.972Y-62.25
X108.972Y-81.25
X108.972Y-100.25
X108.972Y-119.25
X110.275Y-43.0
X113.972Y-64.45
X113.972Y-83.45
X113.972Y-102.45
X113.972Y-121.45
X115.275Y-45.2
X127.972Y-41.25
X127.972Y-60.25
X127.972Y-79.25
X127.972Y-98.25
X127.972Y-117.25
X132.972Y-43.45
X132.972Y-62.45
X132.972Y-81.45
X132.972Y-100.45
X132.972Y-119.45
X146.972Y-35.25
X146.972Y-54.25
X146.972Y-73.25
X146.972Y-92.25
X146.972Y-111.25
X151.972Y-37.45
X151.972Y-56.45
X151.972Y-75.45
X151.972Y-94.45
X151.972Y-113.45
X165.972Y-42.25
X165.972Y-61.25
X165.972Y-80.25
X165.972Y-99.25
X165.972Y-118.25
X170.972Y-44.45
X170.972Y-63.45
X170.972Y-82.45
X170.972Y-101.45
X170.972Y-120.45
X183.85Y-54.25
X183.85Y-73.25
X183.85Y-92.25
X183.85Y-111.25
X183.85Y-130.25
X188.85Y-56.45
X188.85Y-75.45
X188.85Y-94.45
X188.85Y-113.45
X188.85Y-132.45
X204.472Y-54.25
X204.472Y-73.25
X204.472Y-92.25
X204.472Y-111.25
X204.472Y-130.25
X209.472Y-56.45
X209.472Y-75.45
X209.472Y-94.45
X209.472Y-113.45
X209.472Y-132.45
T4
X113.972Y-58.5
X113.972Y-77.5
X113.972Y-96.5
X113.972Y-115.5
X115.275Y-39.25
X132.972Y-37.5
X132.972Y-56.5
X132.972Y-75.5
X132.972Y-94.5
X132.972Y-113.5
X151.972Y-31.5
X151.972Y-50.5
X151.972Y-69.5
X151.972Y-88.5
X151.972Y-107.5
X170.972Y-38.5
X170.972Y-57.5
X170.972Y-76.5
X170.972Y-95.5
X170.972Y-114.5
X188.85Y-50.5
X188.85Y-69.5
X188.85Y-88.5
X188.85Y-107.5
X188.85Y-126.5
X209.472Y-50.5
X209.472Y-69.5
X209.472Y-88.5
X209.472Y-107.5
X209.472Y-126.5
M30
