%TF.GenerationSoftware,KiCad,Pcbnew,9.0.8*%
%TF.CreationDate,2026-03-20T17:30:00-07:00*%
%TF.ProjectId,right,72696768-742e-46b6-9963-61645f706362,v1.0.0*%
%TF.SameCoordinates,Original*%
%TF.FileFunction,Paste,Top*%
%TF.FilePolarity,Positive*%
%FSLAX46Y46*%
G04 Gerber Fmt 4.6, Leading zero omitted, Abs format (unit mm)*
G04 Created by KiCad (PCBNEW 9.0.8) date 2026-03-20 17:30:00*
%MOMM*%
%LPD*%
G01*
G04 APERTURE LIST*
%ADD10R,1.200000X0.900000*%
%ADD11R,0.900000X0.900000*%
%ADD12R,1.250000X0.900000*%
%ADD13R,0.900000X1.200000*%
G04 APERTURE END LIST*
D10*
%TO.C,D29*%
X103000000Y-65150000D03*
X103000000Y-61850000D03*
%TD*%
%TO.C,D12*%
X162000000Y-107650000D03*
X162000000Y-104350000D03*
%TD*%
%TO.C,D20*%
X143000000Y-43650000D03*
X143000000Y-40350000D03*
%TD*%
%TO.C,D13*%
X162000000Y-89650000D03*
X162000000Y-86350000D03*
%TD*%
%TO.C,D10*%
X180000000Y-49150000D03*
X180000000Y-45850000D03*
%TD*%
%TO.C,D22*%
X122000000Y-104150000D03*
X122000000Y-100850000D03*
%TD*%
%TO.C,D19*%
X143000000Y-63150000D03*
X143000000Y-59850000D03*
%TD*%
D11*
%TO.C,T1*%
X102400000Y-95200000D03*
X104600000Y-95200000D03*
X102400000Y-87800000D03*
X104600000Y-87800000D03*
D12*
X105575000Y-89250000D03*
X105575000Y-92250000D03*
X105575000Y-93750000D03*
%TD*%
D10*
%TO.C,D9*%
X180000000Y-68150000D03*
X180000000Y-64850000D03*
%TD*%
%TO.C,D15*%
X162000000Y-50650000D03*
X162000000Y-47350000D03*
%TD*%
%TO.C,D30*%
X103000000Y-47000000D03*
X103000000Y-43700000D03*
%TD*%
%TO.C,D6*%
X180000000Y-120850000D03*
X180000000Y-124150000D03*
%TD*%
D13*
%TO.C,D25*%
X127650000Y-46000000D03*
X124350000Y-46000000D03*
%TD*%
D10*
%TO.C,D18*%
X143500000Y-81650000D03*
X143500000Y-78350000D03*
%TD*%
%TO.C,D4*%
X198500000Y-78650000D03*
X198500000Y-75350000D03*
%TD*%
%TO.C,D3*%
X198500000Y-97650000D03*
X198500000Y-94350000D03*
%TD*%
%TO.C,D5*%
X198000000Y-59150000D03*
X198000000Y-55850000D03*
%TD*%
D13*
%TO.C,D11*%
X168650000Y-123500000D03*
X165350000Y-123500000D03*
%TD*%
D10*
%TO.C,D23*%
X122000000Y-85150000D03*
X122000000Y-81850000D03*
%TD*%
%TO.C,D17*%
X143500000Y-100650000D03*
X143500000Y-97350000D03*
%TD*%
%TO.C,D24*%
X122000000Y-66150000D03*
X122000000Y-62850000D03*
%TD*%
%TO.C,D2*%
X198500000Y-116650000D03*
X198500000Y-113350000D03*
%TD*%
%TO.C,D27*%
X103000000Y-104650000D03*
X103000000Y-101350000D03*
%TD*%
%TO.C,D26*%
X105500000Y-110850000D03*
X105500000Y-114150000D03*
%TD*%
%TO.C,D16*%
X141000000Y-115150000D03*
X141000000Y-111850000D03*
%TD*%
%TO.C,D28*%
X105500000Y-75650000D03*
X105500000Y-72350000D03*
%TD*%
%TO.C,D7*%
X180500000Y-106150000D03*
X180500000Y-102850000D03*
%TD*%
%TO.C,D1*%
X198500000Y-132150000D03*
X198500000Y-128850000D03*
%TD*%
%TO.C,D21*%
X122000000Y-119650000D03*
X122000000Y-116350000D03*
%TD*%
%TO.C,D14*%
X160000000Y-66650000D03*
X160000000Y-63350000D03*
%TD*%
%TO.C,D8*%
X180000000Y-86650000D03*
X180000000Y-83350000D03*
%TD*%
M02*
