M48
; DRILL file {KiCad 9.0.8} date 2026-03-20T17:30:03-0700
; FORMAT={-:-/ absolute / metric / decimal}
; #@! TF.CreationDate,2026-03-20T17:30:03-07:00
; #@! TF.GenerationSoftware,Kicad,Pcbnew,9.0.8
; #@! TF.FileFunction,Plated,1,2,PTH
FMAT,2
METRIC
; #@! TA.AperFunction,Plated,PTH,ViaDrill
T1C0.300
; #@! TA.AperFunction,Plated,PTH,ComponentDrill
T2C0.750
; #@! TA.AperFunction,Plated,PTH,ComponentDrill
T3C0.991
; #@! TA.AperFunction,Plated,PTH,ComponentDrill
T4C1.092
%
G90
G05
T1
X109.5Y-89.5
X111.0Y-51.5
T2
X108.95Y-53.0
X108.95Y-55.0
T3
X103.0Y-41.54
X103.0Y-49.16
X103.0Y-59.69
X103.0Y-67.31
X103.0Y-99.19
X103.0Y-106.81
X105.5Y-70.19
X105.5Y-77.81
X105.5Y-108.69
X105.5Y-116.31
X122.0Y-60.69
X122.0Y-68.31
X122.0Y-79.69
X122.0Y-87.31
X122.0Y-98.69
X122.0Y-106.31
X122.0Y-114.19
X122.0Y-121.81
X122.19Y-46.0
X129.81Y-46.0
X141.0Y-109.69
X141.0Y-117.31
X143.0Y-38.19
X143.0Y-45.81
X143.0Y-57.69
X143.0Y-65.31
X143.5Y-76.19
X143.5Y-83.81
X143.5Y-95.19
X143.5Y-102.81
X160.0Y-61.19
X160.0Y-68.81
X162.0Y-45.19
X162.0Y-52.81
X162.0Y-84.19
X162.0Y-91.81
X162.0Y-102.19
X162.0Y-109.81
X163.19Y-123.5
X170.81Y-123.5
X180.0Y-43.69
X180.0Y-51.31
X180.0Y-62.69
X180.0Y-70.31
X180.0Y-81.19
X180.0Y-88.81
X180.0Y-118.69
X180.0Y-126.31
X180.5Y-100.69
X180.5Y-108.31
X198.0Y-53.69
X198.0Y-61.31
X198.5Y-73.19
X198.5Y-80.81
X198.5Y-92.19
X198.5Y-99.81
X198.5Y-111.19
X198.5Y-118.81
X198.5Y-126.69
X198.5Y-134.31
T4
X108.38Y-33.88
X108.38Y-49.12
X110.92Y-33.88
X110.92Y-49.12
X113.46Y-33.88
X113.46Y-49.12
X116.0Y-33.88
X116.0Y-49.12
X118.54Y-33.88
X118.54Y-49.12
X121.08Y-33.88
X121.08Y-49.12
X123.62Y-33.88
X123.62Y-49.12
X126.16Y-33.88
X126.16Y-49.12
X128.7Y-33.88
X128.7Y-49.12
X131.24Y-33.88
X131.24Y-49.12
X133.78Y-33.88
X133.78Y-49.12
X136.32Y-33.88
X136.32Y-49.12
M30
