%TF.GenerationSoftware,KiCad,Pcbnew,9.0.8*%
%TF.CreationDate,2026-03-20T17:30:00-07:00*%
%TF.ProjectId,right,72696768-742e-46b6-9963-61645f706362,v1.0.0*%
%TF.SameCoordinates,Original*%
%TF.FileFunction,Profile,NP*%
%FSLAX46Y46*%
G04 Gerber Fmt 4.6, Leading zero omitted, Abs format (unit mm)*
G04 Created by KiCad (PCBNEW 9.0.8) date 2026-03-20 17:30:00*
%MOMM*%
%LPD*%
G01*
G04 APERTURE LIST*
%TA.AperFunction,Profile*%
%ADD10C,0.150000*%
%TD*%
%TA.AperFunction,Profile*%
%ADD11C,0.050000*%
%TD*%
G04 APERTURE END LIST*
D10*
X99979865Y-33000000D02*
G75*
G02*
X103000020Y-29979865I3020135J0D01*
G01*
X101060669Y-121878680D02*
X99979865Y-33000000D01*
X104267777Y-125085792D02*
G75*
G02*
X101060708Y-121878680I23J3207092D01*
G01*
X122350000Y-30000000D02*
X103000000Y-29979865D01*
X138350000Y-30000000D02*
X122350000Y-30000000D01*
X139350000Y-125000000D02*
X104267777Y-125085792D01*
X141349185Y-25500000D02*
X141352357Y-26878680D01*
D11*
X141350006Y-25000000D02*
X141349185Y-25500000D01*
D10*
X141350006Y-25000000D02*
G75*
G02*
X144471320Y-21997650I3121294J-121300D01*
G01*
X141352357Y-26878680D02*
G75*
G02*
X138350000Y-30000001I-3123657J-20D01*
G01*
X142350000Y-120000000D02*
X142350000Y-122000000D01*
X142350000Y-120000000D02*
G75*
G02*
X145350000Y-117000000I3000000J0D01*
G01*
X142350001Y-122000000D02*
G75*
G02*
X139350000Y-125000001I-3000001J0D01*
G01*
X144471300Y-22000000D02*
X158350000Y-22000000D01*
X157350000Y-117000000D02*
X145350000Y-117000000D01*
X157350000Y-117000000D02*
G75*
G02*
X160350000Y-120000000I0J-3000000D01*
G01*
X158350000Y-22000000D02*
G75*
G02*
X161350000Y-25000000I0J-3000000D01*
G01*
X160350000Y-124000000D02*
X160350000Y-120000000D01*
X161350000Y-25000000D02*
X161350000Y-26000000D01*
X163350000Y-127000000D02*
G75*
G02*
X160350000Y-124000000I0J3000000D01*
G01*
X164350000Y-29000000D02*
G75*
G02*
X161350000Y-26000000I0J3000000D01*
G01*
X169350000Y-127000000D02*
X163350000Y-127000000D01*
X169350000Y-127000000D02*
X175378680Y-126878681D01*
X175378680Y-126878680D02*
G75*
G02*
X178500020Y-130000000I20J-3121320D01*
G01*
X177350000Y-29000000D02*
X164350000Y-29000000D01*
X177350000Y-29000000D02*
G75*
G02*
X180350000Y-32000000I0J-3000000D01*
G01*
X178500000Y-133000000D02*
X178500000Y-130000000D01*
X181496257Y-136149813D02*
G75*
G02*
X178499955Y-133000000I157443J3149813D01*
G01*
X183350000Y-34881151D02*
G75*
G02*
X180350000Y-32000000I0J3002451D01*
G01*
X187228680Y-35000000D02*
X183350000Y-34878680D01*
X187228680Y-35000000D02*
G75*
G02*
X190350000Y-38121320I20J-3121300D01*
G01*
X193471320Y-41009417D02*
G75*
G02*
X190349998Y-38121320I-20J3130717D01*
G01*
X215350000Y-41000000D02*
X193471320Y-41000000D01*
X215350000Y-41000000D02*
G75*
G02*
X218350000Y-44000000I0J-3000000D01*
G01*
X215378680Y-135971299D02*
X181496257Y-136149812D01*
X218350000Y-133000000D02*
G75*
G02*
X215378680Y-135971300I-2971300J0D01*
G01*
X218350000Y-133000000D02*
X218350000Y-44000000D01*
M02*
