0
SECTION
2
HEADER
9
$INSUNITS
70
4
0
ENDSEC
0
SECTION
2
TABLES
0
TABLE
2
LTYPE
0
LTYPE
72
65
70
0
2
CONTINUOUS
3
______
73
0
40
0
0
LTYPE
72
65
70
0
2
DASHED
3
_ _ _ 
73
2
40
7.5
49
5
49
-2.5
0
LTYPE
72
65
70
0
2
DOTTED
3
. . . 
73
2
40
1.5
49
0.5
49
-1
0
ENDTAB
0
TABLE
2
LAYER
0
ENDTAB
0
ENDSEC
0
SECTION
2
ENTITIES
0
LINE
8
0
6
CONTINUOUS
10
-8
20
-9.5
11
27
21
-9.5
0
LINE
8
0
6
CONTINUOUS
10
-10
20
-7.5
11
-10
21
83.5
0
LINE
8
0
6
CONTINUOUS
10
-8
20
85.5
11
26
21
85.5
0
LINE
8
0
6
CONTINUOUS
10
29
20
-7.5
11
29
21
0.5
0
LINE
8
0
6
CONTINUOUS
10
31
20
2.5
11
46
21
2.5
0
LINE
8
0
6
CONTINUOUS
10
48
20
4.5
11
48
21
7.5
0
LINE
8
0
6
CONTINUOUS
10
45
20
97.5
11
30
21
97.5
0
LINE
8
0
6
CONTINUOUS
10
28
20
95.5
11
28
21
87.5
0
LINE
8
0
6
CONTINUOUS
10
50
20
9.5
11
64
21
9.5
0
LINE
8
0
6
CONTINUOUS
10
67
20
100.5
11
67
21
102.5
0
LINE
8
0
6
CONTINUOUS
10
65
20
104.5
11
49
21
104.5
0
LINE
8
0
6
CONTINUOUS
10
47
20
102.5
11
47
21
99.5
0
LINE
8
0
6
CONTINUOUS
10
68
20
3.5
11
85
21
3.5
0
LINE
8
0
6
CONTINUOUS
10
66
20
7.5
11
66
21
5.5
0
LINE
8
0
6
CONTINUOUS
10
86
20
96.5
11
86
21
98.5
0
LINE
8
0
6
CONTINUOUS
10
86
20
98.5
11
69
21
98.5
0
LINE
8
0
6
CONTINUOUS
10
85
20
1.5
11
103
21
1.5
0
LINE
8
0
6
CONTINUOUS
10
105
20
3.5
11
105
21
94.5
0
LINE
8
0
6
CONTINUOUS
10
85
20
3.5
11
85
21
1.5
0
LINE
8
0
6
CONTINUOUS
10
103
20
96.5
11
86
21
96.5
0
ARC
8
0
6
CONTINUOUS
10
27
20
-7.5
40
2
50
270
51
0
0
ARC
8
0
6
CONTINUOUS
10
31
20
0.5
40
2
50
90
51
180
0
ARC
8
0
6
CONTINUOUS
10
46
20
4.5
40
2
50
270
51
0
0
ARC
8
0
6
CONTINUOUS
10
50
20
7.5
40
2
50
90
51
180
0
ARC
8
0
6
CONTINUOUS
10
64
20
7.5
40
2
50
0
51
90
0
ARC
8
0
6
CONTINUOUS
10
68
20
5.5
40
2
50
180
51
270
0
ARC
8
0
6
CONTINUOUS
10
103
20
3.5
40
2
50
270
51
0
0
ARC
8
0
6
CONTINUOUS
10
103
20
94.5
40
2
50
0
51
90
0
ARC
8
0
6
CONTINUOUS
10
69
20
100.5
40
2
50
180
51
270
0
ARC
8
0
6
CONTINUOUS
10
65
20
102.5
40
2
50
0
51
90
0
ARC
8
0
6
CONTINUOUS
10
49
20
102.5
40
2
50
90
51
180
0
ARC
8
0
6
CONTINUOUS
10
45
20
99.5
40
2
50
270
51
0
0
ARC
8
0
6
CONTINUOUS
10
30
20
95.5
40
2
50
90
51
180
0
ARC
8
0
6
CONTINUOUS
10
26
20
87.5
40
2
50
270
51
0
0
ARC
8
0
6
CONTINUOUS
10
-8
20
83.5
40
2
50
90
51
180
0
ARC
8
0
6
CONTINUOUS
10
-8
20
-7.5
40
2
50
180
51
270
0
ENDSEC
0
EOF