0
SECTION
2
HEADER
9
$INSUNITS
70
4
0
ENDSEC
0
SECTION
2
TABLES
0
TABLE
2
LTYPE
0
LTYPE
72
65
70
0
2
CONTINUOUS
3
______
73
0
40
0
0
LTYPE
72
65
70
0
2
DASHED
3
_ _ _ 
73
2
40
7.5
49
5
49
-2.5
0
LTYPE
72
65
70
0
2
DOTTED
3
. . . 
73
2
40
1.5
49
0.5
49
-1
0
ENDTAB
0
TABLE
2
LAYER
0
ENDTAB
0
ENDSEC
0
SECTION
2
ENTITIES
0
LINE
8
0
6
CONTINUOUS
10
-7
20
-9.5
11
26
21
-9.5
0
LINE
8
0
6
CONTINUOUS
10
-10
20
-6.5
11
-10
21
82.5
0
LINE
8
0
6
CONTINUOUS
10
-7
20
85.5
11
18
21
85.5
0
LINE
8
0
6
CONTINUOUS
10
29
20
-6.5
11
29
21
-3.5
0
LINE
8
0
6
CONTINUOUS
10
39
20
2.5
11
39
21
-0.5
0
LINE
8
0
6
CONTINUOUS
10
39
20
-0.5
11
32
21
-0.5
0
LINE
8
0
6
CONTINUOUS
10
39
20
2.5
11
45
21
2.5
0
LINE
8
0
6
CONTINUOUS
10
48
20
5.5
11
48
21
6.5
0
LINE
8
0
6
CONTINUOUS
10
18
20
88.5
11
25
21
88.5
0
LINE
8
0
6
CONTINUOUS
10
18
20
85.5
11
18
21
88.5
0
LINE
8
0
6
CONTINUOUS
10
31
20
97.5
11
44
21
97.5
0
LINE
8
0
6
CONTINUOUS
10
28
20
94.5
11
28
21
91.5
0
LINE
8
0
6
CONTINUOUS
10
51
20
9.5
11
63
21
9.5
0
LINE
8
0
6
CONTINUOUS
10
67
20
101.5
11
67
21
104.5
0
LINE
8
0
6
CONTINUOUS
10
67
20
104.5
11
50
21
104.5
0
LINE
8
0
6
CONTINUOUS
10
47
20
101.5
11
47
21
100.5
0
LINE
8
0
6
CONTINUOUS
10
66
20
3.5
11
85
21
3.5
0
LINE
8
0
6
CONTINUOUS
10
66
20
6.5
11
66
21
3.5
0
LINE
8
0
6
CONTINUOUS
10
86
20
96.5
11
86
21
98.5
0
LINE
8
0
6
CONTINUOUS
10
70
20
98.5
11
86
21
98.5
0
LINE
8
0
6
CONTINUOUS
10
85
20
1.5
11
102
21
1.5
0
LINE
8
0
6
CONTINUOUS
10
105
20
4.5
11
105
21
93.5
0
LINE
8
0
6
CONTINUOUS
10
85
20
3.5
11
85
21
1.5
0
LINE
8
0
6
CONTINUOUS
10
86
20
96.5
11
102
21
96.5
0
ARC
8
0
6
CONTINUOUS
10
26
20
-6.5
40
3
50
270
51
0
0
ARC
8
0
6
CONTINUOUS
10
32
20
-3.5
40
3
50
90
51
180
0
ARC
8
0
6
CONTINUOUS
10
45
20
5.5
40
3
50
270
51
0
0
ARC
8
0
6
CONTINUOUS
10
51
20
6.5
40
3
50
90
51
180
0
ARC
8
0
6
CONTINUOUS
10
63
20
6.5
40
3
50
0
51
90
0
ARC
8
0
6
CONTINUOUS
10
102
20
4.5
40
3
50
270
51
0
0
ARC
8
0
6
CONTINUOUS
10
102
20
93.5
40
3
50
0
51
90
0
ARC
8
0
6
CONTINUOUS
10
70
20
101.5
40
3
50
180
51
270
0
ARC
8
0
6
CONTINUOUS
10
50
20
101.5
40
3
50
90
51
180
0
ARC
8
0
6
CONTINUOUS
10
44
20
100.5
40
3
50
270
51
0
0
ARC
8
0
6
CONTINUOUS
10
31
20
94.5
40
3
50
90
51
180
0
ARC
8
0
6
CONTINUOUS
10
25
20
91.5
40
3
50
270
51
0
0
ARC
8
0
6
CONTINUOUS
10
-7
20
82.5
40
3
50
90
51
180
0
ARC
8
0
6
CONTINUOUS
10
-7
20
-6.5
40
3
50
180
51
270
0
ENDSEC
0
EOF