%TF.GenerationSoftware,KiCad,Pcbnew,9.0.8*%
%TF.CreationDate,2026-03-20T01:35:37-07:00*%
%TF.ProjectId,left,6c656674-2e6b-4696-9361-645f70636258,v1.0.0*%
%TF.SameCoordinates,Original*%
%TF.FileFunction,Copper,L1,Top*%
%TF.FilePolarity,Positive*%
%FSLAX46Y46*%
G04 Gerber Fmt 4.6, Leading zero omitted, Abs format (unit mm)*
G04 Created by KiCad (PCBNEW 9.0.8) date 2026-03-20 01:35:37*
%MOMM*%
%LPD*%
G01*
G04 APERTURE LIST*
%TA.AperFunction,SMDPad,CuDef*%
%ADD10R,0.900000X0.900000*%
%TD*%
%TA.AperFunction,WasherPad*%
%ADD11C,1.000000*%
%TD*%
%TA.AperFunction,SMDPad,CuDef*%
%ADD12R,1.250000X0.900000*%
%TD*%
%TA.AperFunction,ComponentPad*%
%ADD13R,1.778000X1.778000*%
%TD*%
%TA.AperFunction,SMDPad,CuDef*%
%ADD14R,1.200000X0.900000*%
%TD*%
%TA.AperFunction,ComponentPad*%
%ADD15C,1.905000*%
%TD*%
%TA.AperFunction,ComponentPad*%
%ADD16R,1.700000X1.200000*%
%TD*%
%TA.AperFunction,ComponentPad*%
%ADD17O,1.700000X1.200000*%
%TD*%
%TA.AperFunction,ComponentPad*%
%ADD18C,1.752600*%
%TD*%
%TA.AperFunction,Conductor*%
%ADD19C,0.250000*%
%TD*%
G04 APERTURE END LIST*
D10*
%TO.P,T1,*%
%TO.N,*%
X105100000Y56700000D03*
X102900000Y56700000D03*
D11*
X104000000Y54500000D03*
X104000000Y51500000D03*
D10*
X105100000Y49300000D03*
X102900000Y49300000D03*
D12*
%TO.P,T1,1*%
%TO.N,RAW*%
X101925000Y50750000D03*
%TO.P,T1,2*%
X101925000Y53750000D03*
%TO.P,T1,3*%
%TO.N,N/C*%
X101925000Y55250000D03*
%TD*%
D13*
%TO.P,D9,1*%
%TO.N,P029*%
X26500000Y51880000D03*
D14*
X26500000Y54040000D03*
%TO.P,D9,2*%
%TO.N,pinky_top*%
X26500000Y57340000D03*
D15*
X26500000Y59500000D03*
%TD*%
D13*
%TO.P,D30,1*%
%TO.N,P031*%
X102500000Y77380000D03*
D14*
X102500000Y79540000D03*
%TO.P,D30,2*%
%TO.N,inner_mod*%
X102500000Y82840000D03*
D15*
X102500000Y85000000D03*
%TD*%
D13*
%TO.P,D26,1*%
%TO.N,P113*%
X103000000Y4880000D03*
D14*
X103000000Y7040000D03*
%TO.P,D26,2*%
%TO.N,inner_num*%
X103000000Y10340000D03*
D15*
X103000000Y12500000D03*
%TD*%
D13*
%TO.P,D7,1*%
%TO.N,P115*%
X26500000Y14880000D03*
D14*
X26500000Y17040000D03*
%TO.P,D7,2*%
%TO.N,pinky_bottom*%
X26500000Y20340000D03*
D15*
X26500000Y22500000D03*
%TD*%
D13*
%TO.P,D2,1*%
%TO.N,P115*%
X7000000Y7880000D03*
D14*
X7000000Y10040000D03*
%TO.P,D2,2*%
%TO.N,outer_bottom*%
X7000000Y13340000D03*
D15*
X7000000Y15500000D03*
%TD*%
D13*
%TO.P,D5,1*%
%TO.N,P031*%
X6500000Y64040000D03*
D14*
X6500000Y66200000D03*
%TO.P,D5,2*%
%TO.N,outer_mod*%
X6500000Y69500000D03*
D15*
X6500000Y71660000D03*
%TD*%
D13*
%TO.P,D4,1*%
%TO.N,P029*%
X6000000Y46880000D03*
D14*
X6000000Y49040000D03*
%TO.P,D4,2*%
%TO.N,outer_top*%
X6000000Y52340000D03*
D15*
X6000000Y54500000D03*
%TD*%
D13*
%TO.P,D12,1*%
%TO.N,P115*%
X46000000Y23380000D03*
D14*
X46000000Y25540000D03*
%TO.P,D12,2*%
%TO.N,ring_bottom*%
X46000000Y28840000D03*
D15*
X46000000Y31000000D03*
%TD*%
D13*
%TO.P,D6,1*%
%TO.N,P113*%
X26500000Y-4120000D03*
D14*
X26500000Y-1960000D03*
%TO.P,D6,2*%
%TO.N,pinky_num*%
X26500000Y1340000D03*
D15*
X26500000Y3500000D03*
%TD*%
D13*
%TO.P,D29,1*%
%TO.N,P029*%
X102500000Y59000000D03*
D14*
X102500000Y61160000D03*
%TO.P,D29,2*%
%TO.N,inner_top*%
X102500000Y64460000D03*
D15*
X102500000Y66620000D03*
%TD*%
D13*
%TO.P,D11,1*%
%TO.N,P113*%
X46000000Y4380000D03*
D14*
X46000000Y6540000D03*
%TO.P,D11,2*%
%TO.N,ring_num*%
X46000000Y9840000D03*
D15*
X46000000Y12000000D03*
%TD*%
D13*
%TO.P,D1,1*%
%TO.N,P113*%
X7500000Y-6120000D03*
D14*
X7500000Y-3960000D03*
%TO.P,D1,2*%
%TO.N,outer_num*%
X7500000Y-660000D03*
D15*
X7500000Y1500000D03*
%TD*%
D13*
%TO.P,D27,1*%
%TO.N,P115*%
X101000000Y19040000D03*
D14*
X101000000Y21200000D03*
%TO.P,D27,2*%
%TO.N,inner_bottom*%
X101000000Y24500000D03*
D15*
X101000000Y26660000D03*
%TD*%
D16*
%TO.P,JST1,1*%
%TO.N,RAW*%
X98500000Y71500000D03*
D17*
%TO.P,JST1,2*%
%TO.N,GND*%
X98500000Y73500000D03*
%TD*%
D13*
%TO.P,D23,1*%
%TO.N,P002*%
X82000000Y40880000D03*
D14*
X82000000Y43040000D03*
%TO.P,D23,2*%
%TO.N,index_home*%
X82000000Y46340000D03*
D15*
X82000000Y48500000D03*
%TD*%
D13*
%TO.P,D14,1*%
%TO.N,P029*%
X46000000Y61380000D03*
D14*
X46000000Y63540000D03*
%TO.P,D14,2*%
%TO.N,ring_top*%
X46000000Y66840000D03*
D15*
X46000000Y69000000D03*
%TD*%
D13*
%TO.P,D10,1*%
%TO.N,P031*%
X25000000Y65380000D03*
D14*
X25000000Y67540000D03*
%TO.P,D10,2*%
%TO.N,pinky_mod*%
X25000000Y70840000D03*
D15*
X25000000Y73000000D03*
%TD*%
D13*
%TO.P,D16,1*%
%TO.N,P113*%
X65000000Y15380000D03*
D14*
X65000000Y17540000D03*
%TO.P,D16,2*%
%TO.N,middle_num*%
X65000000Y20840000D03*
D15*
X65000000Y23000000D03*
%TD*%
D13*
%TO.P,D18,1*%
%TO.N,P002*%
X65000000Y51380000D03*
D14*
X65000000Y53540000D03*
%TO.P,D18,2*%
%TO.N,middle_home*%
X65000000Y56840000D03*
D15*
X65000000Y59000000D03*
%TD*%
D13*
%TO.P,D28,1*%
%TO.N,P002*%
X101000000Y38380000D03*
D14*
X101000000Y40540000D03*
%TO.P,D28,2*%
%TO.N,inner_home*%
X101000000Y43840000D03*
D15*
X101000000Y46000000D03*
%TD*%
D13*
%TO.P,D8,1*%
%TO.N,P002*%
X26500000Y33380000D03*
D14*
X26500000Y35540000D03*
%TO.P,D8,2*%
%TO.N,pinky_home*%
X26500000Y38840000D03*
D15*
X26500000Y41000000D03*
%TD*%
D13*
%TO.P,D15,1*%
%TO.N,P031*%
X46000000Y80380000D03*
D14*
X46000000Y82540000D03*
%TO.P,D15,2*%
%TO.N,ring_mod*%
X46000000Y85840000D03*
D15*
X46000000Y88000000D03*
%TD*%
D13*
%TO.P,D25,1*%
%TO.N,P031*%
X84000000Y81000000D03*
D14*
X84000000Y83160000D03*
%TO.P,D25,2*%
%TO.N,index_mod*%
X84000000Y86460000D03*
D15*
X84000000Y88620000D03*
%TD*%
D13*
%TO.P,D19,1*%
%TO.N,P029*%
X65000000Y70880000D03*
D14*
X65000000Y73040000D03*
%TO.P,D19,2*%
%TO.N,middle_top*%
X65000000Y76340000D03*
D15*
X65000000Y78500000D03*
%TD*%
D13*
%TO.P,D24,1*%
%TO.N,P029*%
X82000000Y59880000D03*
D14*
X82000000Y62040000D03*
%TO.P,D24,2*%
%TO.N,index_top*%
X82000000Y65340000D03*
D15*
X82000000Y67500000D03*
%TD*%
D13*
%TO.P,D20,1*%
%TO.N,P031*%
X65000000Y87380000D03*
D14*
X65000000Y89540000D03*
%TO.P,D20,2*%
%TO.N,middle_mod*%
X65000000Y92840000D03*
D15*
X65000000Y95000000D03*
%TD*%
D13*
%TO.P,D13,1*%
%TO.N,P002*%
X46000000Y42380000D03*
D14*
X46000000Y44540000D03*
%TO.P,D13,2*%
%TO.N,ring_home*%
X46000000Y47840000D03*
D15*
X46000000Y50000000D03*
%TD*%
D13*
%TO.P,D21,1*%
%TO.N,P113*%
X82000000Y2880000D03*
D14*
X82000000Y5040000D03*
%TO.P,D21,2*%
%TO.N,index_num*%
X82000000Y8340000D03*
D15*
X82000000Y10500000D03*
%TD*%
D13*
%TO.P,D3,1*%
%TO.N,P002*%
X8000000Y32380000D03*
D14*
X8000000Y34540000D03*
%TO.P,D3,2*%
%TO.N,outer_home*%
X8000000Y37840000D03*
D15*
X8000000Y40000000D03*
%TD*%
D13*
%TO.P,D17,1*%
%TO.N,P115*%
X64500000Y28880000D03*
D14*
X64500000Y31040000D03*
%TO.P,D17,2*%
%TO.N,middle_bottom*%
X64500000Y34340000D03*
D15*
X64500000Y36500000D03*
%TD*%
D18*
%TO.P,MCU1,1*%
%TO.N,P006*%
X99970000Y92620000D03*
%TO.P,MCU1,2*%
%TO.N,P008*%
X97430000Y92620000D03*
%TO.P,MCU1,3*%
%TO.N,GND*%
X94890000Y92620000D03*
%TO.P,MCU1,4*%
X92350000Y92620000D03*
%TO.P,MCU1,5*%
%TO.N,P017*%
X89810000Y92620000D03*
%TO.P,MCU1,6*%
%TO.N,P020*%
X87270000Y92620000D03*
%TO.P,MCU1,7*%
%TO.N,P022*%
X84730000Y92620000D03*
%TO.P,MCU1,8*%
%TO.N,P024*%
X82190000Y92620000D03*
%TO.P,MCU1,9*%
%TO.N,P100*%
X79650000Y92620000D03*
%TO.P,MCU1,10*%
%TO.N,P011*%
X77110000Y92620000D03*
%TO.P,MCU1,11*%
%TO.N,P104*%
X74570000Y92620000D03*
%TO.P,MCU1,12*%
%TO.N,P106*%
X72030000Y92620000D03*
%TO.P,MCU1,13*%
%TO.N,P009*%
X72030000Y77380000D03*
%TO.P,MCU1,14*%
%TO.N,P010*%
X74570000Y77380000D03*
%TO.P,MCU1,15*%
%TO.N,P111*%
X77110000Y77380000D03*
%TO.P,MCU1,16*%
%TO.N,P113*%
X79650000Y77380000D03*
%TO.P,MCU1,17*%
%TO.N,P115*%
X82190000Y77380000D03*
%TO.P,MCU1,18*%
%TO.N,P002*%
X84730000Y77380000D03*
%TO.P,MCU1,19*%
%TO.N,P029*%
X87270000Y77380000D03*
%TO.P,MCU1,20*%
%TO.N,P031*%
X89810000Y77380000D03*
%TO.P,MCU1,21*%
%TO.N,VCC*%
X92350000Y77380000D03*
%TO.P,MCU1,22*%
%TO.N,RST*%
X94890000Y77380000D03*
%TO.P,MCU1,23*%
%TO.N,GND*%
X97430000Y77380000D03*
%TO.P,MCU1,24*%
%TO.N,RAW*%
X99970000Y77380000D03*
%TD*%
D13*
%TO.P,D22,1*%
%TO.N,P115*%
X82500000Y21880000D03*
D14*
X82500000Y24040000D03*
%TO.P,D22,2*%
%TO.N,index_bottom*%
X82500000Y27340000D03*
D15*
X82500000Y29500000D03*
%TD*%
D19*
%TO.N,outer_num*%
X7500000Y-660000D02*
X7500000Y1500000D01*
%TO.N,outer_bottom*%
X7000000Y13340000D02*
X7000000Y15500000D01*
%TO.N,outer_home*%
X8000000Y37840000D02*
X8000000Y40000000D01*
%TO.N,outer_top*%
X6000000Y52340000D02*
X6000000Y54500000D01*
%TO.N,outer_mod*%
X6500000Y69500000D02*
X6500000Y71660000D01*
%TO.N,pinky_num*%
X26500000Y1340000D02*
X26500000Y3500000D01*
%TO.N,pinky_bottom*%
X26500000Y20340000D02*
X26500000Y22500000D01*
%TO.N,pinky_home*%
X26500000Y41000000D02*
X26500000Y38840000D01*
%TO.N,pinky_top*%
X26500000Y57340000D02*
X26500000Y59500000D01*
%TO.N,pinky_mod*%
X25000000Y70840000D02*
X25000000Y73000000D01*
%TO.N,ring_num*%
X46000000Y12000000D02*
X46000000Y9840000D01*
%TO.N,ring_bottom*%
X46000000Y28840000D02*
X46000000Y31000000D01*
%TO.N,ring_home*%
X46000000Y47840000D02*
X46000000Y50000000D01*
%TO.N,ring_top*%
X46000000Y66840000D02*
X46000000Y69000000D01*
%TO.N,ring_mod*%
X46000000Y88000000D02*
X46000000Y85840000D01*
%TO.N,middle_num*%
X65000000Y20840000D02*
X65000000Y23000000D01*
%TO.N,middle_bottom*%
X64500000Y34340000D02*
X64500000Y36500000D01*
%TO.N,middle_home*%
X65000000Y56840000D02*
X65000000Y59000000D01*
%TO.N,middle_top*%
X65000000Y76340000D02*
X65000000Y78500000D01*
%TO.N,middle_mod*%
X65000000Y95000000D02*
X65000000Y92840000D01*
%TO.N,index_num*%
X82000000Y10500000D02*
X82000000Y8340000D01*
%TO.N,index_bottom*%
X82500000Y29500000D02*
X82500000Y27340000D01*
%TO.N,index_home*%
X82000000Y46340000D02*
X82000000Y48500000D01*
%TO.N,index_top*%
X82000000Y65340000D02*
X82000000Y67500000D01*
%TO.N,index_mod*%
X84000000Y86460000D02*
X84000000Y88620000D01*
%TO.N,inner_num*%
X103000000Y10340000D02*
X103000000Y12500000D01*
%TO.N,inner_bottom*%
X101000000Y26660000D02*
X101000000Y24500000D01*
%TO.N,inner_home*%
X101000000Y43840000D02*
X101000000Y46000000D01*
%TO.N,inner_top*%
X102500000Y64460000D02*
X102500000Y66620000D01*
%TO.N,inner_mod*%
X102500000Y82840000D02*
X102500000Y85000000D01*
%TO.N,P113*%
X47500000Y8500000D02*
X47500000Y4500000D01*
X94853705Y70500000D02*
X88471300Y76882405D01*
X47500000Y4500000D02*
X47380000Y4380000D01*
X65000000Y10500000D02*
X49500000Y10500000D01*
X65000000Y17540000D02*
X67960000Y17540000D01*
X80500000Y79500000D02*
X80500000Y78230000D01*
X104500000Y46000000D02*
X104500000Y17000000D01*
X86348895Y80000000D02*
X86000000Y80000000D01*
X97500000Y69500000D02*
X97500000Y50000000D01*
X96500000Y70500000D02*
X97500000Y69500000D01*
X86000000Y80000000D02*
X85500000Y79500000D01*
X103000000Y47500000D02*
X104500000Y46000000D01*
X79000000Y6200000D02*
X79000000Y15380000D01*
X45500000Y1000000D02*
X29460000Y1000000D01*
X65000000Y15380000D02*
X65000000Y10500000D01*
X49500000Y10500000D02*
X47500000Y8500000D01*
X102500000Y3380000D02*
X102000000Y2880000D01*
X82000000Y2880000D02*
X82000000Y5040000D01*
X97500000Y50000000D02*
X100000000Y47500000D01*
X88471300Y76882405D02*
X88471300Y77877595D01*
X29460000Y1000000D02*
X26500000Y-1960000D01*
X102500000Y5540000D02*
X102500000Y3380000D01*
X88471300Y77877595D02*
X86348895Y80000000D01*
X94853705Y70500000D02*
X96500000Y70500000D01*
X85500000Y79500000D02*
X80500000Y79500000D01*
X26500000Y-4120000D02*
X26500000Y-1960000D01*
X65000000Y15380000D02*
X65000000Y17540000D01*
X68500000Y17000000D02*
X104500000Y17000000D01*
X46000000Y4380000D02*
X46000000Y6540000D01*
X46000000Y1500000D02*
X45500000Y1000000D01*
X82000000Y5040000D02*
X80160000Y5040000D01*
X47380000Y4380000D02*
X46000000Y4380000D01*
X67960000Y17540000D02*
X68500000Y17000000D01*
X102000000Y2880000D02*
X82000000Y2880000D01*
X80500000Y78230000D02*
X79650000Y77380000D01*
X80160000Y5040000D02*
X79000000Y6200000D01*
X100000000Y47500000D02*
X103000000Y47500000D01*
X103000000Y7040000D02*
X103000000Y4880000D01*
X7500000Y-6120000D02*
X7500000Y-3960000D01*
X46000000Y4380000D02*
X46000000Y1500000D01*
X79000000Y15380000D02*
X65000000Y15380000D01*
%TO.N,P115*%
X61380000Y23380000D02*
X46000000Y23380000D01*
X39540000Y17040000D02*
X26500000Y17040000D01*
X82500000Y21880000D02*
X82500000Y24040000D01*
X92000000Y67570000D02*
X92000000Y38830000D01*
X64500000Y28880000D02*
X64500000Y26500000D01*
X97590000Y38830000D02*
X101000000Y42240000D01*
X83540000Y19040000D02*
X101000000Y19040000D01*
X82190000Y77380000D02*
X92000000Y67570000D01*
X64500000Y26500000D02*
X61380000Y23380000D01*
X26500000Y14880000D02*
X26500000Y12000000D01*
X82500000Y21880000D02*
X82500000Y20000000D01*
X92000000Y38830000D02*
X97590000Y38830000D01*
X83500000Y19000000D02*
X83540000Y19040000D01*
X104000000Y39240000D02*
X104000000Y24200000D01*
X101000000Y19040000D02*
X101000000Y21200000D01*
X101000000Y42240000D02*
X104000000Y39240000D01*
X104000000Y24200000D02*
X101000000Y21200000D01*
X22380000Y7880000D02*
X7000000Y7880000D01*
X46000000Y23380000D02*
X45880000Y23380000D01*
X82500000Y20000000D02*
X83500000Y19000000D01*
X46000000Y25540000D02*
X46000000Y23380000D01*
X82500000Y21880000D02*
X69120000Y21880000D01*
X26500000Y12000000D02*
X22380000Y7880000D01*
X7000000Y10040000D02*
X7000000Y7880000D01*
X69120000Y21880000D02*
X64500000Y26500000D01*
X64500000Y28880000D02*
X64500000Y31040000D01*
X26500000Y17040000D02*
X26500000Y14880000D01*
X45880000Y23380000D02*
X39540000Y17040000D01*
%TO.N,P002*%
X65000000Y51380000D02*
X65000000Y53540000D01*
X8000000Y32380000D02*
X8000000Y34540000D01*
X78088000Y53540000D02*
X83391300Y58843300D01*
X84730000Y78270000D02*
X84730000Y77380000D01*
X101000000Y40540000D02*
X101000000Y38380000D01*
X82000000Y40880000D02*
X82000000Y43040000D01*
X80500000Y76500000D02*
X80950000Y76950000D01*
X80950000Y76950000D02*
X80950000Y78950000D01*
X83391300Y58843300D02*
X83391300Y73608700D01*
X26500000Y30000000D02*
X26500000Y33380000D01*
X84000000Y79000000D02*
X84730000Y78270000D01*
X101000000Y38380000D02*
X84500000Y38380000D01*
X58160000Y44540000D02*
X61820000Y40880000D01*
X84500000Y38380000D02*
X82000000Y40880000D01*
X26500000Y35540000D02*
X39160000Y35540000D01*
X83391300Y73608700D02*
X80500000Y76500000D01*
X39160000Y35540000D02*
X46000000Y42380000D01*
X10880000Y29500000D02*
X27000000Y29500000D01*
X46000000Y44540000D02*
X58160000Y44540000D01*
X27000000Y29500000D02*
X26500000Y30000000D01*
X8000000Y32380000D02*
X10880000Y29500000D01*
X80950000Y78950000D02*
X81000000Y79000000D01*
X81000000Y79000000D02*
X84000000Y79000000D01*
X65000000Y53540000D02*
X78088000Y53540000D01*
X58160000Y44540000D02*
X65000000Y51380000D01*
X26500000Y35540000D02*
X26500000Y33380000D01*
X46000000Y42380000D02*
X46000000Y44540000D01*
X61820000Y40880000D02*
X82000000Y40880000D01*
%TO.N,P029*%
X65000000Y70880000D02*
X65000000Y73040000D01*
X65000000Y70880000D02*
X65000000Y63500000D01*
X65000000Y63500000D02*
X68620000Y59880000D01*
X6000000Y46880000D02*
X6000000Y49040000D01*
X68620000Y59880000D02*
X82000000Y59880000D01*
X46000000Y61380000D02*
X47620000Y63000000D01*
X57120000Y63000000D02*
X65000000Y70880000D01*
X46000000Y61380000D02*
X46000000Y63000000D01*
X102500000Y59000000D02*
X102500000Y61160000D01*
X46000000Y63000000D02*
X46000000Y63540000D01*
X26500000Y54040000D02*
X38660000Y54040000D01*
X47620000Y63000000D02*
X57120000Y63000000D01*
X26500000Y51880000D02*
X26500000Y54040000D01*
X82000000Y59880000D02*
X82000000Y62040000D01*
X38660000Y54040000D02*
X46000000Y61380000D01*
%TO.N,P031*%
X71401650Y87500000D02*
X71901650Y87000000D01*
X84000000Y83860000D02*
X84000000Y83160000D01*
X6500000Y66200000D02*
X6500000Y64040000D01*
X95387595Y93821300D02*
X91852405Y93821300D01*
X86190000Y81000000D02*
X84000000Y81000000D01*
X39120000Y73500000D02*
X29500000Y73500000D01*
X65000000Y89540000D02*
X65000000Y87380000D01*
X70598350Y87500000D02*
X71401650Y87500000D01*
X7320000Y65380000D02*
X6500000Y66200000D01*
X97880000Y90333705D02*
X96091300Y92122405D01*
X91852405Y93821300D02*
X91148700Y93117595D01*
X25540000Y67540000D02*
X25000000Y67540000D01*
X46000000Y82540000D02*
X46000000Y80380000D01*
X65000000Y87380000D02*
X60160000Y82540000D01*
X96091300Y93117595D02*
X95387595Y93821300D01*
X27000000Y71000000D02*
X27000000Y69000000D01*
X84000000Y83160000D02*
X84000000Y81000000D01*
X65380000Y87000000D02*
X70098350Y87000000D01*
X91148700Y93117595D02*
X91148700Y91008700D01*
X46000000Y80380000D02*
X39120000Y73500000D01*
X71901650Y87000000D02*
X75045001Y87000000D01*
X70098350Y87000000D02*
X70598350Y87500000D01*
X96091300Y92122405D02*
X96091300Y93117595D01*
X29500000Y73500000D02*
X27000000Y71000000D01*
X60160000Y82540000D02*
X46000000Y82540000D01*
X102500000Y77380000D02*
X102500000Y79540000D01*
X65000000Y87380000D02*
X65380000Y87000000D01*
X75045001Y87000000D02*
X78885001Y83160000D01*
X89810000Y77380000D02*
X86190000Y81000000D01*
X97880000Y82000000D02*
X97880000Y90333705D01*
X91148700Y91008700D02*
X84000000Y83860000D01*
X102500000Y77380000D02*
X97880000Y82000000D01*
X78885001Y83160000D02*
X84000000Y83160000D01*
X27000000Y69000000D02*
X25540000Y67540000D01*
X25000000Y67540000D02*
X25000000Y65380000D01*
X25000000Y65380000D02*
X7320000Y65380000D01*
%TO.N,RAW*%
X99970000Y77380000D02*
X99970000Y72970000D01*
X98250000Y53750000D02*
X98000000Y54000000D01*
X98000000Y54000000D02*
X98500000Y54500000D01*
X99970000Y72970000D02*
X98500000Y71500000D01*
X101925000Y53750000D02*
X98250000Y53750000D01*
X98500000Y54500000D02*
X98500000Y71500000D01*
X101925000Y50750000D02*
X101925000Y53750000D01*
%TO.N,GND*%
X98500000Y73500000D02*
X98500000Y76310000D01*
X97430000Y77380000D02*
X97430000Y90080000D01*
X98500000Y76310000D02*
X97430000Y77380000D01*
X97430000Y90080000D02*
X94890000Y92620000D01*
X94890000Y92620000D02*
X92350000Y92620000D01*
%TD*%
M02*
