%TF.GenerationSoftware,KiCad,Pcbnew,9.0.8*%
%TF.CreationDate,2026-03-20T01:35:37-07:00*%
%TF.ProjectId,left,6c656674-2e6b-4696-9361-645f70636258,v1.0.0*%
%TF.SameCoordinates,Original*%
%TF.FileFunction,Paste,Bot*%
%TF.FilePolarity,Positive*%
%FSLAX46Y46*%
G04 Gerber Fmt 4.6, Leading zero omitted, Abs format (unit mm)*
G04 Created by KiCad (PCBNEW 9.0.8) date 2026-03-20 01:35:37*
%MOMM*%
%LPD*%
G01*
G04 APERTURE LIST*
%ADD10R,1.200000X0.900000*%
%ADD11R,2.600000X2.600000*%
G04 APERTURE END LIST*
D10*
%TO.C,D9*%
X26500000Y54040000D03*
X26500000Y57340000D03*
%TD*%
D11*
%TO.C,S20*%
X60275000Y89050000D03*
X48725000Y91250000D03*
%TD*%
%TO.C,S10*%
X22275000Y70050000D03*
X10725000Y72250000D03*
%TD*%
D10*
%TO.C,D30*%
X102500000Y79540000D03*
X102500000Y82840000D03*
%TD*%
%TO.C,D26*%
X103000000Y7040000D03*
X103000000Y10340000D03*
%TD*%
%TO.C,D7*%
X26500000Y17040000D03*
X26500000Y20340000D03*
%TD*%
D11*
%TO.C,S25*%
X79275000Y83050000D03*
X67725000Y85250000D03*
%TD*%
%TO.C,S1*%
X3275000Y-5950000D03*
X-8275000Y-3750000D03*
%TD*%
D10*
%TO.C,D2*%
X7000000Y10040000D03*
X7000000Y13340000D03*
%TD*%
%TO.C,D5*%
X6500000Y66200000D03*
X6500000Y69500000D03*
%TD*%
D11*
%TO.C,S22*%
X79275000Y26050000D03*
X67725000Y28250000D03*
%TD*%
D10*
%TO.C,D4*%
X6000000Y49040000D03*
X6000000Y52340000D03*
%TD*%
D11*
%TO.C,S28*%
X98275000Y43050000D03*
X86725000Y45250000D03*
%TD*%
D10*
%TO.C,D12*%
X46000000Y25540000D03*
X46000000Y28840000D03*
%TD*%
%TO.C,D6*%
X26500000Y-1960000D03*
X26500000Y1340000D03*
%TD*%
D11*
%TO.C,S23*%
X79275000Y45050000D03*
X67725000Y47250000D03*
%TD*%
%TO.C,S26*%
X98275000Y5050000D03*
X86725000Y7250000D03*
%TD*%
D10*
%TO.C,D29*%
X102500000Y61160000D03*
X102500000Y64460000D03*
%TD*%
D11*
%TO.C,S11*%
X41275000Y6050000D03*
X29725000Y8250000D03*
%TD*%
%TO.C,S29*%
X98275000Y62050000D03*
X86725000Y64250000D03*
%TD*%
D10*
%TO.C,D11*%
X46000000Y6540000D03*
X46000000Y9840000D03*
%TD*%
D11*
%TO.C,S5*%
X3275000Y70050000D03*
X-8275000Y72250000D03*
%TD*%
%TO.C,S16*%
X60275000Y13050000D03*
X48725000Y15250000D03*
%TD*%
D10*
%TO.C,D1*%
X7500000Y-3960000D03*
X7500000Y-660000D03*
%TD*%
%TO.C,D27*%
X101000000Y21200000D03*
X101000000Y24500000D03*
%TD*%
D11*
%TO.C,S12*%
X41275000Y25050000D03*
X29725000Y27250000D03*
%TD*%
%TO.C,S14*%
X41275000Y63050000D03*
X29725000Y65250000D03*
%TD*%
%TO.C,S24*%
X79275000Y64050000D03*
X67725000Y66250000D03*
%TD*%
D10*
%TO.C,D23*%
X82000000Y43040000D03*
X82000000Y46340000D03*
%TD*%
%TO.C,D14*%
X46000000Y63540000D03*
X46000000Y66840000D03*
%TD*%
D11*
%TO.C,S19*%
X60275000Y70050000D03*
X48725000Y72250000D03*
%TD*%
D10*
%TO.C,D10*%
X25000000Y67540000D03*
X25000000Y70840000D03*
%TD*%
%TO.C,D16*%
X65000000Y17540000D03*
X65000000Y20840000D03*
%TD*%
%TO.C,D18*%
X65000000Y53540000D03*
X65000000Y56840000D03*
%TD*%
%TO.C,D28*%
X101000000Y40540000D03*
X101000000Y43840000D03*
%TD*%
D11*
%TO.C,S30*%
X98275000Y81050000D03*
X86725000Y83250000D03*
%TD*%
%TO.C,S4*%
X3275000Y51050000D03*
X-8275000Y53250000D03*
%TD*%
D10*
%TO.C,D8*%
X26500000Y35540000D03*
X26500000Y38840000D03*
%TD*%
%TO.C,D15*%
X46000000Y82540000D03*
X46000000Y85840000D03*
%TD*%
D11*
%TO.C,S27*%
X98275000Y24050000D03*
X86725000Y26250000D03*
%TD*%
%TO.C,S3*%
X3275000Y32050000D03*
X-8275000Y34250000D03*
%TD*%
%TO.C,S17*%
X60275000Y32050000D03*
X48725000Y34250000D03*
%TD*%
%TO.C,S21*%
X79275000Y7050000D03*
X67725000Y9250000D03*
%TD*%
D10*
%TO.C,D25*%
X84000000Y83160000D03*
X84000000Y86460000D03*
%TD*%
%TO.C,D19*%
X65000000Y73040000D03*
X65000000Y76340000D03*
%TD*%
D11*
%TO.C,S7*%
X22275000Y13050000D03*
X10725000Y15250000D03*
%TD*%
%TO.C,S13*%
X41275000Y44050000D03*
X29725000Y46250000D03*
%TD*%
D10*
%TO.C,D24*%
X82000000Y62040000D03*
X82000000Y65340000D03*
%TD*%
%TO.C,D20*%
X65000000Y89540000D03*
X65000000Y92840000D03*
%TD*%
%TO.C,D13*%
X46000000Y44540000D03*
X46000000Y47840000D03*
%TD*%
D11*
%TO.C,S8*%
X22275000Y32050000D03*
X10725000Y34250000D03*
%TD*%
%TO.C,S6*%
X22275000Y-5950000D03*
X10725000Y-3750000D03*
%TD*%
D10*
%TO.C,D21*%
X82000000Y5040000D03*
X82000000Y8340000D03*
%TD*%
%TO.C,D3*%
X8000000Y34540000D03*
X8000000Y37840000D03*
%TD*%
%TO.C,D17*%
X64500000Y31040000D03*
X64500000Y34340000D03*
%TD*%
D11*
%TO.C,S15*%
X41275000Y82050000D03*
X29725000Y84250000D03*
%TD*%
D10*
%TO.C,D22*%
X82500000Y24040000D03*
X82500000Y27340000D03*
%TD*%
D11*
%TO.C,S18*%
X60275000Y51050000D03*
X48725000Y53250000D03*
%TD*%
%TO.C,S9*%
X22275000Y51050000D03*
X10725000Y53250000D03*
%TD*%
%TO.C,S2*%
X3275000Y13050000D03*
X-8275000Y15250000D03*
%TD*%
M02*
