M48
; DRILL file {KiCad 9.0.8} date 2026-03-20T01:35:43-0700
; FORMAT={-:-/ absolute / metric / decimal}
; #@! TF.CreationDate,2026-03-20T01:35:43-07:00
; #@! TF.GenerationSoftware,Kicad,Pcbnew,9.0.8
; #@! TF.FileFunction,Plated,1,2,PTH
FMAT,2
METRIC
; #@! TA.AperFunction,Plated,PTH,ComponentDrill
T1C0.750
; #@! TA.AperFunction,Plated,PTH,ComponentDrill
T2C0.991
; #@! TA.AperFunction,Plated,PTH,ComponentDrill
T3C1.092
%
G90
G05
T1
X98.5Y73.5
X98.5Y71.5
T2
X6.0Y54.5
X6.0Y46.88
X6.5Y71.66
X6.5Y64.04
X7.0Y15.5
X7.0Y7.88
X7.5Y1.5
X7.5Y-6.12
X8.0Y40.0
X8.0Y32.38
X25.0Y73.0
X25.0Y65.38
X26.5Y59.5
X26.5Y51.88
X26.5Y41.0
X26.5Y33.38
X26.5Y22.5
X26.5Y14.88
X26.5Y3.5
X26.5Y-4.12
X46.0Y88.0
X46.0Y80.38
X46.0Y69.0
X46.0Y61.38
X46.0Y50.0
X46.0Y42.38
X46.0Y31.0
X46.0Y23.38
X46.0Y12.0
X46.0Y4.38
X64.5Y36.5
X64.5Y28.88
X65.0Y95.0
X65.0Y87.38
X65.0Y78.5
X65.0Y70.88
X65.0Y59.0
X65.0Y51.38
X65.0Y23.0
X65.0Y15.38
X82.0Y67.5
X82.0Y59.88
X82.0Y48.5
X82.0Y40.88
X82.0Y10.5
X82.0Y2.88
X82.5Y29.5
X82.5Y21.88
X84.0Y88.62
X84.0Y81.0
X101.0Y46.0
X101.0Y38.38
X101.0Y26.66
X101.0Y19.04
X102.5Y85.0
X102.5Y77.38
X102.5Y66.62
X102.5Y59.0
X103.0Y12.5
X103.0Y4.88
T3
X72.03Y92.62
X72.03Y77.38
X74.57Y92.62
X74.57Y77.38
X77.11Y92.62
X77.11Y77.38
X79.65Y92.62
X79.65Y77.38
X82.19Y92.62
X82.19Y77.38
X84.73Y92.62
X84.73Y77.38
X87.27Y92.62
X87.27Y77.38
X89.81Y92.62
X89.81Y77.38
X92.35Y92.62
X92.35Y77.38
X94.89Y92.62
X94.89Y77.38
X97.43Y92.62
X97.43Y77.38
X99.97Y92.62
X99.97Y77.38
M30
