%TF.GenerationSoftware,KiCad,Pcbnew,9.0.8*%
%TF.CreationDate,2026-03-20T01:35:37-07:00*%
%TF.ProjectId,left,6c656674-2e6b-4696-9361-645f70636258,v1.0.0*%
%TF.SameCoordinates,Original*%
%TF.FileFunction,Soldermask,Bot*%
%TF.FilePolarity,Negative*%
%FSLAX46Y46*%
G04 Gerber Fmt 4.6, Leading zero omitted, Abs format (unit mm)*
G04 Created by KiCad (PCBNEW 9.0.8) date 2026-03-20 01:35:37*
%MOMM*%
%LPD*%
G01*
G04 APERTURE LIST*
G04 Aperture macros list*
%AMRoundRect*
0 Rectangle with rounded corners*
0 $1 Rounding radius*
0 $2 $3 $4 $5 $6 $7 $8 $9 X,Y pos of 4 corners*
0 Add a 4 corners polygon primitive as box body*
4,1,4,$2,$3,$4,$5,$6,$7,$8,$9,$2,$3,0*
0 Add four circle primitives for the rounded corners*
1,1,$1+$1,$2,$3*
1,1,$1+$1,$4,$5*
1,1,$1+$1,$6,$7*
1,1,$1+$1,$8,$9*
0 Add four rect primitives between the rounded corners*
20,1,$1+$1,$2,$3,$4,$5,0*
20,1,$1+$1,$4,$5,$6,$7,0*
20,1,$1+$1,$6,$7,$8,$9,0*
20,1,$1+$1,$8,$9,$2,$3,0*%
G04 Aperture macros list end*
%ADD10C,1.100000*%
%ADD11RoundRect,0.050000X0.889000X-0.889000X0.889000X0.889000X-0.889000X0.889000X-0.889000X-0.889000X0*%
%ADD12RoundRect,0.050000X0.600000X-0.450000X0.600000X0.450000X-0.600000X0.450000X-0.600000X-0.450000X0*%
%ADD13C,2.005000*%
%ADD14C,1.801800*%
%ADD15C,3.100000*%
%ADD16C,3.529000*%
%ADD17RoundRect,0.050000X1.300000X1.300000X-1.300000X1.300000X-1.300000X-1.300000X1.300000X-1.300000X0*%
%ADD18RoundRect,0.050000X0.850000X-0.600000X0.850000X0.600000X-0.850000X0.600000X-0.850000X-0.600000X0*%
%ADD19O,1.800000X1.300000*%
%ADD20C,1.852600*%
G04 APERTURE END LIST*
D10*
%TO.C,T1*%
X104000000Y54500000D03*
X104000000Y51500000D03*
%TD*%
D11*
%TO.C,D9*%
X26500000Y51880000D03*
D12*
X26500000Y54040000D03*
X26500000Y57340000D03*
D13*
X26500000Y59500000D03*
%TD*%
D14*
%TO.C,S20*%
X62500000Y95000000D03*
D15*
X57000000Y89050000D03*
D16*
X57000000Y95000000D03*
D15*
X52000000Y91250000D03*
D14*
X51500000Y95000000D03*
D17*
X60275000Y89050000D03*
X48725000Y91250000D03*
%TD*%
D14*
%TO.C,S10*%
X24500000Y76000000D03*
D15*
X19000000Y70050000D03*
D16*
X19000000Y76000000D03*
D15*
X14000000Y72250000D03*
D14*
X13500000Y76000000D03*
D17*
X22275000Y70050000D03*
X10725000Y72250000D03*
%TD*%
D11*
%TO.C,D30*%
X102500000Y77380000D03*
D12*
X102500000Y79540000D03*
X102500000Y82840000D03*
D13*
X102500000Y85000000D03*
%TD*%
D11*
%TO.C,D26*%
X103000000Y4880000D03*
D12*
X103000000Y7040000D03*
X103000000Y10340000D03*
D13*
X103000000Y12500000D03*
%TD*%
D11*
%TO.C,D7*%
X26500000Y14880000D03*
D12*
X26500000Y17040000D03*
X26500000Y20340000D03*
D13*
X26500000Y22500000D03*
%TD*%
D14*
%TO.C,S25*%
X81500000Y89000000D03*
D15*
X76000000Y83050000D03*
D16*
X76000000Y89000000D03*
D15*
X71000000Y85250000D03*
D14*
X70500000Y89000000D03*
D17*
X79275000Y83050000D03*
X67725000Y85250000D03*
%TD*%
D14*
%TO.C,S1*%
X5500000Y0D03*
D15*
X0Y-5950000D03*
D16*
X0Y0D03*
D15*
X-5000000Y-3750000D03*
D14*
X-5500000Y0D03*
D17*
X3275000Y-5950000D03*
X-8275000Y-3750000D03*
%TD*%
D11*
%TO.C,D2*%
X7000000Y7880000D03*
D12*
X7000000Y10040000D03*
X7000000Y13340000D03*
D13*
X7000000Y15500000D03*
%TD*%
D11*
%TO.C,D5*%
X6500000Y64040000D03*
D12*
X6500000Y66200000D03*
X6500000Y69500000D03*
D13*
X6500000Y71660000D03*
%TD*%
D14*
%TO.C,S22*%
X81500000Y32000000D03*
D15*
X76000000Y26050000D03*
D16*
X76000000Y32000000D03*
D15*
X71000000Y28250000D03*
D14*
X70500000Y32000000D03*
D17*
X79275000Y26050000D03*
X67725000Y28250000D03*
%TD*%
D11*
%TO.C,D4*%
X6000000Y46880000D03*
D12*
X6000000Y49040000D03*
X6000000Y52340000D03*
D13*
X6000000Y54500000D03*
%TD*%
D14*
%TO.C,S28*%
X100500000Y49000000D03*
D15*
X95000000Y43050000D03*
D16*
X95000000Y49000000D03*
D15*
X90000000Y45250000D03*
D14*
X89500000Y49000000D03*
D17*
X98275000Y43050000D03*
X86725000Y45250000D03*
%TD*%
D11*
%TO.C,D12*%
X46000000Y23380000D03*
D12*
X46000000Y25540000D03*
X46000000Y28840000D03*
D13*
X46000000Y31000000D03*
%TD*%
D11*
%TO.C,D6*%
X26500000Y-4120000D03*
D12*
X26500000Y-1960000D03*
X26500000Y1340000D03*
D13*
X26500000Y3500000D03*
%TD*%
D14*
%TO.C,S23*%
X81500000Y51000000D03*
D15*
X76000000Y45050000D03*
D16*
X76000000Y51000000D03*
D15*
X71000000Y47250000D03*
D14*
X70500000Y51000000D03*
D17*
X79275000Y45050000D03*
X67725000Y47250000D03*
%TD*%
D14*
%TO.C,S26*%
X100500000Y11000000D03*
D15*
X95000000Y5050000D03*
D16*
X95000000Y11000000D03*
D15*
X90000000Y7250000D03*
D14*
X89500000Y11000000D03*
D17*
X98275000Y5050000D03*
X86725000Y7250000D03*
%TD*%
D11*
%TO.C,D29*%
X102500000Y59000000D03*
D12*
X102500000Y61160000D03*
X102500000Y64460000D03*
D13*
X102500000Y66620000D03*
%TD*%
D14*
%TO.C,S11*%
X43500000Y12000000D03*
D15*
X38000000Y6050000D03*
D16*
X38000000Y12000000D03*
D15*
X33000000Y8250000D03*
D14*
X32500000Y12000000D03*
D17*
X41275000Y6050000D03*
X29725000Y8250000D03*
%TD*%
D14*
%TO.C,S29*%
X100500000Y68000000D03*
D15*
X95000000Y62050000D03*
D16*
X95000000Y68000000D03*
D15*
X90000000Y64250000D03*
D14*
X89500000Y68000000D03*
D17*
X98275000Y62050000D03*
X86725000Y64250000D03*
%TD*%
D11*
%TO.C,D11*%
X46000000Y4380000D03*
D12*
X46000000Y6540000D03*
X46000000Y9840000D03*
D13*
X46000000Y12000000D03*
%TD*%
D14*
%TO.C,S5*%
X5500000Y76000000D03*
D15*
X0Y70050000D03*
D16*
X0Y76000000D03*
D15*
X-5000000Y72250000D03*
D14*
X-5500000Y76000000D03*
D17*
X3275000Y70050000D03*
X-8275000Y72250000D03*
%TD*%
D14*
%TO.C,S16*%
X62500000Y19000000D03*
D15*
X57000000Y13050000D03*
D16*
X57000000Y19000000D03*
D15*
X52000000Y15250000D03*
D14*
X51500000Y19000000D03*
D17*
X60275000Y13050000D03*
X48725000Y15250000D03*
%TD*%
D11*
%TO.C,D1*%
X7500000Y-6120000D03*
D12*
X7500000Y-3960000D03*
X7500000Y-660000D03*
D13*
X7500000Y1500000D03*
%TD*%
D11*
%TO.C,D27*%
X101000000Y19040000D03*
D12*
X101000000Y21200000D03*
X101000000Y24500000D03*
D13*
X101000000Y26660000D03*
%TD*%
D14*
%TO.C,S12*%
X43500000Y31000000D03*
D15*
X38000000Y25050000D03*
D16*
X38000000Y31000000D03*
D15*
X33000000Y27250000D03*
D14*
X32500000Y31000000D03*
D17*
X41275000Y25050000D03*
X29725000Y27250000D03*
%TD*%
D14*
%TO.C,S14*%
X43500000Y69000000D03*
D15*
X38000000Y63050000D03*
D16*
X38000000Y69000000D03*
D15*
X33000000Y65250000D03*
D14*
X32500000Y69000000D03*
D17*
X41275000Y63050000D03*
X29725000Y65250000D03*
%TD*%
D14*
%TO.C,S24*%
X81500000Y70000000D03*
D15*
X76000000Y64050000D03*
D16*
X76000000Y70000000D03*
D15*
X71000000Y66250000D03*
D14*
X70500000Y70000000D03*
D17*
X79275000Y64050000D03*
X67725000Y66250000D03*
%TD*%
D18*
%TO.C,JST1*%
X98500000Y71500000D03*
D19*
X98500000Y73500000D03*
%TD*%
D11*
%TO.C,D23*%
X82000000Y40880000D03*
D12*
X82000000Y43040000D03*
X82000000Y46340000D03*
D13*
X82000000Y48500000D03*
%TD*%
D11*
%TO.C,D14*%
X46000000Y61380000D03*
D12*
X46000000Y63540000D03*
X46000000Y66840000D03*
D13*
X46000000Y69000000D03*
%TD*%
D14*
%TO.C,S19*%
X62500000Y76000000D03*
D15*
X57000000Y70050000D03*
D16*
X57000000Y76000000D03*
D15*
X52000000Y72250000D03*
D14*
X51500000Y76000000D03*
D17*
X60275000Y70050000D03*
X48725000Y72250000D03*
%TD*%
D11*
%TO.C,D10*%
X25000000Y65380000D03*
D12*
X25000000Y67540000D03*
X25000000Y70840000D03*
D13*
X25000000Y73000000D03*
%TD*%
D11*
%TO.C,D16*%
X65000000Y15380000D03*
D12*
X65000000Y17540000D03*
X65000000Y20840000D03*
D13*
X65000000Y23000000D03*
%TD*%
D11*
%TO.C,D18*%
X65000000Y51380000D03*
D12*
X65000000Y53540000D03*
X65000000Y56840000D03*
D13*
X65000000Y59000000D03*
%TD*%
D11*
%TO.C,D28*%
X101000000Y38380000D03*
D12*
X101000000Y40540000D03*
X101000000Y43840000D03*
D13*
X101000000Y46000000D03*
%TD*%
D14*
%TO.C,S30*%
X100500000Y87000000D03*
D15*
X95000000Y81050000D03*
D16*
X95000000Y87000000D03*
D15*
X90000000Y83250000D03*
D14*
X89500000Y87000000D03*
D17*
X98275000Y81050000D03*
X86725000Y83250000D03*
%TD*%
D14*
%TO.C,S4*%
X5500000Y57000000D03*
D15*
X0Y51050000D03*
D16*
X0Y57000000D03*
D15*
X-5000000Y53250000D03*
D14*
X-5500000Y57000000D03*
D17*
X3275000Y51050000D03*
X-8275000Y53250000D03*
%TD*%
D11*
%TO.C,D8*%
X26500000Y33380000D03*
D12*
X26500000Y35540000D03*
X26500000Y38840000D03*
D13*
X26500000Y41000000D03*
%TD*%
D11*
%TO.C,D15*%
X46000000Y80380000D03*
D12*
X46000000Y82540000D03*
X46000000Y85840000D03*
D13*
X46000000Y88000000D03*
%TD*%
D14*
%TO.C,S27*%
X100500000Y30000000D03*
D15*
X95000000Y24050000D03*
D16*
X95000000Y30000000D03*
D15*
X90000000Y26250000D03*
D14*
X89500000Y30000000D03*
D17*
X98275000Y24050000D03*
X86725000Y26250000D03*
%TD*%
D14*
%TO.C,S3*%
X5500000Y38000000D03*
D15*
X0Y32050000D03*
D16*
X0Y38000000D03*
D15*
X-5000000Y34250000D03*
D14*
X-5500000Y38000000D03*
D17*
X3275000Y32050000D03*
X-8275000Y34250000D03*
%TD*%
D14*
%TO.C,S17*%
X62500000Y38000000D03*
D15*
X57000000Y32050000D03*
D16*
X57000000Y38000000D03*
D15*
X52000000Y34250000D03*
D14*
X51500000Y38000000D03*
D17*
X60275000Y32050000D03*
X48725000Y34250000D03*
%TD*%
D14*
%TO.C,S21*%
X81500000Y13000000D03*
D15*
X76000000Y7050000D03*
D16*
X76000000Y13000000D03*
D15*
X71000000Y9250000D03*
D14*
X70500000Y13000000D03*
D17*
X79275000Y7050000D03*
X67725000Y9250000D03*
%TD*%
D11*
%TO.C,D25*%
X84000000Y81000000D03*
D12*
X84000000Y83160000D03*
X84000000Y86460000D03*
D13*
X84000000Y88620000D03*
%TD*%
D11*
%TO.C,D19*%
X65000000Y70880000D03*
D12*
X65000000Y73040000D03*
X65000000Y76340000D03*
D13*
X65000000Y78500000D03*
%TD*%
D14*
%TO.C,S7*%
X24500000Y19000000D03*
D15*
X19000000Y13050000D03*
D16*
X19000000Y19000000D03*
D15*
X14000000Y15250000D03*
D14*
X13500000Y19000000D03*
D17*
X22275000Y13050000D03*
X10725000Y15250000D03*
%TD*%
D14*
%TO.C,S13*%
X43500000Y50000000D03*
D15*
X38000000Y44050000D03*
D16*
X38000000Y50000000D03*
D15*
X33000000Y46250000D03*
D14*
X32500000Y50000000D03*
D17*
X41275000Y44050000D03*
X29725000Y46250000D03*
%TD*%
D11*
%TO.C,D24*%
X82000000Y59880000D03*
D12*
X82000000Y62040000D03*
X82000000Y65340000D03*
D13*
X82000000Y67500000D03*
%TD*%
D11*
%TO.C,D20*%
X65000000Y87380000D03*
D12*
X65000000Y89540000D03*
X65000000Y92840000D03*
D13*
X65000000Y95000000D03*
%TD*%
D11*
%TO.C,D13*%
X46000000Y42380000D03*
D12*
X46000000Y44540000D03*
X46000000Y47840000D03*
D13*
X46000000Y50000000D03*
%TD*%
D14*
%TO.C,S8*%
X24500000Y38000000D03*
D15*
X19000000Y32050000D03*
D16*
X19000000Y38000000D03*
D15*
X14000000Y34250000D03*
D14*
X13500000Y38000000D03*
D17*
X22275000Y32050000D03*
X10725000Y34250000D03*
%TD*%
D14*
%TO.C,S6*%
X24500000Y0D03*
D15*
X19000000Y-5950000D03*
D16*
X19000000Y0D03*
D15*
X14000000Y-3750000D03*
D14*
X13500000Y0D03*
D17*
X22275000Y-5950000D03*
X10725000Y-3750000D03*
%TD*%
D11*
%TO.C,D21*%
X82000000Y2880000D03*
D12*
X82000000Y5040000D03*
X82000000Y8340000D03*
D13*
X82000000Y10500000D03*
%TD*%
D11*
%TO.C,D3*%
X8000000Y32380000D03*
D12*
X8000000Y34540000D03*
X8000000Y37840000D03*
D13*
X8000000Y40000000D03*
%TD*%
D11*
%TO.C,D17*%
X64500000Y28880000D03*
D12*
X64500000Y31040000D03*
X64500000Y34340000D03*
D13*
X64500000Y36500000D03*
%TD*%
D14*
%TO.C,S15*%
X43500000Y88000000D03*
D15*
X38000000Y82050000D03*
D16*
X38000000Y88000000D03*
D15*
X33000000Y84250000D03*
D14*
X32500000Y88000000D03*
D17*
X41275000Y82050000D03*
X29725000Y84250000D03*
%TD*%
D20*
%TO.C,MCU1*%
X99970000Y92620000D03*
X97430000Y92620000D03*
X94890000Y92620000D03*
X92350000Y92620000D03*
X89810000Y92620000D03*
X87270000Y92620000D03*
X84730000Y92620000D03*
X82190000Y92620000D03*
X79650000Y92620000D03*
X77110000Y92620000D03*
X74570000Y92620000D03*
X72030000Y92620000D03*
X72030000Y77380000D03*
X74570000Y77380000D03*
X77110000Y77380000D03*
X79650000Y77380000D03*
X82190000Y77380000D03*
X84730000Y77380000D03*
X87270000Y77380000D03*
X89810000Y77380000D03*
X92350000Y77380000D03*
X94890000Y77380000D03*
X97430000Y77380000D03*
X99970000Y77380000D03*
%TD*%
D11*
%TO.C,D22*%
X82500000Y21880000D03*
D12*
X82500000Y24040000D03*
X82500000Y27340000D03*
D13*
X82500000Y29500000D03*
%TD*%
D14*
%TO.C,S18*%
X62500000Y57000000D03*
D15*
X57000000Y51050000D03*
D16*
X57000000Y57000000D03*
D15*
X52000000Y53250000D03*
D14*
X51500000Y57000000D03*
D17*
X60275000Y51050000D03*
X48725000Y53250000D03*
%TD*%
D14*
%TO.C,S9*%
X24500000Y57000000D03*
D15*
X19000000Y51050000D03*
D16*
X19000000Y57000000D03*
D15*
X14000000Y53250000D03*
D14*
X13500000Y57000000D03*
D17*
X22275000Y51050000D03*
X10725000Y53250000D03*
%TD*%
D14*
%TO.C,S2*%
X5500000Y19000000D03*
D15*
X0Y13050000D03*
D16*
X0Y19000000D03*
D15*
X-5000000Y15250000D03*
D14*
X-5500000Y19000000D03*
D17*
X3275000Y13050000D03*
X-8275000Y15250000D03*
%TD*%
M02*
