%TF.GenerationSoftware,KiCad,Pcbnew,9.0.8*%
%TF.CreationDate,2026-03-20T01:35:37-07:00*%
%TF.ProjectId,left,6c656674-2e6b-4696-9361-645f70636258,v1.0.0*%
%TF.SameCoordinates,Original*%
%TF.FileFunction,Copper,L2,Bot*%
%TF.FilePolarity,Positive*%
%FSLAX46Y46*%
G04 Gerber Fmt 4.6, Leading zero omitted, Abs format (unit mm)*
G04 Created by KiCad (PCBNEW 9.0.8) date 2026-03-20 01:35:37*
%MOMM*%
%LPD*%
G01*
G04 APERTURE LIST*
%TA.AperFunction,WasherPad*%
%ADD10C,1.000000*%
%TD*%
%TA.AperFunction,ComponentPad*%
%ADD11R,1.778000X1.778000*%
%TD*%
%TA.AperFunction,SMDPad,CuDef*%
%ADD12R,1.200000X0.900000*%
%TD*%
%TA.AperFunction,ComponentPad*%
%ADD13C,1.905000*%
%TD*%
%TA.AperFunction,SMDPad,CuDef*%
%ADD14R,2.600000X2.600000*%
%TD*%
%TA.AperFunction,ComponentPad*%
%ADD15R,1.700000X1.200000*%
%TD*%
%TA.AperFunction,ComponentPad*%
%ADD16O,1.700000X1.200000*%
%TD*%
%TA.AperFunction,ComponentPad*%
%ADD17C,1.752600*%
%TD*%
%TA.AperFunction,Conductor*%
%ADD18C,0.250000*%
%TD*%
G04 APERTURE END LIST*
D10*
%TO.P,T1,*%
%TO.N,*%
X104000000Y54500000D03*
X104000000Y51500000D03*
%TD*%
D11*
%TO.P,D9,1*%
%TO.N,P029*%
X26500000Y51880000D03*
D12*
X26500000Y54040000D03*
%TO.P,D9,2*%
%TO.N,pinky_top*%
X26500000Y57340000D03*
D13*
X26500000Y59500000D03*
%TD*%
D14*
%TO.P,S20,1*%
%TO.N,P100*%
X60275000Y89050000D03*
%TO.P,S20,2*%
%TO.N,middle_mod*%
X48725000Y91250000D03*
%TD*%
%TO.P,S10,1*%
%TO.N,P022*%
X22275000Y70050000D03*
%TO.P,S10,2*%
%TO.N,pinky_mod*%
X10725000Y72250000D03*
%TD*%
D11*
%TO.P,D30,1*%
%TO.N,P031*%
X102500000Y77380000D03*
D12*
X102500000Y79540000D03*
%TO.P,D30,2*%
%TO.N,inner_mod*%
X102500000Y82840000D03*
D13*
X102500000Y85000000D03*
%TD*%
D11*
%TO.P,D26,1*%
%TO.N,P113*%
X103000000Y4880000D03*
D12*
X103000000Y7040000D03*
%TO.P,D26,2*%
%TO.N,inner_num*%
X103000000Y10340000D03*
D13*
X103000000Y12500000D03*
%TD*%
D11*
%TO.P,D7,1*%
%TO.N,P115*%
X26500000Y14880000D03*
D12*
X26500000Y17040000D03*
%TO.P,D7,2*%
%TO.N,pinky_bottom*%
X26500000Y20340000D03*
D13*
X26500000Y22500000D03*
%TD*%
D14*
%TO.P,S25,1*%
%TO.N,P011*%
X79275000Y83050000D03*
%TO.P,S25,2*%
%TO.N,index_mod*%
X67725000Y85250000D03*
%TD*%
%TO.P,S1,1*%
%TO.N,P020*%
X3275000Y-5950000D03*
%TO.P,S1,2*%
%TO.N,outer_num*%
X-8275000Y-3750000D03*
%TD*%
D11*
%TO.P,D2,1*%
%TO.N,P115*%
X7000000Y7880000D03*
D12*
X7000000Y10040000D03*
%TO.P,D2,2*%
%TO.N,outer_bottom*%
X7000000Y13340000D03*
D13*
X7000000Y15500000D03*
%TD*%
D11*
%TO.P,D5,1*%
%TO.N,P031*%
X6500000Y64040000D03*
D12*
X6500000Y66200000D03*
%TO.P,D5,2*%
%TO.N,outer_mod*%
X6500000Y69500000D03*
D13*
X6500000Y71660000D03*
%TD*%
D14*
%TO.P,S22,1*%
%TO.N,P011*%
X79275000Y26050000D03*
%TO.P,S22,2*%
%TO.N,index_bottom*%
X67725000Y28250000D03*
%TD*%
D11*
%TO.P,D4,1*%
%TO.N,P029*%
X6000000Y46880000D03*
D12*
X6000000Y49040000D03*
%TO.P,D4,2*%
%TO.N,outer_top*%
X6000000Y52340000D03*
D13*
X6000000Y54500000D03*
%TD*%
D14*
%TO.P,S28,1*%
%TO.N,P017*%
X98275000Y43050000D03*
%TO.P,S28,2*%
%TO.N,inner_home*%
X86725000Y45250000D03*
%TD*%
D11*
%TO.P,D12,1*%
%TO.N,P115*%
X46000000Y23380000D03*
D12*
X46000000Y25540000D03*
%TO.P,D12,2*%
%TO.N,ring_bottom*%
X46000000Y28840000D03*
D13*
X46000000Y31000000D03*
%TD*%
D11*
%TO.P,D6,1*%
%TO.N,P113*%
X26500000Y-4120000D03*
D12*
X26500000Y-1960000D03*
%TO.P,D6,2*%
%TO.N,pinky_num*%
X26500000Y1340000D03*
D13*
X26500000Y3500000D03*
%TD*%
D14*
%TO.P,S23,1*%
%TO.N,P011*%
X79275000Y45050000D03*
%TO.P,S23,2*%
%TO.N,index_home*%
X67725000Y47250000D03*
%TD*%
%TO.P,S26,1*%
%TO.N,P017*%
X98275000Y5050000D03*
%TO.P,S26,2*%
%TO.N,inner_num*%
X86725000Y7250000D03*
%TD*%
D11*
%TO.P,D29,1*%
%TO.N,P029*%
X102500000Y59000000D03*
D12*
X102500000Y61160000D03*
%TO.P,D29,2*%
%TO.N,inner_top*%
X102500000Y64460000D03*
D13*
X102500000Y66620000D03*
%TD*%
D14*
%TO.P,S11,1*%
%TO.N,P024*%
X41275000Y6050000D03*
%TO.P,S11,2*%
%TO.N,ring_num*%
X29725000Y8250000D03*
%TD*%
%TO.P,S29,1*%
%TO.N,P017*%
X98275000Y62050000D03*
%TO.P,S29,2*%
%TO.N,inner_top*%
X86725000Y64250000D03*
%TD*%
D11*
%TO.P,D11,1*%
%TO.N,P113*%
X46000000Y4380000D03*
D12*
X46000000Y6540000D03*
%TO.P,D11,2*%
%TO.N,ring_num*%
X46000000Y9840000D03*
D13*
X46000000Y12000000D03*
%TD*%
D14*
%TO.P,S5,1*%
%TO.N,P020*%
X3275000Y70050000D03*
%TO.P,S5,2*%
%TO.N,outer_mod*%
X-8275000Y72250000D03*
%TD*%
%TO.P,S16,1*%
%TO.N,P100*%
X60275000Y13050000D03*
%TO.P,S16,2*%
%TO.N,middle_num*%
X48725000Y15250000D03*
%TD*%
D11*
%TO.P,D1,1*%
%TO.N,P113*%
X7500000Y-6120000D03*
D12*
X7500000Y-3960000D03*
%TO.P,D1,2*%
%TO.N,outer_num*%
X7500000Y-660000D03*
D13*
X7500000Y1500000D03*
%TD*%
D11*
%TO.P,D27,1*%
%TO.N,P115*%
X101000000Y19040000D03*
D12*
X101000000Y21200000D03*
%TO.P,D27,2*%
%TO.N,inner_bottom*%
X101000000Y24500000D03*
D13*
X101000000Y26660000D03*
%TD*%
D14*
%TO.P,S12,1*%
%TO.N,P024*%
X41275000Y25050000D03*
%TO.P,S12,2*%
%TO.N,ring_bottom*%
X29725000Y27250000D03*
%TD*%
%TO.P,S14,1*%
%TO.N,P024*%
X41275000Y63050000D03*
%TO.P,S14,2*%
%TO.N,ring_top*%
X29725000Y65250000D03*
%TD*%
%TO.P,S24,1*%
%TO.N,P011*%
X79275000Y64050000D03*
%TO.P,S24,2*%
%TO.N,index_top*%
X67725000Y66250000D03*
%TD*%
D15*
%TO.P,JST1,1*%
%TO.N,RAW*%
X98500000Y71500000D03*
D16*
%TO.P,JST1,2*%
%TO.N,GND*%
X98500000Y73500000D03*
%TD*%
D11*
%TO.P,D23,1*%
%TO.N,P002*%
X82000000Y40880000D03*
D12*
X82000000Y43040000D03*
%TO.P,D23,2*%
%TO.N,index_home*%
X82000000Y46340000D03*
D13*
X82000000Y48500000D03*
%TD*%
D11*
%TO.P,D14,1*%
%TO.N,P029*%
X46000000Y61380000D03*
D12*
X46000000Y63540000D03*
%TO.P,D14,2*%
%TO.N,ring_top*%
X46000000Y66840000D03*
D13*
X46000000Y69000000D03*
%TD*%
D14*
%TO.P,S19,1*%
%TO.N,P100*%
X60275000Y70050000D03*
%TO.P,S19,2*%
%TO.N,middle_top*%
X48725000Y72250000D03*
%TD*%
D11*
%TO.P,D10,1*%
%TO.N,P031*%
X25000000Y65380000D03*
D12*
X25000000Y67540000D03*
%TO.P,D10,2*%
%TO.N,pinky_mod*%
X25000000Y70840000D03*
D13*
X25000000Y73000000D03*
%TD*%
D11*
%TO.P,D16,1*%
%TO.N,P113*%
X65000000Y15380000D03*
D12*
X65000000Y17540000D03*
%TO.P,D16,2*%
%TO.N,middle_num*%
X65000000Y20840000D03*
D13*
X65000000Y23000000D03*
%TD*%
D11*
%TO.P,D18,1*%
%TO.N,P002*%
X65000000Y51380000D03*
D12*
X65000000Y53540000D03*
%TO.P,D18,2*%
%TO.N,middle_home*%
X65000000Y56840000D03*
D13*
X65000000Y59000000D03*
%TD*%
D11*
%TO.P,D28,1*%
%TO.N,P002*%
X101000000Y38380000D03*
D12*
X101000000Y40540000D03*
%TO.P,D28,2*%
%TO.N,inner_home*%
X101000000Y43840000D03*
D13*
X101000000Y46000000D03*
%TD*%
D14*
%TO.P,S30,1*%
%TO.N,P017*%
X98275000Y81050000D03*
%TO.P,S30,2*%
%TO.N,inner_mod*%
X86725000Y83250000D03*
%TD*%
%TO.P,S4,1*%
%TO.N,P020*%
X3275000Y51050000D03*
%TO.P,S4,2*%
%TO.N,outer_top*%
X-8275000Y53250000D03*
%TD*%
D11*
%TO.P,D8,1*%
%TO.N,P002*%
X26500000Y33380000D03*
D12*
X26500000Y35540000D03*
%TO.P,D8,2*%
%TO.N,pinky_home*%
X26500000Y38840000D03*
D13*
X26500000Y41000000D03*
%TD*%
D11*
%TO.P,D15,1*%
%TO.N,P031*%
X46000000Y80380000D03*
D12*
X46000000Y82540000D03*
%TO.P,D15,2*%
%TO.N,ring_mod*%
X46000000Y85840000D03*
D13*
X46000000Y88000000D03*
%TD*%
D14*
%TO.P,S27,1*%
%TO.N,P017*%
X98275000Y24050000D03*
%TO.P,S27,2*%
%TO.N,inner_bottom*%
X86725000Y26250000D03*
%TD*%
%TO.P,S3,1*%
%TO.N,P020*%
X3275000Y32050000D03*
%TO.P,S3,2*%
%TO.N,outer_home*%
X-8275000Y34250000D03*
%TD*%
%TO.P,S17,1*%
%TO.N,P100*%
X60275000Y32050000D03*
%TO.P,S17,2*%
%TO.N,middle_bottom*%
X48725000Y34250000D03*
%TD*%
%TO.P,S21,1*%
%TO.N,P011*%
X79275000Y7050000D03*
%TO.P,S21,2*%
%TO.N,index_num*%
X67725000Y9250000D03*
%TD*%
D11*
%TO.P,D25,1*%
%TO.N,P031*%
X84000000Y81000000D03*
D12*
X84000000Y83160000D03*
%TO.P,D25,2*%
%TO.N,index_mod*%
X84000000Y86460000D03*
D13*
X84000000Y88620000D03*
%TD*%
D11*
%TO.P,D19,1*%
%TO.N,P029*%
X65000000Y70880000D03*
D12*
X65000000Y73040000D03*
%TO.P,D19,2*%
%TO.N,middle_top*%
X65000000Y76340000D03*
D13*
X65000000Y78500000D03*
%TD*%
D14*
%TO.P,S7,1*%
%TO.N,P022*%
X22275000Y13050000D03*
%TO.P,S7,2*%
%TO.N,pinky_bottom*%
X10725000Y15250000D03*
%TD*%
%TO.P,S13,1*%
%TO.N,P024*%
X41275000Y44050000D03*
%TO.P,S13,2*%
%TO.N,ring_home*%
X29725000Y46250000D03*
%TD*%
D11*
%TO.P,D24,1*%
%TO.N,P029*%
X82000000Y59880000D03*
D12*
X82000000Y62040000D03*
%TO.P,D24,2*%
%TO.N,index_top*%
X82000000Y65340000D03*
D13*
X82000000Y67500000D03*
%TD*%
D11*
%TO.P,D20,1*%
%TO.N,P031*%
X65000000Y87380000D03*
D12*
X65000000Y89540000D03*
%TO.P,D20,2*%
%TO.N,middle_mod*%
X65000000Y92840000D03*
D13*
X65000000Y95000000D03*
%TD*%
D11*
%TO.P,D13,1*%
%TO.N,P002*%
X46000000Y42380000D03*
D12*
X46000000Y44540000D03*
%TO.P,D13,2*%
%TO.N,ring_home*%
X46000000Y47840000D03*
D13*
X46000000Y50000000D03*
%TD*%
D14*
%TO.P,S8,1*%
%TO.N,P022*%
X22275000Y32050000D03*
%TO.P,S8,2*%
%TO.N,pinky_home*%
X10725000Y34250000D03*
%TD*%
%TO.P,S6,1*%
%TO.N,P022*%
X22275000Y-5950000D03*
%TO.P,S6,2*%
%TO.N,pinky_num*%
X10725000Y-3750000D03*
%TD*%
D11*
%TO.P,D21,1*%
%TO.N,P113*%
X82000000Y2880000D03*
D12*
X82000000Y5040000D03*
%TO.P,D21,2*%
%TO.N,index_num*%
X82000000Y8340000D03*
D13*
X82000000Y10500000D03*
%TD*%
D11*
%TO.P,D3,1*%
%TO.N,P002*%
X8000000Y32380000D03*
D12*
X8000000Y34540000D03*
%TO.P,D3,2*%
%TO.N,outer_home*%
X8000000Y37840000D03*
D13*
X8000000Y40000000D03*
%TD*%
D11*
%TO.P,D17,1*%
%TO.N,P115*%
X64500000Y28880000D03*
D12*
X64500000Y31040000D03*
%TO.P,D17,2*%
%TO.N,middle_bottom*%
X64500000Y34340000D03*
D13*
X64500000Y36500000D03*
%TD*%
D14*
%TO.P,S15,1*%
%TO.N,P024*%
X41275000Y82050000D03*
%TO.P,S15,2*%
%TO.N,ring_mod*%
X29725000Y84250000D03*
%TD*%
D17*
%TO.P,MCU1,1*%
%TO.N,P006*%
X99970000Y92620000D03*
%TO.P,MCU1,2*%
%TO.N,P008*%
X97430000Y92620000D03*
%TO.P,MCU1,3*%
%TO.N,GND*%
X94890000Y92620000D03*
%TO.P,MCU1,4*%
X92350000Y92620000D03*
%TO.P,MCU1,5*%
%TO.N,P017*%
X89810000Y92620000D03*
%TO.P,MCU1,6*%
%TO.N,P020*%
X87270000Y92620000D03*
%TO.P,MCU1,7*%
%TO.N,P022*%
X84730000Y92620000D03*
%TO.P,MCU1,8*%
%TO.N,P024*%
X82190000Y92620000D03*
%TO.P,MCU1,9*%
%TO.N,P100*%
X79650000Y92620000D03*
%TO.P,MCU1,10*%
%TO.N,P011*%
X77110000Y92620000D03*
%TO.P,MCU1,11*%
%TO.N,P104*%
X74570000Y92620000D03*
%TO.P,MCU1,12*%
%TO.N,P106*%
X72030000Y92620000D03*
%TO.P,MCU1,13*%
%TO.N,P009*%
X72030000Y77380000D03*
%TO.P,MCU1,14*%
%TO.N,P010*%
X74570000Y77380000D03*
%TO.P,MCU1,15*%
%TO.N,P111*%
X77110000Y77380000D03*
%TO.P,MCU1,16*%
%TO.N,P113*%
X79650000Y77380000D03*
%TO.P,MCU1,17*%
%TO.N,P115*%
X82190000Y77380000D03*
%TO.P,MCU1,18*%
%TO.N,P002*%
X84730000Y77380000D03*
%TO.P,MCU1,19*%
%TO.N,P029*%
X87270000Y77380000D03*
%TO.P,MCU1,20*%
%TO.N,P031*%
X89810000Y77380000D03*
%TO.P,MCU1,21*%
%TO.N,VCC*%
X92350000Y77380000D03*
%TO.P,MCU1,22*%
%TO.N,RST*%
X94890000Y77380000D03*
%TO.P,MCU1,23*%
%TO.N,GND*%
X97430000Y77380000D03*
%TO.P,MCU1,24*%
%TO.N,RAW*%
X99970000Y77380000D03*
%TD*%
D11*
%TO.P,D22,1*%
%TO.N,P115*%
X82500000Y21880000D03*
D12*
X82500000Y24040000D03*
%TO.P,D22,2*%
%TO.N,index_bottom*%
X82500000Y27340000D03*
D13*
X82500000Y29500000D03*
%TD*%
D14*
%TO.P,S18,1*%
%TO.N,P100*%
X60275000Y51050000D03*
%TO.P,S18,2*%
%TO.N,middle_home*%
X48725000Y53250000D03*
%TD*%
%TO.P,S9,1*%
%TO.N,P022*%
X22275000Y51050000D03*
%TO.P,S9,2*%
%TO.N,pinky_top*%
X10725000Y53250000D03*
%TD*%
%TO.P,S2,1*%
%TO.N,P020*%
X3275000Y13050000D03*
%TO.P,S2,2*%
%TO.N,outer_bottom*%
X-8275000Y15250000D03*
%TD*%
D18*
%TO.N,P020*%
X9000000Y26325000D02*
X3275000Y32050000D01*
X3275000Y76275000D02*
X3275000Y70050000D01*
X23500000Y84000000D02*
X11766316Y84000000D01*
X6725000Y-2500000D02*
X3275000Y-5950000D01*
X6883158Y79116842D02*
X6116842Y79116842D01*
X6116842Y79116842D02*
X3275000Y76275000D01*
X83890000Y96000000D02*
X67069808Y96000000D01*
X9000000Y43000000D02*
X7000000Y43000000D01*
X3275000Y13050000D02*
X4825000Y11500000D01*
X3275000Y51050000D02*
X7950000Y51050000D01*
X10000000Y42000000D02*
X9000000Y43000000D01*
X49000000Y98000000D02*
X43000000Y92000000D01*
X87270000Y92620000D02*
X83890000Y96000000D01*
X43000000Y92000000D02*
X31500000Y92000000D01*
X3275000Y32050000D02*
X3920000Y32050000D01*
X9277500Y60722500D02*
X8500000Y61500000D01*
X8000000Y55193342D02*
X9277500Y56470842D01*
X9277500Y56470842D02*
X9277500Y60722500D01*
X9000000Y-2500000D02*
X6725000Y-2500000D01*
X8500000Y11500000D02*
X9000000Y11000000D01*
X4825000Y11500000D02*
X8500000Y11500000D01*
X9000000Y11000000D02*
X9000000Y-2500000D01*
X7000000Y43000000D02*
X3275000Y46725000D01*
X11766316Y84000000D02*
X6883158Y79116842D01*
X8500000Y77500000D02*
X6883158Y79116842D01*
X8000000Y51000000D02*
X8000000Y55193342D01*
X67069808Y96000000D02*
X65069808Y98000000D01*
X3275000Y51050000D02*
X4540000Y52315000D01*
X31500000Y92000000D02*
X23500000Y84000000D01*
X3275000Y46725000D02*
X3275000Y51050000D01*
X10000000Y38130000D02*
X10000000Y42000000D01*
X9000000Y11000000D02*
X9000000Y26325000D01*
X7950000Y51050000D02*
X8000000Y51000000D01*
X8500000Y61500000D02*
X8500000Y77500000D01*
X65069808Y98000000D02*
X49000000Y98000000D01*
X3920000Y32050000D02*
X10000000Y38130000D01*
%TO.N,outer_num*%
X-5210500Y2089500D02*
X-8275000Y-975000D01*
X7500000Y-660000D02*
X7500000Y1500000D01*
X6910500Y2089500D02*
X-5210500Y2089500D01*
X-8275000Y-975000D02*
X-8275000Y-3750000D01*
X7500000Y1500000D02*
X6910500Y2089500D01*
%TO.N,outer_bottom*%
X1000000Y21500000D02*
X-5000000Y21500000D01*
X7000000Y15500000D02*
X1000000Y21500000D01*
X-5000000Y21500000D02*
X-8275000Y18225000D01*
X-8275000Y18225000D02*
X-8275000Y15250000D01*
X7000000Y13340000D02*
X7000000Y15500000D01*
%TO.N,outer_home*%
X8000000Y37840000D02*
X8000000Y40000000D01*
X8000000Y40000000D02*
X7000000Y41000000D01*
X-8500000Y40500000D02*
X-8275000Y40275000D01*
X-8275000Y40275000D02*
X-8275000Y34250000D01*
X7000000Y41000000D02*
X-8500000Y41000000D01*
X-8500000Y41000000D02*
X-8500000Y40500000D01*
%TO.N,outer_top*%
X-2000000Y54500000D02*
X-2000000Y54000000D01*
X-6025000Y55500000D02*
X-3000000Y55500000D01*
X-8275000Y53250000D02*
X-6025000Y55500000D01*
X6000000Y52340000D02*
X6000000Y54500000D01*
X-500000Y54500000D02*
X6000000Y54500000D01*
X-2000000Y54000000D02*
X-1000000Y54000000D01*
X-3000000Y55500000D02*
X-2000000Y54500000D01*
X-1000000Y54000000D02*
X-500000Y54500000D01*
%TO.N,outer_mod*%
X4500000Y67500000D02*
X-3525000Y67500000D01*
X6500000Y69500000D02*
X6500000Y71660000D01*
X6500000Y69500000D02*
X4500000Y67500000D01*
X-3525000Y67500000D02*
X-8275000Y72250000D01*
%TO.N,P022*%
X27000000Y29500000D02*
X27000000Y25500000D01*
X32000000Y91500000D02*
X27000000Y86500000D01*
X22950000Y70050000D02*
X24000000Y69000000D01*
X66883412Y95550000D02*
X65135956Y97297456D01*
X28500000Y60500000D02*
X29000000Y60500000D01*
X27000000Y43000000D02*
X28000000Y42000000D01*
X65135956Y97297456D02*
X49297456Y97297456D01*
X26500000Y9500000D02*
X26500000Y6500000D01*
X84730000Y92620000D02*
X84730000Y94523604D01*
X26500000Y6500000D02*
X28000000Y5000000D01*
X29000000Y41500000D02*
X29000000Y31500000D01*
X27000000Y69000000D02*
X27000000Y62000000D01*
X29000000Y31500000D02*
X27000000Y29500000D01*
X29000000Y60500000D02*
X29000000Y51000000D01*
X22275000Y70050000D02*
X22950000Y70050000D01*
X27000000Y25500000D02*
X29000000Y23500000D01*
X24000000Y69000000D02*
X27000000Y69000000D01*
X27000000Y62000000D02*
X28500000Y60500000D01*
X66950000Y95550000D02*
X66883412Y95550000D01*
X27500000Y-6500000D02*
X26950000Y-5950000D01*
X28000000Y5000000D02*
X28000000Y-6500000D01*
X22275000Y13050000D02*
X22950000Y13050000D01*
X22950000Y13050000D02*
X26500000Y9500000D01*
X28000000Y-6500000D02*
X27500000Y-6500000D01*
X83753604Y95500000D02*
X67000000Y95500000D01*
X49297456Y97297456D02*
X44000000Y92000000D01*
X29000000Y12000000D02*
X26500000Y9500000D01*
X29000000Y23500000D02*
X29000000Y12000000D01*
X28500000Y42000000D02*
X29000000Y41500000D01*
X24450000Y32050000D02*
X27000000Y29500000D01*
X84730000Y94523604D02*
X83753604Y95500000D01*
X28000000Y42000000D02*
X28500000Y42000000D01*
X24950000Y51050000D02*
X27000000Y49000000D01*
X29000000Y51000000D02*
X27000000Y49000000D01*
X26950000Y-5950000D02*
X22275000Y-5950000D01*
X27000000Y86500000D02*
X27000000Y69000000D01*
X67000000Y95500000D02*
X66950000Y95550000D01*
X44000000Y92000000D02*
X44000000Y91500000D01*
X44000000Y91500000D02*
X32000000Y91500000D01*
X27000000Y49000000D02*
X27000000Y43000000D01*
X22275000Y32050000D02*
X24450000Y32050000D01*
X22275000Y51050000D02*
X24950000Y51050000D01*
%TO.N,pinky_num*%
X26500000Y1340000D02*
X26500000Y3500000D01*
X15266316Y3500000D02*
X26500000Y3500000D01*
X10725000Y-1041316D02*
X15266316Y3500000D01*
X10725000Y-3750000D02*
X10725000Y-1041316D01*
%TO.N,pinky_bottom*%
X26500000Y20500000D02*
X25500000Y21500000D01*
X10725000Y21275000D02*
X10500000Y21500000D01*
X10500000Y21500000D02*
X25500000Y21500000D01*
X26500000Y20340000D02*
X26500000Y20500000D01*
X10725000Y15250000D02*
X10725000Y21275000D01*
X25500000Y21500000D02*
X26500000Y22500000D01*
%TO.N,pinky_home*%
X11000000Y34525000D02*
X11000000Y41000000D01*
X26500000Y38840000D02*
X26500000Y41000000D01*
X11000000Y41000000D02*
X26500000Y41000000D01*
X10725000Y34250000D02*
X11000000Y34525000D01*
%TO.N,pinky_top*%
X14266316Y59500000D02*
X26500000Y59500000D01*
X10725000Y53250000D02*
X10725000Y55958684D01*
X10725000Y55958684D02*
X14266316Y59500000D01*
X26500000Y57340000D02*
X26500000Y59500000D01*
%TO.N,pinky_mod*%
X25000000Y70840000D02*
X25000000Y73000000D01*
X25000000Y73000000D02*
X17401650Y73000000D01*
X17401650Y73000000D02*
X16500000Y72098350D01*
X11000000Y70000000D02*
X11000000Y71975000D01*
X11000000Y71975000D02*
X10725000Y72250000D01*
X16500000Y70500000D02*
X16000000Y70000000D01*
X16500000Y72098350D02*
X16500000Y70500000D01*
X16000000Y70000000D02*
X11000000Y70000000D01*
%TO.N,P024*%
X46500000Y14000000D02*
X48000000Y12500000D01*
X69000000Y95000000D02*
X65868700Y91868700D01*
X46500000Y17500000D02*
X46500000Y14000000D01*
X48200825Y79200825D02*
X48200825Y84799175D01*
X47500000Y51000000D02*
X47500000Y46500000D01*
X48000000Y19000000D02*
X46500000Y17500000D01*
X44225000Y9000000D02*
X41275000Y6050000D01*
X43725000Y46500000D02*
X47500000Y46500000D01*
X46000000Y77325000D02*
X46000000Y77000000D01*
X46500000Y36000000D02*
X46500000Y33000000D01*
X55270350Y91868700D02*
X48200825Y84799175D01*
X47901650Y84500000D02*
X43725000Y84500000D01*
X41950000Y25050000D02*
X41275000Y25050000D01*
X47500000Y9000000D02*
X44225000Y9000000D01*
X46500000Y52000000D02*
X47500000Y51000000D01*
X82190000Y95000000D02*
X69000000Y95000000D01*
X48000000Y19000000D02*
X41950000Y25050000D01*
X41275000Y44050000D02*
X43725000Y46500000D01*
X47500000Y37000000D02*
X46500000Y36000000D01*
X48200825Y84799175D02*
X47901650Y84500000D01*
X48000000Y12500000D02*
X47500000Y12000000D01*
X48000000Y65000000D02*
X48000000Y56500000D01*
X46500000Y33000000D02*
X48000000Y31500000D01*
X82190000Y92620000D02*
X82190000Y95000000D01*
X47500000Y46500000D02*
X47500000Y37000000D01*
X46000000Y77000000D02*
X46000000Y71500000D01*
X46000000Y77000000D02*
X48200825Y79200825D01*
X48000000Y31500000D02*
X48000000Y19000000D01*
X43225000Y65000000D02*
X48000000Y65000000D01*
X48000000Y69500000D02*
X48000000Y65000000D01*
X46500000Y55000000D02*
X46500000Y52000000D01*
X43725000Y84500000D02*
X41275000Y82050000D01*
X65868700Y91868700D02*
X55270350Y91868700D01*
X47500000Y12000000D02*
X47500000Y9000000D01*
X46000000Y71500000D02*
X48000000Y69500000D01*
X48000000Y56500000D02*
X46500000Y55000000D01*
X41275000Y63050000D02*
X43225000Y65000000D01*
%TO.N,ring_num*%
X29725000Y8250000D02*
X29725000Y11225000D01*
X30500000Y13500000D02*
X31500000Y14500000D01*
X29725000Y11225000D02*
X30500000Y12000000D01*
X46000000Y13500000D02*
X46000000Y12000000D01*
X30500000Y12000000D02*
X30500000Y13500000D01*
X29725000Y8250000D02*
X29450000Y8525000D01*
X45000000Y14500000D02*
X46000000Y13500000D01*
X46000000Y9840000D02*
X46000000Y12000000D01*
X31500000Y14500000D02*
X45000000Y14500000D01*
%TO.N,ring_bottom*%
X44500000Y33500000D02*
X46000000Y32000000D01*
X46000000Y32000000D02*
X46000000Y31000000D01*
X29725000Y30725000D02*
X32500000Y33500000D01*
X46000000Y31000000D02*
X46000000Y28840000D01*
X32500000Y33500000D02*
X44500000Y33500000D01*
X29725000Y27250000D02*
X29725000Y30725000D01*
%TO.N,ring_home*%
X30000000Y51500000D02*
X31000000Y52500000D01*
X29725000Y46250000D02*
X30000000Y46525000D01*
X30000000Y46525000D02*
X30000000Y51500000D01*
X31000000Y52500000D02*
X43500000Y52500000D01*
X43500000Y52500000D02*
X46000000Y50000000D01*
X46000000Y47840000D02*
X46000000Y50000000D01*
%TO.N,ring_top*%
X30500000Y71500000D02*
X43500000Y71500000D01*
X29500000Y70500000D02*
X30500000Y71500000D01*
X43500000Y71500000D02*
X46000000Y69000000D01*
X29725000Y65250000D02*
X29500000Y65475000D01*
X46000000Y66840000D02*
X46000000Y69000000D01*
X29500000Y65475000D02*
X29500000Y70500000D01*
%TO.N,ring_mod*%
X46000000Y85840000D02*
X46000000Y88000000D01*
X32000000Y90500000D02*
X46000000Y90500000D01*
X46000000Y90500000D02*
X46000000Y88000000D01*
X29725000Y84250000D02*
X29725000Y88225000D01*
X29725000Y88225000D02*
X32000000Y90500000D01*
%TO.N,P100*%
X66183684Y13050000D02*
X66277500Y13143816D01*
X65500000Y45277500D02*
X65500000Y49000000D01*
X66277500Y44500000D02*
X65500000Y45277500D01*
X66277500Y13143816D02*
X66277500Y26047500D01*
X60275000Y85725000D02*
X60275000Y89050000D01*
X60275000Y51050000D02*
X60275000Y50502500D01*
X66500000Y63000000D02*
X65000000Y64500000D01*
X66500000Y50000000D02*
X66500000Y63000000D01*
X66500000Y79500000D02*
X60275000Y85725000D01*
X60275000Y30225000D02*
X64452500Y26047500D01*
X64775000Y66825000D02*
X65050000Y66825000D01*
X65050000Y66825000D02*
X66500000Y68275000D01*
X66000000Y26325000D02*
X66000000Y44222500D01*
X66277500Y26047500D02*
X66000000Y26325000D01*
X60275000Y70050000D02*
X61550000Y70050000D01*
X65050000Y65050000D02*
X65050000Y66825000D01*
X66500000Y68275000D02*
X66500000Y79500000D01*
X60275000Y89050000D02*
X62643700Y91418700D01*
X65500000Y49000000D02*
X66500000Y50000000D01*
X65000000Y65000000D02*
X65050000Y65050000D01*
X62643700Y91418700D02*
X66418700Y91418700D01*
X64452500Y26047500D02*
X66277500Y26047500D01*
X60275000Y50502500D02*
X66277500Y44500000D01*
X69500000Y94500000D02*
X79500000Y94500000D01*
X66418700Y91418700D02*
X69500000Y94500000D01*
X79650000Y92620000D02*
X79650000Y94350000D01*
X65000000Y64500000D02*
X65000000Y65000000D01*
X60275000Y32050000D02*
X60275000Y30225000D01*
X61550000Y70050000D02*
X64775000Y66825000D01*
X66000000Y44222500D02*
X66277500Y44500000D01*
X79650000Y94350000D02*
X79500000Y94500000D01*
X60275000Y13050000D02*
X66183684Y13050000D01*
%TO.N,middle_num*%
X48725000Y18225000D02*
X48725000Y15250000D01*
X65000000Y20840000D02*
X65000000Y23000000D01*
X53500000Y23000000D02*
X48725000Y18225000D01*
X48725000Y15250000D02*
X48725000Y17958684D01*
X65000000Y23000000D02*
X53500000Y23000000D01*
%TO.N,middle_bottom*%
X62500000Y40500000D02*
X64500000Y38500000D01*
X56545001Y40500000D02*
X62500000Y40500000D01*
X51249100Y36774100D02*
X52819101Y36774100D01*
X48725000Y34250000D02*
X51249100Y36774100D01*
X64500000Y38500000D02*
X64500000Y36500000D01*
X64500000Y36500000D02*
X64500000Y34340000D01*
X52819101Y36774100D02*
X56545001Y40500000D01*
%TO.N,middle_home*%
X64047500Y59952500D02*
X52718816Y59952500D01*
X48725000Y55958684D02*
X48725000Y53250000D01*
X65000000Y56840000D02*
X65000000Y59000000D01*
X52718816Y59952500D02*
X48725000Y55958684D01*
X65000000Y59000000D02*
X64047500Y59952500D01*
%TO.N,middle_top*%
X48725000Y74958684D02*
X52266316Y78500000D01*
X48725000Y72250000D02*
X48725000Y74958684D01*
X65000000Y76340000D02*
X65000000Y78500000D01*
X52266316Y78500000D02*
X65000000Y78500000D01*
%TO.N,middle_mod*%
X51249100Y93774100D02*
X55270901Y93774100D01*
X56205001Y92840000D02*
X65000000Y92840000D01*
X55270901Y93774100D02*
X56205001Y92840000D01*
X48725000Y91250000D02*
X51249100Y93774100D01*
X65000000Y92840000D02*
X65000000Y95000000D01*
%TO.N,P011*%
X79275000Y54725000D02*
X79275000Y64050000D01*
X80831105Y74500000D02*
X69000000Y74500000D01*
X84000000Y31500000D02*
X84500000Y31000000D01*
X83950000Y51050000D02*
X81000000Y54000000D01*
X82915552Y72415552D02*
X80831105Y74500000D01*
X69000000Y79500000D02*
X69500000Y80000000D01*
X83450000Y71881104D02*
X82915552Y72415552D01*
X84500000Y26000000D02*
X84500000Y6000000D01*
X83450000Y7050000D02*
X79275000Y7050000D01*
X84450000Y26050000D02*
X84500000Y26000000D01*
X79500000Y80000000D02*
X79275000Y80225000D01*
X79275000Y45050000D02*
X83950000Y45050000D01*
X79275000Y83050000D02*
X79275000Y90455000D01*
X79500000Y54000000D02*
X79500000Y54500000D01*
X84000000Y45000000D02*
X84000000Y31500000D01*
X79275000Y80225000D02*
X79275000Y83050000D01*
X69000000Y74500000D02*
X69000000Y79500000D01*
X79500000Y54500000D02*
X79275000Y54725000D01*
X83950000Y45050000D02*
X83950000Y51050000D01*
X81000000Y54000000D02*
X79500000Y54000000D01*
X79275000Y26050000D02*
X84450000Y26050000D01*
X83950000Y45050000D02*
X84000000Y45000000D01*
X84500000Y31000000D02*
X84500000Y26000000D01*
X79275000Y64050000D02*
X83450000Y64050000D01*
X84500000Y6000000D02*
X83450000Y7050000D01*
X69500000Y80000000D02*
X79500000Y80000000D01*
X79275000Y90455000D02*
X77110000Y92620000D01*
X83450000Y64050000D02*
X83450000Y71881104D01*
%TO.N,index_num*%
X67725000Y13275000D02*
X67725000Y9250000D01*
X82000000Y8340000D02*
X82000000Y10500000D01*
X82000000Y10500000D02*
X78500000Y14000000D01*
X78500000Y16000000D02*
X70000000Y16000000D01*
X78500000Y14000000D02*
X78500000Y16000000D01*
X70000000Y16000000D02*
X67500000Y13500000D01*
X67500000Y13500000D02*
X67725000Y13275000D01*
%TO.N,index_bottom*%
X82500000Y27340000D02*
X82500000Y29500000D01*
X79500000Y34500000D02*
X79500000Y31152962D01*
X67725000Y28250000D02*
X67500000Y28475000D01*
X79500000Y31152962D02*
X81152962Y29500000D01*
X81152962Y29500000D02*
X82500000Y29500000D01*
X67500000Y34500000D02*
X79500000Y34500000D01*
X67500000Y28475000D02*
X67500000Y34500000D01*
%TO.N,index_home*%
X79000000Y48500000D02*
X78500000Y48000000D01*
X73000000Y49000000D02*
X73000000Y53500000D01*
X72000000Y54500000D02*
X68000000Y54500000D01*
X67725000Y54225000D02*
X67725000Y47250000D01*
X82000000Y46340000D02*
X82000000Y48500000D01*
X74000000Y48000000D02*
X73000000Y49000000D01*
X82000000Y48500000D02*
X79000000Y48500000D01*
X78500000Y48000000D02*
X74000000Y48000000D01*
X73000000Y53500000D02*
X72000000Y54500000D01*
X68000000Y54500000D02*
X67725000Y54225000D01*
%TO.N,index_top*%
X67725000Y72275000D02*
X67725000Y66250000D01*
X68000000Y73000000D02*
X67500000Y72500000D01*
X79000000Y73000000D02*
X68000000Y73000000D01*
X82000000Y67500000D02*
X82000000Y65340000D01*
X79000000Y68000000D02*
X79000000Y73000000D01*
X82000000Y67500000D02*
X79500000Y67500000D01*
X79500000Y67500000D02*
X79000000Y68000000D01*
X67500000Y72500000D02*
X67725000Y72275000D01*
%TO.N,index_mod*%
X67725000Y85250000D02*
X67725000Y90013895D01*
X84000000Y86460000D02*
X84000000Y88620000D01*
X78448700Y93051300D02*
X78448700Y92122405D01*
X77500000Y94000000D02*
X78448700Y93051300D01*
X67725000Y90013895D02*
X71711105Y94000000D01*
X71711105Y94000000D02*
X77500000Y94000000D01*
X79152405Y91418700D02*
X80147595Y91418700D01*
X80147595Y91418700D02*
X81066295Y90500000D01*
X81066295Y90500000D02*
X82120000Y90500000D01*
X78448700Y92122405D02*
X79152405Y91418700D01*
X82120000Y90500000D02*
X84000000Y88620000D01*
%TO.N,P017*%
X104000000Y57000000D02*
X104000000Y62000000D01*
X104000000Y89900000D02*
X104800000Y90700000D01*
X106000000Y53500000D02*
X106000000Y55000000D01*
X104000000Y22500000D02*
X104000000Y16500000D01*
X90411105Y95000000D02*
X89810000Y94398895D01*
X104800000Y89566316D02*
X104800000Y90700000D01*
X104000000Y22500000D02*
X104000000Y45200000D01*
X89810000Y94398895D02*
X89810000Y92620000D01*
X98275000Y24050000D02*
X99825000Y22500000D01*
X104000000Y43500000D02*
X104000000Y45200000D01*
X104000000Y62000000D02*
X104000000Y89900000D01*
X98275000Y10775000D02*
X103000000Y15500000D01*
X98275000Y83041316D02*
X104800000Y89566316D01*
X100500000Y95000000D02*
X90411105Y95000000D01*
X106000000Y49333273D02*
X106000000Y53500000D01*
X98275000Y81050000D02*
X98275000Y83041316D01*
X106000000Y55000000D02*
X104000000Y57000000D01*
X102500000Y42000000D02*
X104000000Y43500000D01*
X105500000Y48833273D02*
X106000000Y49333273D01*
X98275000Y62050000D02*
X103950000Y62050000D01*
X99825000Y22500000D02*
X104000000Y22500000D01*
X99325000Y42000000D02*
X102500000Y42000000D01*
X103950000Y62050000D02*
X104000000Y62000000D01*
X105500000Y46700000D02*
X105500000Y48833273D01*
X104800000Y90700000D02*
X100500000Y95000000D01*
X98275000Y43050000D02*
X99325000Y42000000D01*
X104000000Y16500000D02*
X103000000Y15500000D01*
X104000000Y45200000D02*
X105500000Y46700000D01*
X98275000Y5050000D02*
X98275000Y10775000D01*
%TO.N,inner_num*%
X99475000Y3000000D02*
X101575000Y5100000D01*
X90975000Y3000000D02*
X99475000Y3000000D01*
X104500000Y8500000D02*
X104500000Y11000000D01*
X102000000Y8500000D02*
X104500000Y8500000D01*
X101575000Y7915000D02*
X102000000Y8340000D01*
X102000000Y8340000D02*
X102000000Y8500000D01*
X101575000Y5100000D02*
X101575000Y7915000D01*
X104500000Y11000000D02*
X103000000Y12500000D01*
X86725000Y7250000D02*
X90975000Y3000000D01*
X103000000Y10340000D02*
X103000000Y12500000D01*
%TO.N,inner_bottom*%
X101000000Y24500000D02*
X101000000Y26660000D01*
X86725000Y26250000D02*
X86725000Y32275000D01*
X86500000Y32500000D02*
X102000000Y32500000D01*
X102000000Y32500000D02*
X102500000Y32000000D01*
X102500000Y28160000D02*
X101000000Y26660000D01*
X86725000Y32275000D02*
X86500000Y32500000D01*
X102500000Y32000000D02*
X102500000Y28160000D01*
%TO.N,inner_home*%
X101000000Y43840000D02*
X101000000Y46000000D01*
X101000000Y46000000D02*
X98500000Y48500000D01*
X98500000Y48500000D02*
X98500000Y51000000D01*
X86950000Y52000000D02*
X97500000Y52000000D01*
X98500000Y51000000D02*
X97500000Y52000000D01*
X86725000Y51775000D02*
X86950000Y52000000D01*
X86725000Y45250000D02*
X86725000Y51775000D01*
%TO.N,inner_top*%
X102500000Y64460000D02*
X102500000Y66620000D01*
X86725000Y64250000D02*
X88975000Y66500000D01*
X94000000Y65000000D02*
X100880000Y65000000D01*
X100880000Y65000000D02*
X102500000Y66620000D01*
X88975000Y66500000D02*
X92500000Y66500000D01*
X92500000Y66500000D02*
X94000000Y65000000D01*
%TO.N,inner_mod*%
X102500000Y82025000D02*
X102500000Y82840000D01*
X86725000Y83250000D02*
X91393700Y78581300D01*
X99056300Y78581300D02*
X102500000Y82025000D01*
X91393700Y78581300D02*
X99056300Y78581300D01*
X102500000Y82840000D02*
X102500000Y85000000D01*
%TO.N,P113*%
X54500000Y16000000D02*
X63460000Y16000000D01*
X51798350Y10500000D02*
X54500000Y13201650D01*
X15821650Y-6120000D02*
X17000000Y-4941650D01*
X82000000Y5040000D02*
X82000000Y2880000D01*
X48500000Y9040000D02*
X48500000Y10500000D01*
X48500000Y10500000D02*
X51798350Y10500000D01*
X25380000Y-3000000D02*
X26500000Y-4120000D01*
X54500000Y13201650D02*
X54500000Y16000000D01*
X63460000Y16000000D02*
X65000000Y17540000D01*
X65000000Y17540000D02*
X65000000Y15380000D01*
X103000000Y4880000D02*
X103000000Y7040000D01*
X17000000Y-4941650D02*
X17000000Y-3000000D01*
X46000000Y4380000D02*
X46000000Y6540000D01*
X7500000Y-6120000D02*
X7500000Y-3960000D01*
X26500000Y-4120000D02*
X26500000Y-1960000D01*
X46000000Y6540000D02*
X48500000Y9040000D01*
X17000000Y-3000000D02*
X25380000Y-3000000D01*
X7500000Y-6120000D02*
X15821650Y-6120000D01*
%TO.N,P115*%
X82500000Y21880000D02*
X82500000Y24040000D01*
X7000000Y7880000D02*
X7000000Y10040000D01*
X26500000Y14880000D02*
X26500000Y17040000D01*
X64500000Y28880000D02*
X64500000Y31040000D01*
X101000000Y19040000D02*
X101000000Y21200000D01*
X46000000Y23380000D02*
X46000000Y25540000D01*
%TO.N,P002*%
X8000000Y32380000D02*
X8000000Y34540000D01*
X46000000Y42380000D02*
X46000000Y44540000D01*
X101000000Y38380000D02*
X101000000Y40540000D01*
X65000000Y53540000D02*
X65000000Y51380000D01*
X82000000Y43040000D02*
X82000000Y40880000D01*
X26500000Y35540000D02*
X26500000Y33380000D01*
%TO.N,P029*%
X6000000Y49040000D02*
X13040000Y49040000D01*
X92000000Y59000000D02*
X102500000Y59000000D01*
X84500000Y74610000D02*
X87270000Y77380000D01*
X84500000Y63000000D02*
X84500000Y74610000D01*
X6000000Y49040000D02*
X6000000Y46880000D01*
X82000000Y59880000D02*
X82000000Y62040000D01*
X65000000Y70880000D02*
X65000000Y73040000D01*
X13040000Y49040000D02*
X18040000Y54040000D01*
X84000000Y62500000D02*
X84500000Y63000000D01*
X18040000Y54040000D02*
X26500000Y54040000D01*
X91500000Y58500000D02*
X92000000Y59000000D01*
X82460000Y62500000D02*
X84000000Y62500000D01*
X46000000Y61380000D02*
X46000000Y63540000D01*
X82000000Y62040000D02*
X82460000Y62500000D01*
X82000000Y59880000D02*
X90120000Y59880000D01*
X102500000Y59000000D02*
X102500000Y61160000D01*
X26500000Y54040000D02*
X26500000Y51880000D01*
X90120000Y59880000D02*
X91500000Y58500000D01*
%TO.N,P031*%
X102500000Y77380000D02*
X102500000Y79540000D01*
X65000000Y87380000D02*
X65000000Y89540000D01*
X90500000Y75000000D02*
X89810000Y75690000D01*
X89810000Y75690000D02*
X89810000Y77380000D01*
X102500000Y77380000D02*
X100120000Y75000000D01*
X46000000Y82540000D02*
X46000000Y80380000D01*
X100120000Y75000000D02*
X90500000Y75000000D01*
X6500000Y66200000D02*
X6500000Y64040000D01*
X25000000Y65380000D02*
X25000000Y67540000D01*
X84000000Y81000000D02*
X84000000Y83160000D01*
%TD*%
M02*
