%TF.GenerationSoftware,KiCad,Pcbnew,9.0.8*%
%TF.CreationDate,2026-03-20T01:08:06-07:00*%
%TF.ProjectId,left,6c656674-2e6b-4696-9361-645f70636258,v1.0.0*%
%TF.SameCoordinates,Original*%
%TF.FileFunction,Legend,Bot*%
%TF.FilePolarity,Positive*%
%FSLAX46Y46*%
G04 Gerber Fmt 4.6, Leading zero omitted, Abs format (unit mm)*
G04 Created by KiCad (PCBNEW 9.0.8) date 2026-03-20 01:08:06*
%MOMM*%
%LPD*%
G01*
G04 APERTURE LIST*
%ADD10C,0.150000*%
%ADD11C,0.100000*%
%ADD12C,0.381000*%
%ADD13C,1.752600*%
G04 APERTURE END LIST*
D10*
X91950390Y91070523D02*
X91912295Y91146713D01*
X91912295Y91146713D02*
X91912295Y91260999D01*
X91912295Y91260999D02*
X91950390Y91375285D01*
X91950390Y91375285D02*
X92026580Y91451475D01*
X92026580Y91451475D02*
X92102771Y91489570D01*
X92102771Y91489570D02*
X92255152Y91527666D01*
X92255152Y91527666D02*
X92369438Y91527666D01*
X92369438Y91527666D02*
X92521819Y91489570D01*
X92521819Y91489570D02*
X92598009Y91451475D01*
X92598009Y91451475D02*
X92674200Y91375285D01*
X92674200Y91375285D02*
X92712295Y91260999D01*
X92712295Y91260999D02*
X92712295Y91184808D01*
X92712295Y91184808D02*
X92674200Y91070523D01*
X92674200Y91070523D02*
X92636104Y91032427D01*
X92636104Y91032427D02*
X92369438Y91032427D01*
X92369438Y91032427D02*
X92369438Y91184808D01*
X92712295Y90689570D02*
X91912295Y90689570D01*
X91912295Y90689570D02*
X92712295Y90232427D01*
X92712295Y90232427D02*
X91912295Y90232427D01*
X92712295Y89851475D02*
X91912295Y89851475D01*
X91912295Y89851475D02*
X91912295Y89660999D01*
X91912295Y89660999D02*
X91950390Y89546713D01*
X91950390Y89546713D02*
X92026580Y89470523D01*
X92026580Y89470523D02*
X92102771Y89432428D01*
X92102771Y89432428D02*
X92255152Y89394332D01*
X92255152Y89394332D02*
X92369438Y89394332D01*
X92369438Y89394332D02*
X92521819Y89432428D01*
X92521819Y89432428D02*
X92598009Y89470523D01*
X92598009Y89470523D02*
X92674200Y89546713D01*
X92674200Y89546713D02*
X92712295Y89660999D01*
X92712295Y89660999D02*
X92712295Y89851475D01*
X89362295Y91337189D02*
X89362295Y91260999D01*
X89362295Y91260999D02*
X89400390Y91184808D01*
X89400390Y91184808D02*
X89438485Y91146713D01*
X89438485Y91146713D02*
X89514676Y91108618D01*
X89514676Y91108618D02*
X89667057Y91070523D01*
X89667057Y91070523D02*
X89857533Y91070523D01*
X89857533Y91070523D02*
X90009914Y91108618D01*
X90009914Y91108618D02*
X90086104Y91146713D01*
X90086104Y91146713D02*
X90124200Y91184808D01*
X90124200Y91184808D02*
X90162295Y91260999D01*
X90162295Y91260999D02*
X90162295Y91337189D01*
X90162295Y91337189D02*
X90124200Y91413380D01*
X90124200Y91413380D02*
X90086104Y91451475D01*
X90086104Y91451475D02*
X90009914Y91489570D01*
X90009914Y91489570D02*
X89857533Y91527666D01*
X89857533Y91527666D02*
X89667057Y91527666D01*
X89667057Y91527666D02*
X89514676Y91489570D01*
X89514676Y91489570D02*
X89438485Y91451475D01*
X89438485Y91451475D02*
X89400390Y91413380D01*
X89400390Y91413380D02*
X89362295Y91337189D01*
X90162295Y90308618D02*
X90162295Y90765761D01*
X90162295Y90537189D02*
X89362295Y90537189D01*
X89362295Y90537189D02*
X89476580Y90613380D01*
X89476580Y90613380D02*
X89552771Y90689570D01*
X89552771Y90689570D02*
X89590866Y90765761D01*
X89362295Y90041951D02*
X89362295Y89508617D01*
X89362295Y89508617D02*
X90162295Y89851475D01*
X84292295Y80262808D02*
X84292295Y80186618D01*
X84292295Y80186618D02*
X84330390Y80110427D01*
X84330390Y80110427D02*
X84368485Y80072332D01*
X84368485Y80072332D02*
X84444676Y80034237D01*
X84444676Y80034237D02*
X84597057Y79996142D01*
X84597057Y79996142D02*
X84787533Y79996142D01*
X84787533Y79996142D02*
X84939914Y80034237D01*
X84939914Y80034237D02*
X85016104Y80072332D01*
X85016104Y80072332D02*
X85054200Y80110427D01*
X85054200Y80110427D02*
X85092295Y80186618D01*
X85092295Y80186618D02*
X85092295Y80262808D01*
X85092295Y80262808D02*
X85054200Y80338999D01*
X85054200Y80338999D02*
X85016104Y80377094D01*
X85016104Y80377094D02*
X84939914Y80415189D01*
X84939914Y80415189D02*
X84787533Y80453285D01*
X84787533Y80453285D02*
X84597057Y80453285D01*
X84597057Y80453285D02*
X84444676Y80415189D01*
X84444676Y80415189D02*
X84368485Y80377094D01*
X84368485Y80377094D02*
X84330390Y80338999D01*
X84330390Y80338999D02*
X84292295Y80262808D01*
X84292295Y79500903D02*
X84292295Y79424713D01*
X84292295Y79424713D02*
X84330390Y79348522D01*
X84330390Y79348522D02*
X84368485Y79310427D01*
X84368485Y79310427D02*
X84444676Y79272332D01*
X84444676Y79272332D02*
X84597057Y79234237D01*
X84597057Y79234237D02*
X84787533Y79234237D01*
X84787533Y79234237D02*
X84939914Y79272332D01*
X84939914Y79272332D02*
X85016104Y79310427D01*
X85016104Y79310427D02*
X85054200Y79348522D01*
X85054200Y79348522D02*
X85092295Y79424713D01*
X85092295Y79424713D02*
X85092295Y79500903D01*
X85092295Y79500903D02*
X85054200Y79577094D01*
X85054200Y79577094D02*
X85016104Y79615189D01*
X85016104Y79615189D02*
X84939914Y79653284D01*
X84939914Y79653284D02*
X84787533Y79691380D01*
X84787533Y79691380D02*
X84597057Y79691380D01*
X84597057Y79691380D02*
X84444676Y79653284D01*
X84444676Y79653284D02*
X84368485Y79615189D01*
X84368485Y79615189D02*
X84330390Y79577094D01*
X84330390Y79577094D02*
X84292295Y79500903D01*
X84368485Y78929475D02*
X84330390Y78891379D01*
X84330390Y78891379D02*
X84292295Y78815189D01*
X84292295Y78815189D02*
X84292295Y78624713D01*
X84292295Y78624713D02*
X84330390Y78548522D01*
X84330390Y78548522D02*
X84368485Y78510427D01*
X84368485Y78510427D02*
X84444676Y78472332D01*
X84444676Y78472332D02*
X84520866Y78472332D01*
X84520866Y78472332D02*
X84635152Y78510427D01*
X84635152Y78510427D02*
X85092295Y78967570D01*
X85092295Y78967570D02*
X85092295Y78472332D01*
X86832295Y80262808D02*
X86832295Y80186618D01*
X86832295Y80186618D02*
X86870390Y80110427D01*
X86870390Y80110427D02*
X86908485Y80072332D01*
X86908485Y80072332D02*
X86984676Y80034237D01*
X86984676Y80034237D02*
X87137057Y79996142D01*
X87137057Y79996142D02*
X87327533Y79996142D01*
X87327533Y79996142D02*
X87479914Y80034237D01*
X87479914Y80034237D02*
X87556104Y80072332D01*
X87556104Y80072332D02*
X87594200Y80110427D01*
X87594200Y80110427D02*
X87632295Y80186618D01*
X87632295Y80186618D02*
X87632295Y80262808D01*
X87632295Y80262808D02*
X87594200Y80338999D01*
X87594200Y80338999D02*
X87556104Y80377094D01*
X87556104Y80377094D02*
X87479914Y80415189D01*
X87479914Y80415189D02*
X87327533Y80453285D01*
X87327533Y80453285D02*
X87137057Y80453285D01*
X87137057Y80453285D02*
X86984676Y80415189D01*
X86984676Y80415189D02*
X86908485Y80377094D01*
X86908485Y80377094D02*
X86870390Y80338999D01*
X86870390Y80338999D02*
X86832295Y80262808D01*
X86908485Y79691380D02*
X86870390Y79653284D01*
X86870390Y79653284D02*
X86832295Y79577094D01*
X86832295Y79577094D02*
X86832295Y79386618D01*
X86832295Y79386618D02*
X86870390Y79310427D01*
X86870390Y79310427D02*
X86908485Y79272332D01*
X86908485Y79272332D02*
X86984676Y79234237D01*
X86984676Y79234237D02*
X87060866Y79234237D01*
X87060866Y79234237D02*
X87175152Y79272332D01*
X87175152Y79272332D02*
X87632295Y79729475D01*
X87632295Y79729475D02*
X87632295Y79234237D01*
X87632295Y78853284D02*
X87632295Y78700903D01*
X87632295Y78700903D02*
X87594200Y78624713D01*
X87594200Y78624713D02*
X87556104Y78586617D01*
X87556104Y78586617D02*
X87441819Y78510427D01*
X87441819Y78510427D02*
X87289438Y78472332D01*
X87289438Y78472332D02*
X86984676Y78472332D01*
X86984676Y78472332D02*
X86908485Y78510427D01*
X86908485Y78510427D02*
X86870390Y78548522D01*
X86870390Y78548522D02*
X86832295Y78624713D01*
X86832295Y78624713D02*
X86832295Y78777094D01*
X86832295Y78777094D02*
X86870390Y78853284D01*
X86870390Y78853284D02*
X86908485Y78891379D01*
X86908485Y78891379D02*
X86984676Y78929475D01*
X86984676Y78929475D02*
X87175152Y78929475D01*
X87175152Y78929475D02*
X87251342Y78891379D01*
X87251342Y78891379D02*
X87289438Y78853284D01*
X87289438Y78853284D02*
X87327533Y78777094D01*
X87327533Y78777094D02*
X87327533Y78624713D01*
X87327533Y78624713D02*
X87289438Y78548522D01*
X87289438Y78548522D02*
X87251342Y78510427D01*
X87251342Y78510427D02*
X87175152Y78472332D01*
X91912295Y80529475D02*
X92712295Y80262808D01*
X92712295Y80262808D02*
X91912295Y79996142D01*
X92636104Y79272332D02*
X92674200Y79310428D01*
X92674200Y79310428D02*
X92712295Y79424713D01*
X92712295Y79424713D02*
X92712295Y79500904D01*
X92712295Y79500904D02*
X92674200Y79615190D01*
X92674200Y79615190D02*
X92598009Y79691380D01*
X92598009Y79691380D02*
X92521819Y79729475D01*
X92521819Y79729475D02*
X92369438Y79767571D01*
X92369438Y79767571D02*
X92255152Y79767571D01*
X92255152Y79767571D02*
X92102771Y79729475D01*
X92102771Y79729475D02*
X92026580Y79691380D01*
X92026580Y79691380D02*
X91950390Y79615190D01*
X91950390Y79615190D02*
X91912295Y79500904D01*
X91912295Y79500904D02*
X91912295Y79424713D01*
X91912295Y79424713D02*
X91950390Y79310428D01*
X91950390Y79310428D02*
X91988485Y79272332D01*
X92636104Y78472332D02*
X92674200Y78510428D01*
X92674200Y78510428D02*
X92712295Y78624713D01*
X92712295Y78624713D02*
X92712295Y78700904D01*
X92712295Y78700904D02*
X92674200Y78815190D01*
X92674200Y78815190D02*
X92598009Y78891380D01*
X92598009Y78891380D02*
X92521819Y78929475D01*
X92521819Y78929475D02*
X92369438Y78967571D01*
X92369438Y78967571D02*
X92255152Y78967571D01*
X92255152Y78967571D02*
X92102771Y78929475D01*
X92102771Y78929475D02*
X92026580Y78891380D01*
X92026580Y78891380D02*
X91950390Y78815190D01*
X91950390Y78815190D02*
X91912295Y78700904D01*
X91912295Y78700904D02*
X91912295Y78624713D01*
X91912295Y78624713D02*
X91950390Y78510428D01*
X91950390Y78510428D02*
X91988485Y78472332D01*
X82552295Y79996142D02*
X82552295Y80453285D01*
X82552295Y80224713D02*
X81752295Y80224713D01*
X81752295Y80224713D02*
X81866580Y80300904D01*
X81866580Y80300904D02*
X81942771Y80377094D01*
X81942771Y80377094D02*
X81980866Y80453285D01*
X82552295Y79234237D02*
X82552295Y79691380D01*
X82552295Y79462808D02*
X81752295Y79462808D01*
X81752295Y79462808D02*
X81866580Y79538999D01*
X81866580Y79538999D02*
X81942771Y79615189D01*
X81942771Y79615189D02*
X81980866Y79691380D01*
X81752295Y78510427D02*
X81752295Y78891379D01*
X81752295Y78891379D02*
X82133247Y78929475D01*
X82133247Y78929475D02*
X82095152Y78891379D01*
X82095152Y78891379D02*
X82057057Y78815189D01*
X82057057Y78815189D02*
X82057057Y78624713D01*
X82057057Y78624713D02*
X82095152Y78548522D01*
X82095152Y78548522D02*
X82133247Y78510427D01*
X82133247Y78510427D02*
X82209438Y78472332D01*
X82209438Y78472332D02*
X82399914Y78472332D01*
X82399914Y78472332D02*
X82476104Y78510427D01*
X82476104Y78510427D02*
X82514200Y78548522D01*
X82514200Y78548522D02*
X82552295Y78624713D01*
X82552295Y78624713D02*
X82552295Y78815189D01*
X82552295Y78815189D02*
X82514200Y78891379D01*
X82514200Y78891379D02*
X82476104Y78929475D01*
X99532295Y91337189D02*
X99532295Y91260999D01*
X99532295Y91260999D02*
X99570390Y91184808D01*
X99570390Y91184808D02*
X99608485Y91146713D01*
X99608485Y91146713D02*
X99684676Y91108618D01*
X99684676Y91108618D02*
X99837057Y91070523D01*
X99837057Y91070523D02*
X100027533Y91070523D01*
X100027533Y91070523D02*
X100179914Y91108618D01*
X100179914Y91108618D02*
X100256104Y91146713D01*
X100256104Y91146713D02*
X100294200Y91184808D01*
X100294200Y91184808D02*
X100332295Y91260999D01*
X100332295Y91260999D02*
X100332295Y91337189D01*
X100332295Y91337189D02*
X100294200Y91413380D01*
X100294200Y91413380D02*
X100256104Y91451475D01*
X100256104Y91451475D02*
X100179914Y91489570D01*
X100179914Y91489570D02*
X100027533Y91527666D01*
X100027533Y91527666D02*
X99837057Y91527666D01*
X99837057Y91527666D02*
X99684676Y91489570D01*
X99684676Y91489570D02*
X99608485Y91451475D01*
X99608485Y91451475D02*
X99570390Y91413380D01*
X99570390Y91413380D02*
X99532295Y91337189D01*
X99532295Y90575284D02*
X99532295Y90499094D01*
X99532295Y90499094D02*
X99570390Y90422903D01*
X99570390Y90422903D02*
X99608485Y90384808D01*
X99608485Y90384808D02*
X99684676Y90346713D01*
X99684676Y90346713D02*
X99837057Y90308618D01*
X99837057Y90308618D02*
X100027533Y90308618D01*
X100027533Y90308618D02*
X100179914Y90346713D01*
X100179914Y90346713D02*
X100256104Y90384808D01*
X100256104Y90384808D02*
X100294200Y90422903D01*
X100294200Y90422903D02*
X100332295Y90499094D01*
X100332295Y90499094D02*
X100332295Y90575284D01*
X100332295Y90575284D02*
X100294200Y90651475D01*
X100294200Y90651475D02*
X100256104Y90689570D01*
X100256104Y90689570D02*
X100179914Y90727665D01*
X100179914Y90727665D02*
X100027533Y90765761D01*
X100027533Y90765761D02*
X99837057Y90765761D01*
X99837057Y90765761D02*
X99684676Y90727665D01*
X99684676Y90727665D02*
X99608485Y90689570D01*
X99608485Y90689570D02*
X99570390Y90651475D01*
X99570390Y90651475D02*
X99532295Y90575284D01*
X99532295Y89622903D02*
X99532295Y89775284D01*
X99532295Y89775284D02*
X99570390Y89851475D01*
X99570390Y89851475D02*
X99608485Y89889570D01*
X99608485Y89889570D02*
X99722771Y89965760D01*
X99722771Y89965760D02*
X99875152Y90003856D01*
X99875152Y90003856D02*
X100179914Y90003856D01*
X100179914Y90003856D02*
X100256104Y89965760D01*
X100256104Y89965760D02*
X100294200Y89927665D01*
X100294200Y89927665D02*
X100332295Y89851475D01*
X100332295Y89851475D02*
X100332295Y89699094D01*
X100332295Y89699094D02*
X100294200Y89622903D01*
X100294200Y89622903D02*
X100256104Y89584808D01*
X100256104Y89584808D02*
X100179914Y89546713D01*
X100179914Y89546713D02*
X99989438Y89546713D01*
X99989438Y89546713D02*
X99913247Y89584808D01*
X99913247Y89584808D02*
X99875152Y89622903D01*
X99875152Y89622903D02*
X99837057Y89699094D01*
X99837057Y89699094D02*
X99837057Y89851475D01*
X99837057Y89851475D02*
X99875152Y89927665D01*
X99875152Y89927665D02*
X99913247Y89965760D01*
X99913247Y89965760D02*
X99989438Y90003856D01*
X97030390Y80154856D02*
X96992295Y80231046D01*
X96992295Y80231046D02*
X96992295Y80345332D01*
X96992295Y80345332D02*
X97030390Y80459618D01*
X97030390Y80459618D02*
X97106580Y80535808D01*
X97106580Y80535808D02*
X97182771Y80573903D01*
X97182771Y80573903D02*
X97335152Y80611999D01*
X97335152Y80611999D02*
X97449438Y80611999D01*
X97449438Y80611999D02*
X97601819Y80573903D01*
X97601819Y80573903D02*
X97678009Y80535808D01*
X97678009Y80535808D02*
X97754200Y80459618D01*
X97754200Y80459618D02*
X97792295Y80345332D01*
X97792295Y80345332D02*
X97792295Y80269141D01*
X97792295Y80269141D02*
X97754200Y80154856D01*
X97754200Y80154856D02*
X97716104Y80116760D01*
X97716104Y80116760D02*
X97449438Y80116760D01*
X97449438Y80116760D02*
X97449438Y80269141D01*
X97792295Y79773903D02*
X96992295Y79773903D01*
X96992295Y79773903D02*
X97792295Y79316760D01*
X97792295Y79316760D02*
X96992295Y79316760D01*
X97792295Y78935808D02*
X96992295Y78935808D01*
X96992295Y78935808D02*
X96992295Y78745332D01*
X96992295Y78745332D02*
X97030390Y78631046D01*
X97030390Y78631046D02*
X97106580Y78554856D01*
X97106580Y78554856D02*
X97182771Y78516761D01*
X97182771Y78516761D02*
X97335152Y78478665D01*
X97335152Y78478665D02*
X97449438Y78478665D01*
X97449438Y78478665D02*
X97601819Y78516761D01*
X97601819Y78516761D02*
X97678009Y78554856D01*
X97678009Y78554856D02*
X97754200Y78631046D01*
X97754200Y78631046D02*
X97792295Y78745332D01*
X97792295Y78745332D02*
X97792295Y78935808D01*
X94490390Y91070523D02*
X94452295Y91146713D01*
X94452295Y91146713D02*
X94452295Y91260999D01*
X94452295Y91260999D02*
X94490390Y91375285D01*
X94490390Y91375285D02*
X94566580Y91451475D01*
X94566580Y91451475D02*
X94642771Y91489570D01*
X94642771Y91489570D02*
X94795152Y91527666D01*
X94795152Y91527666D02*
X94909438Y91527666D01*
X94909438Y91527666D02*
X95061819Y91489570D01*
X95061819Y91489570D02*
X95138009Y91451475D01*
X95138009Y91451475D02*
X95214200Y91375285D01*
X95214200Y91375285D02*
X95252295Y91260999D01*
X95252295Y91260999D02*
X95252295Y91184808D01*
X95252295Y91184808D02*
X95214200Y91070523D01*
X95214200Y91070523D02*
X95176104Y91032427D01*
X95176104Y91032427D02*
X94909438Y91032427D01*
X94909438Y91032427D02*
X94909438Y91184808D01*
X95252295Y90689570D02*
X94452295Y90689570D01*
X94452295Y90689570D02*
X95252295Y90232427D01*
X95252295Y90232427D02*
X94452295Y90232427D01*
X95252295Y89851475D02*
X94452295Y89851475D01*
X94452295Y89851475D02*
X94452295Y89660999D01*
X94452295Y89660999D02*
X94490390Y89546713D01*
X94490390Y89546713D02*
X94566580Y89470523D01*
X94566580Y89470523D02*
X94642771Y89432428D01*
X94642771Y89432428D02*
X94795152Y89394332D01*
X94795152Y89394332D02*
X94909438Y89394332D01*
X94909438Y89394332D02*
X95061819Y89432428D01*
X95061819Y89432428D02*
X95138009Y89470523D01*
X95138009Y89470523D02*
X95214200Y89546713D01*
X95214200Y89546713D02*
X95252295Y89660999D01*
X95252295Y89660999D02*
X95252295Y89851475D01*
X95252295Y79850094D02*
X94871342Y80116761D01*
X95252295Y80307237D02*
X94452295Y80307237D01*
X94452295Y80307237D02*
X94452295Y80002475D01*
X94452295Y80002475D02*
X94490390Y79926285D01*
X94490390Y79926285D02*
X94528485Y79888190D01*
X94528485Y79888190D02*
X94604676Y79850094D01*
X94604676Y79850094D02*
X94718961Y79850094D01*
X94718961Y79850094D02*
X94795152Y79888190D01*
X94795152Y79888190D02*
X94833247Y79926285D01*
X94833247Y79926285D02*
X94871342Y80002475D01*
X94871342Y80002475D02*
X94871342Y80307237D01*
X95214200Y79545333D02*
X95252295Y79431047D01*
X95252295Y79431047D02*
X95252295Y79240571D01*
X95252295Y79240571D02*
X95214200Y79164380D01*
X95214200Y79164380D02*
X95176104Y79126285D01*
X95176104Y79126285D02*
X95099914Y79088190D01*
X95099914Y79088190D02*
X95023723Y79088190D01*
X95023723Y79088190D02*
X94947533Y79126285D01*
X94947533Y79126285D02*
X94909438Y79164380D01*
X94909438Y79164380D02*
X94871342Y79240571D01*
X94871342Y79240571D02*
X94833247Y79392952D01*
X94833247Y79392952D02*
X94795152Y79469142D01*
X94795152Y79469142D02*
X94757057Y79507237D01*
X94757057Y79507237D02*
X94680866Y79545333D01*
X94680866Y79545333D02*
X94604676Y79545333D01*
X94604676Y79545333D02*
X94528485Y79507237D01*
X94528485Y79507237D02*
X94490390Y79469142D01*
X94490390Y79469142D02*
X94452295Y79392952D01*
X94452295Y79392952D02*
X94452295Y79202475D01*
X94452295Y79202475D02*
X94490390Y79088190D01*
X94452295Y78859618D02*
X94452295Y78402475D01*
X95252295Y78631047D02*
X94452295Y78631047D01*
X80012295Y79996142D02*
X80012295Y80453285D01*
X80012295Y80224713D02*
X79212295Y80224713D01*
X79212295Y80224713D02*
X79326580Y80300904D01*
X79326580Y80300904D02*
X79402771Y80377094D01*
X79402771Y80377094D02*
X79440866Y80453285D01*
X80012295Y79234237D02*
X80012295Y79691380D01*
X80012295Y79462808D02*
X79212295Y79462808D01*
X79212295Y79462808D02*
X79326580Y79538999D01*
X79326580Y79538999D02*
X79402771Y79615189D01*
X79402771Y79615189D02*
X79440866Y79691380D01*
X79212295Y78967570D02*
X79212295Y78472332D01*
X79212295Y78472332D02*
X79517057Y78738998D01*
X79517057Y78738998D02*
X79517057Y78624713D01*
X79517057Y78624713D02*
X79555152Y78548522D01*
X79555152Y78548522D02*
X79593247Y78510427D01*
X79593247Y78510427D02*
X79669438Y78472332D01*
X79669438Y78472332D02*
X79859914Y78472332D01*
X79859914Y78472332D02*
X79936104Y78510427D01*
X79936104Y78510427D02*
X79974200Y78548522D01*
X79974200Y78548522D02*
X80012295Y78624713D01*
X80012295Y78624713D02*
X80012295Y78853284D01*
X80012295Y78853284D02*
X79974200Y78929475D01*
X79974200Y78929475D02*
X79936104Y78967570D01*
X97062295Y91337189D02*
X97062295Y91260999D01*
X97062295Y91260999D02*
X97100390Y91184808D01*
X97100390Y91184808D02*
X97138485Y91146713D01*
X97138485Y91146713D02*
X97214676Y91108618D01*
X97214676Y91108618D02*
X97367057Y91070523D01*
X97367057Y91070523D02*
X97557533Y91070523D01*
X97557533Y91070523D02*
X97709914Y91108618D01*
X97709914Y91108618D02*
X97786104Y91146713D01*
X97786104Y91146713D02*
X97824200Y91184808D01*
X97824200Y91184808D02*
X97862295Y91260999D01*
X97862295Y91260999D02*
X97862295Y91337189D01*
X97862295Y91337189D02*
X97824200Y91413380D01*
X97824200Y91413380D02*
X97786104Y91451475D01*
X97786104Y91451475D02*
X97709914Y91489570D01*
X97709914Y91489570D02*
X97557533Y91527666D01*
X97557533Y91527666D02*
X97367057Y91527666D01*
X97367057Y91527666D02*
X97214676Y91489570D01*
X97214676Y91489570D02*
X97138485Y91451475D01*
X97138485Y91451475D02*
X97100390Y91413380D01*
X97100390Y91413380D02*
X97062295Y91337189D01*
X97062295Y90575284D02*
X97062295Y90499094D01*
X97062295Y90499094D02*
X97100390Y90422903D01*
X97100390Y90422903D02*
X97138485Y90384808D01*
X97138485Y90384808D02*
X97214676Y90346713D01*
X97214676Y90346713D02*
X97367057Y90308618D01*
X97367057Y90308618D02*
X97557533Y90308618D01*
X97557533Y90308618D02*
X97709914Y90346713D01*
X97709914Y90346713D02*
X97786104Y90384808D01*
X97786104Y90384808D02*
X97824200Y90422903D01*
X97824200Y90422903D02*
X97862295Y90499094D01*
X97862295Y90499094D02*
X97862295Y90575284D01*
X97862295Y90575284D02*
X97824200Y90651475D01*
X97824200Y90651475D02*
X97786104Y90689570D01*
X97786104Y90689570D02*
X97709914Y90727665D01*
X97709914Y90727665D02*
X97557533Y90765761D01*
X97557533Y90765761D02*
X97367057Y90765761D01*
X97367057Y90765761D02*
X97214676Y90727665D01*
X97214676Y90727665D02*
X97138485Y90689570D01*
X97138485Y90689570D02*
X97100390Y90651475D01*
X97100390Y90651475D02*
X97062295Y90575284D01*
X97405152Y89851475D02*
X97367057Y89927665D01*
X97367057Y89927665D02*
X97328961Y89965760D01*
X97328961Y89965760D02*
X97252771Y90003856D01*
X97252771Y90003856D02*
X97214676Y90003856D01*
X97214676Y90003856D02*
X97138485Y89965760D01*
X97138485Y89965760D02*
X97100390Y89927665D01*
X97100390Y89927665D02*
X97062295Y89851475D01*
X97062295Y89851475D02*
X97062295Y89699094D01*
X97062295Y89699094D02*
X97100390Y89622903D01*
X97100390Y89622903D02*
X97138485Y89584808D01*
X97138485Y89584808D02*
X97214676Y89546713D01*
X97214676Y89546713D02*
X97252771Y89546713D01*
X97252771Y89546713D02*
X97328961Y89584808D01*
X97328961Y89584808D02*
X97367057Y89622903D01*
X97367057Y89622903D02*
X97405152Y89699094D01*
X97405152Y89699094D02*
X97405152Y89851475D01*
X97405152Y89851475D02*
X97443247Y89927665D01*
X97443247Y89927665D02*
X97481342Y89965760D01*
X97481342Y89965760D02*
X97557533Y90003856D01*
X97557533Y90003856D02*
X97709914Y90003856D01*
X97709914Y90003856D02*
X97786104Y89965760D01*
X97786104Y89965760D02*
X97824200Y89927665D01*
X97824200Y89927665D02*
X97862295Y89851475D01*
X97862295Y89851475D02*
X97862295Y89699094D01*
X97862295Y89699094D02*
X97824200Y89622903D01*
X97824200Y89622903D02*
X97786104Y89584808D01*
X97786104Y89584808D02*
X97709914Y89546713D01*
X97709914Y89546713D02*
X97557533Y89546713D01*
X97557533Y89546713D02*
X97481342Y89584808D01*
X97481342Y89584808D02*
X97443247Y89622903D01*
X97443247Y89622903D02*
X97405152Y89699094D01*
X80012295Y91070523D02*
X80012295Y91527666D01*
X80012295Y91299094D02*
X79212295Y91299094D01*
X79212295Y91299094D02*
X79326580Y91375285D01*
X79326580Y91375285D02*
X79402771Y91451475D01*
X79402771Y91451475D02*
X79440866Y91527666D01*
X79212295Y90575284D02*
X79212295Y90499094D01*
X79212295Y90499094D02*
X79250390Y90422903D01*
X79250390Y90422903D02*
X79288485Y90384808D01*
X79288485Y90384808D02*
X79364676Y90346713D01*
X79364676Y90346713D02*
X79517057Y90308618D01*
X79517057Y90308618D02*
X79707533Y90308618D01*
X79707533Y90308618D02*
X79859914Y90346713D01*
X79859914Y90346713D02*
X79936104Y90384808D01*
X79936104Y90384808D02*
X79974200Y90422903D01*
X79974200Y90422903D02*
X80012295Y90499094D01*
X80012295Y90499094D02*
X80012295Y90575284D01*
X80012295Y90575284D02*
X79974200Y90651475D01*
X79974200Y90651475D02*
X79936104Y90689570D01*
X79936104Y90689570D02*
X79859914Y90727665D01*
X79859914Y90727665D02*
X79707533Y90765761D01*
X79707533Y90765761D02*
X79517057Y90765761D01*
X79517057Y90765761D02*
X79364676Y90727665D01*
X79364676Y90727665D02*
X79288485Y90689570D01*
X79288485Y90689570D02*
X79250390Y90651475D01*
X79250390Y90651475D02*
X79212295Y90575284D01*
X79212295Y89813379D02*
X79212295Y89737189D01*
X79212295Y89737189D02*
X79250390Y89660998D01*
X79250390Y89660998D02*
X79288485Y89622903D01*
X79288485Y89622903D02*
X79364676Y89584808D01*
X79364676Y89584808D02*
X79517057Y89546713D01*
X79517057Y89546713D02*
X79707533Y89546713D01*
X79707533Y89546713D02*
X79859914Y89584808D01*
X79859914Y89584808D02*
X79936104Y89622903D01*
X79936104Y89622903D02*
X79974200Y89660998D01*
X79974200Y89660998D02*
X80012295Y89737189D01*
X80012295Y89737189D02*
X80012295Y89813379D01*
X80012295Y89813379D02*
X79974200Y89889570D01*
X79974200Y89889570D02*
X79936104Y89927665D01*
X79936104Y89927665D02*
X79859914Y89965760D01*
X79859914Y89965760D02*
X79707533Y90003856D01*
X79707533Y90003856D02*
X79517057Y90003856D01*
X79517057Y90003856D02*
X79364676Y89965760D01*
X79364676Y89965760D02*
X79288485Y89927665D01*
X79288485Y89927665D02*
X79250390Y89889570D01*
X79250390Y89889570D02*
X79212295Y89813379D01*
X100332295Y80078665D02*
X99951342Y80345332D01*
X100332295Y80535808D02*
X99532295Y80535808D01*
X99532295Y80535808D02*
X99532295Y80231046D01*
X99532295Y80231046D02*
X99570390Y80154856D01*
X99570390Y80154856D02*
X99608485Y80116761D01*
X99608485Y80116761D02*
X99684676Y80078665D01*
X99684676Y80078665D02*
X99798961Y80078665D01*
X99798961Y80078665D02*
X99875152Y80116761D01*
X99875152Y80116761D02*
X99913247Y80154856D01*
X99913247Y80154856D02*
X99951342Y80231046D01*
X99951342Y80231046D02*
X99951342Y80535808D01*
X100103723Y79773904D02*
X100103723Y79392951D01*
X100332295Y79850094D02*
X99532295Y79583427D01*
X99532295Y79583427D02*
X100332295Y79316761D01*
X99532295Y79126285D02*
X100332295Y78935809D01*
X100332295Y78935809D02*
X99760866Y78783428D01*
X99760866Y78783428D02*
X100332295Y78631047D01*
X100332295Y78631047D02*
X99532295Y78440571D01*
X84262295Y91337189D02*
X84262295Y91260999D01*
X84262295Y91260999D02*
X84300390Y91184808D01*
X84300390Y91184808D02*
X84338485Y91146713D01*
X84338485Y91146713D02*
X84414676Y91108618D01*
X84414676Y91108618D02*
X84567057Y91070523D01*
X84567057Y91070523D02*
X84757533Y91070523D01*
X84757533Y91070523D02*
X84909914Y91108618D01*
X84909914Y91108618D02*
X84986104Y91146713D01*
X84986104Y91146713D02*
X85024200Y91184808D01*
X85024200Y91184808D02*
X85062295Y91260999D01*
X85062295Y91260999D02*
X85062295Y91337189D01*
X85062295Y91337189D02*
X85024200Y91413380D01*
X85024200Y91413380D02*
X84986104Y91451475D01*
X84986104Y91451475D02*
X84909914Y91489570D01*
X84909914Y91489570D02*
X84757533Y91527666D01*
X84757533Y91527666D02*
X84567057Y91527666D01*
X84567057Y91527666D02*
X84414676Y91489570D01*
X84414676Y91489570D02*
X84338485Y91451475D01*
X84338485Y91451475D02*
X84300390Y91413380D01*
X84300390Y91413380D02*
X84262295Y91337189D01*
X84338485Y90765761D02*
X84300390Y90727665D01*
X84300390Y90727665D02*
X84262295Y90651475D01*
X84262295Y90651475D02*
X84262295Y90460999D01*
X84262295Y90460999D02*
X84300390Y90384808D01*
X84300390Y90384808D02*
X84338485Y90346713D01*
X84338485Y90346713D02*
X84414676Y90308618D01*
X84414676Y90308618D02*
X84490866Y90308618D01*
X84490866Y90308618D02*
X84605152Y90346713D01*
X84605152Y90346713D02*
X85062295Y90803856D01*
X85062295Y90803856D02*
X85062295Y90308618D01*
X84338485Y90003856D02*
X84300390Y89965760D01*
X84300390Y89965760D02*
X84262295Y89889570D01*
X84262295Y89889570D02*
X84262295Y89699094D01*
X84262295Y89699094D02*
X84300390Y89622903D01*
X84300390Y89622903D02*
X84338485Y89584808D01*
X84338485Y89584808D02*
X84414676Y89546713D01*
X84414676Y89546713D02*
X84490866Y89546713D01*
X84490866Y89546713D02*
X84605152Y89584808D01*
X84605152Y89584808D02*
X85062295Y90041951D01*
X85062295Y90041951D02*
X85062295Y89546713D01*
X77472295Y79996142D02*
X77472295Y80453285D01*
X77472295Y80224713D02*
X76672295Y80224713D01*
X76672295Y80224713D02*
X76786580Y80300904D01*
X76786580Y80300904D02*
X76862771Y80377094D01*
X76862771Y80377094D02*
X76900866Y80453285D01*
X77472295Y79234237D02*
X77472295Y79691380D01*
X77472295Y79462808D02*
X76672295Y79462808D01*
X76672295Y79462808D02*
X76786580Y79538999D01*
X76786580Y79538999D02*
X76862771Y79615189D01*
X76862771Y79615189D02*
X76900866Y79691380D01*
X77472295Y78472332D02*
X77472295Y78929475D01*
X77472295Y78700903D02*
X76672295Y78700903D01*
X76672295Y78700903D02*
X76786580Y78777094D01*
X76786580Y78777094D02*
X76862771Y78853284D01*
X76862771Y78853284D02*
X76900866Y78929475D01*
X74132295Y80262808D02*
X74132295Y80186618D01*
X74132295Y80186618D02*
X74170390Y80110427D01*
X74170390Y80110427D02*
X74208485Y80072332D01*
X74208485Y80072332D02*
X74284676Y80034237D01*
X74284676Y80034237D02*
X74437057Y79996142D01*
X74437057Y79996142D02*
X74627533Y79996142D01*
X74627533Y79996142D02*
X74779914Y80034237D01*
X74779914Y80034237D02*
X74856104Y80072332D01*
X74856104Y80072332D02*
X74894200Y80110427D01*
X74894200Y80110427D02*
X74932295Y80186618D01*
X74932295Y80186618D02*
X74932295Y80262808D01*
X74932295Y80262808D02*
X74894200Y80338999D01*
X74894200Y80338999D02*
X74856104Y80377094D01*
X74856104Y80377094D02*
X74779914Y80415189D01*
X74779914Y80415189D02*
X74627533Y80453285D01*
X74627533Y80453285D02*
X74437057Y80453285D01*
X74437057Y80453285D02*
X74284676Y80415189D01*
X74284676Y80415189D02*
X74208485Y80377094D01*
X74208485Y80377094D02*
X74170390Y80338999D01*
X74170390Y80338999D02*
X74132295Y80262808D01*
X74932295Y79234237D02*
X74932295Y79691380D01*
X74932295Y79462808D02*
X74132295Y79462808D01*
X74132295Y79462808D02*
X74246580Y79538999D01*
X74246580Y79538999D02*
X74322771Y79615189D01*
X74322771Y79615189D02*
X74360866Y79691380D01*
X74132295Y78738998D02*
X74132295Y78662808D01*
X74132295Y78662808D02*
X74170390Y78586617D01*
X74170390Y78586617D02*
X74208485Y78548522D01*
X74208485Y78548522D02*
X74284676Y78510427D01*
X74284676Y78510427D02*
X74437057Y78472332D01*
X74437057Y78472332D02*
X74627533Y78472332D01*
X74627533Y78472332D02*
X74779914Y78510427D01*
X74779914Y78510427D02*
X74856104Y78548522D01*
X74856104Y78548522D02*
X74894200Y78586617D01*
X74894200Y78586617D02*
X74932295Y78662808D01*
X74932295Y78662808D02*
X74932295Y78738998D01*
X74932295Y78738998D02*
X74894200Y78815189D01*
X74894200Y78815189D02*
X74856104Y78853284D01*
X74856104Y78853284D02*
X74779914Y78891379D01*
X74779914Y78891379D02*
X74627533Y78929475D01*
X74627533Y78929475D02*
X74437057Y78929475D01*
X74437057Y78929475D02*
X74284676Y78891379D01*
X74284676Y78891379D02*
X74208485Y78853284D01*
X74208485Y78853284D02*
X74170390Y78815189D01*
X74170390Y78815189D02*
X74132295Y78738998D01*
X86762295Y91337189D02*
X86762295Y91260999D01*
X86762295Y91260999D02*
X86800390Y91184808D01*
X86800390Y91184808D02*
X86838485Y91146713D01*
X86838485Y91146713D02*
X86914676Y91108618D01*
X86914676Y91108618D02*
X87067057Y91070523D01*
X87067057Y91070523D02*
X87257533Y91070523D01*
X87257533Y91070523D02*
X87409914Y91108618D01*
X87409914Y91108618D02*
X87486104Y91146713D01*
X87486104Y91146713D02*
X87524200Y91184808D01*
X87524200Y91184808D02*
X87562295Y91260999D01*
X87562295Y91260999D02*
X87562295Y91337189D01*
X87562295Y91337189D02*
X87524200Y91413380D01*
X87524200Y91413380D02*
X87486104Y91451475D01*
X87486104Y91451475D02*
X87409914Y91489570D01*
X87409914Y91489570D02*
X87257533Y91527666D01*
X87257533Y91527666D02*
X87067057Y91527666D01*
X87067057Y91527666D02*
X86914676Y91489570D01*
X86914676Y91489570D02*
X86838485Y91451475D01*
X86838485Y91451475D02*
X86800390Y91413380D01*
X86800390Y91413380D02*
X86762295Y91337189D01*
X86838485Y90765761D02*
X86800390Y90727665D01*
X86800390Y90727665D02*
X86762295Y90651475D01*
X86762295Y90651475D02*
X86762295Y90460999D01*
X86762295Y90460999D02*
X86800390Y90384808D01*
X86800390Y90384808D02*
X86838485Y90346713D01*
X86838485Y90346713D02*
X86914676Y90308618D01*
X86914676Y90308618D02*
X86990866Y90308618D01*
X86990866Y90308618D02*
X87105152Y90346713D01*
X87105152Y90346713D02*
X87562295Y90803856D01*
X87562295Y90803856D02*
X87562295Y90308618D01*
X86762295Y89813379D02*
X86762295Y89737189D01*
X86762295Y89737189D02*
X86800390Y89660998D01*
X86800390Y89660998D02*
X86838485Y89622903D01*
X86838485Y89622903D02*
X86914676Y89584808D01*
X86914676Y89584808D02*
X87067057Y89546713D01*
X87067057Y89546713D02*
X87257533Y89546713D01*
X87257533Y89546713D02*
X87409914Y89584808D01*
X87409914Y89584808D02*
X87486104Y89622903D01*
X87486104Y89622903D02*
X87524200Y89660998D01*
X87524200Y89660998D02*
X87562295Y89737189D01*
X87562295Y89737189D02*
X87562295Y89813379D01*
X87562295Y89813379D02*
X87524200Y89889570D01*
X87524200Y89889570D02*
X87486104Y89927665D01*
X87486104Y89927665D02*
X87409914Y89965760D01*
X87409914Y89965760D02*
X87257533Y90003856D01*
X87257533Y90003856D02*
X87067057Y90003856D01*
X87067057Y90003856D02*
X86914676Y89965760D01*
X86914676Y89965760D02*
X86838485Y89927665D01*
X86838485Y89927665D02*
X86800390Y89889570D01*
X86800390Y89889570D02*
X86762295Y89813379D01*
X74932295Y91070523D02*
X74932295Y91527666D01*
X74932295Y91299094D02*
X74132295Y91299094D01*
X74132295Y91299094D02*
X74246580Y91375285D01*
X74246580Y91375285D02*
X74322771Y91451475D01*
X74322771Y91451475D02*
X74360866Y91527666D01*
X74132295Y90575284D02*
X74132295Y90499094D01*
X74132295Y90499094D02*
X74170390Y90422903D01*
X74170390Y90422903D02*
X74208485Y90384808D01*
X74208485Y90384808D02*
X74284676Y90346713D01*
X74284676Y90346713D02*
X74437057Y90308618D01*
X74437057Y90308618D02*
X74627533Y90308618D01*
X74627533Y90308618D02*
X74779914Y90346713D01*
X74779914Y90346713D02*
X74856104Y90384808D01*
X74856104Y90384808D02*
X74894200Y90422903D01*
X74894200Y90422903D02*
X74932295Y90499094D01*
X74932295Y90499094D02*
X74932295Y90575284D01*
X74932295Y90575284D02*
X74894200Y90651475D01*
X74894200Y90651475D02*
X74856104Y90689570D01*
X74856104Y90689570D02*
X74779914Y90727665D01*
X74779914Y90727665D02*
X74627533Y90765761D01*
X74627533Y90765761D02*
X74437057Y90765761D01*
X74437057Y90765761D02*
X74284676Y90727665D01*
X74284676Y90727665D02*
X74208485Y90689570D01*
X74208485Y90689570D02*
X74170390Y90651475D01*
X74170390Y90651475D02*
X74132295Y90575284D01*
X74398961Y89622903D02*
X74932295Y89622903D01*
X74094200Y89813379D02*
X74665628Y90003856D01*
X74665628Y90003856D02*
X74665628Y89508617D01*
X81752295Y91337189D02*
X81752295Y91260999D01*
X81752295Y91260999D02*
X81790390Y91184808D01*
X81790390Y91184808D02*
X81828485Y91146713D01*
X81828485Y91146713D02*
X81904676Y91108618D01*
X81904676Y91108618D02*
X82057057Y91070523D01*
X82057057Y91070523D02*
X82247533Y91070523D01*
X82247533Y91070523D02*
X82399914Y91108618D01*
X82399914Y91108618D02*
X82476104Y91146713D01*
X82476104Y91146713D02*
X82514200Y91184808D01*
X82514200Y91184808D02*
X82552295Y91260999D01*
X82552295Y91260999D02*
X82552295Y91337189D01*
X82552295Y91337189D02*
X82514200Y91413380D01*
X82514200Y91413380D02*
X82476104Y91451475D01*
X82476104Y91451475D02*
X82399914Y91489570D01*
X82399914Y91489570D02*
X82247533Y91527666D01*
X82247533Y91527666D02*
X82057057Y91527666D01*
X82057057Y91527666D02*
X81904676Y91489570D01*
X81904676Y91489570D02*
X81828485Y91451475D01*
X81828485Y91451475D02*
X81790390Y91413380D01*
X81790390Y91413380D02*
X81752295Y91337189D01*
X81828485Y90765761D02*
X81790390Y90727665D01*
X81790390Y90727665D02*
X81752295Y90651475D01*
X81752295Y90651475D02*
X81752295Y90460999D01*
X81752295Y90460999D02*
X81790390Y90384808D01*
X81790390Y90384808D02*
X81828485Y90346713D01*
X81828485Y90346713D02*
X81904676Y90308618D01*
X81904676Y90308618D02*
X81980866Y90308618D01*
X81980866Y90308618D02*
X82095152Y90346713D01*
X82095152Y90346713D02*
X82552295Y90803856D01*
X82552295Y90803856D02*
X82552295Y90308618D01*
X82018961Y89622903D02*
X82552295Y89622903D01*
X81714200Y89813379D02*
X82285628Y90003856D01*
X82285628Y90003856D02*
X82285628Y89508617D01*
X89372295Y80262808D02*
X89372295Y80186618D01*
X89372295Y80186618D02*
X89410390Y80110427D01*
X89410390Y80110427D02*
X89448485Y80072332D01*
X89448485Y80072332D02*
X89524676Y80034237D01*
X89524676Y80034237D02*
X89677057Y79996142D01*
X89677057Y79996142D02*
X89867533Y79996142D01*
X89867533Y79996142D02*
X90019914Y80034237D01*
X90019914Y80034237D02*
X90096104Y80072332D01*
X90096104Y80072332D02*
X90134200Y80110427D01*
X90134200Y80110427D02*
X90172295Y80186618D01*
X90172295Y80186618D02*
X90172295Y80262808D01*
X90172295Y80262808D02*
X90134200Y80338999D01*
X90134200Y80338999D02*
X90096104Y80377094D01*
X90096104Y80377094D02*
X90019914Y80415189D01*
X90019914Y80415189D02*
X89867533Y80453285D01*
X89867533Y80453285D02*
X89677057Y80453285D01*
X89677057Y80453285D02*
X89524676Y80415189D01*
X89524676Y80415189D02*
X89448485Y80377094D01*
X89448485Y80377094D02*
X89410390Y80338999D01*
X89410390Y80338999D02*
X89372295Y80262808D01*
X89372295Y79729475D02*
X89372295Y79234237D01*
X89372295Y79234237D02*
X89677057Y79500903D01*
X89677057Y79500903D02*
X89677057Y79386618D01*
X89677057Y79386618D02*
X89715152Y79310427D01*
X89715152Y79310427D02*
X89753247Y79272332D01*
X89753247Y79272332D02*
X89829438Y79234237D01*
X89829438Y79234237D02*
X90019914Y79234237D01*
X90019914Y79234237D02*
X90096104Y79272332D01*
X90096104Y79272332D02*
X90134200Y79310427D01*
X90134200Y79310427D02*
X90172295Y79386618D01*
X90172295Y79386618D02*
X90172295Y79615189D01*
X90172295Y79615189D02*
X90134200Y79691380D01*
X90134200Y79691380D02*
X90096104Y79729475D01*
X90172295Y78472332D02*
X90172295Y78929475D01*
X90172295Y78700903D02*
X89372295Y78700903D01*
X89372295Y78700903D02*
X89486580Y78777094D01*
X89486580Y78777094D02*
X89562771Y78853284D01*
X89562771Y78853284D02*
X89600866Y78929475D01*
D11*
%TO.C,D9*%
X26100000Y55940000D02*
X26900000Y55940000D01*
X26500000Y55940000D02*
X26500000Y56440000D01*
X26500000Y55340000D02*
X25950000Y55340000D01*
X26500000Y55340000D02*
X26100000Y55940000D01*
X26500000Y55340000D02*
X27050000Y55340000D01*
X26500000Y54940000D02*
X26500000Y55340000D01*
X26900000Y55940000D02*
X26500000Y55340000D01*
%TO.C,D30*%
X102100000Y81440000D02*
X102900000Y81440000D01*
X102500000Y81440000D02*
X102500000Y81940000D01*
X102500000Y80840000D02*
X101950000Y80840000D01*
X102500000Y80840000D02*
X102100000Y81440000D01*
X102500000Y80840000D02*
X103050000Y80840000D01*
X102500000Y80440000D02*
X102500000Y80840000D01*
X102900000Y81440000D02*
X102500000Y80840000D01*
%TO.C,D26*%
X102600000Y8940000D02*
X103400000Y8940000D01*
X103000000Y8940000D02*
X103000000Y9440000D01*
X103000000Y8340000D02*
X102450000Y8340000D01*
X103000000Y8340000D02*
X102600000Y8940000D01*
X103000000Y8340000D02*
X103550000Y8340000D01*
X103000000Y7940000D02*
X103000000Y8340000D01*
X103400000Y8940000D02*
X103000000Y8340000D01*
%TO.C,D7*%
X26100000Y18940000D02*
X26900000Y18940000D01*
X26500000Y18940000D02*
X26500000Y19440000D01*
X26500000Y18340000D02*
X25950000Y18340000D01*
X26500000Y18340000D02*
X26100000Y18940000D01*
X26500000Y18340000D02*
X27050000Y18340000D01*
X26500000Y17940000D02*
X26500000Y18340000D01*
X26900000Y18940000D02*
X26500000Y18340000D01*
%TO.C,D2*%
X6600000Y11940000D02*
X7400000Y11940000D01*
X7000000Y11940000D02*
X7000000Y12440000D01*
X7000000Y11340000D02*
X6450000Y11340000D01*
X7000000Y11340000D02*
X6600000Y11940000D01*
X7000000Y11340000D02*
X7550000Y11340000D01*
X7000000Y10940000D02*
X7000000Y11340000D01*
X7400000Y11940000D02*
X7000000Y11340000D01*
%TO.C,D5*%
X6100000Y68100000D02*
X6900000Y68100000D01*
X6500000Y68100000D02*
X6500000Y68600000D01*
X6500000Y67500000D02*
X5950000Y67500000D01*
X6500000Y67500000D02*
X6100000Y68100000D01*
X6500000Y67500000D02*
X7050000Y67500000D01*
X6500000Y67100000D02*
X6500000Y67500000D01*
X6900000Y68100000D02*
X6500000Y67500000D01*
%TO.C,D4*%
X5600000Y50940000D02*
X6400000Y50940000D01*
X6000000Y50940000D02*
X6000000Y51440000D01*
X6000000Y50340000D02*
X5450000Y50340000D01*
X6000000Y50340000D02*
X5600000Y50940000D01*
X6000000Y50340000D02*
X6550000Y50340000D01*
X6000000Y49940000D02*
X6000000Y50340000D01*
X6400000Y50940000D02*
X6000000Y50340000D01*
%TO.C,D12*%
X45600000Y27440000D02*
X46400000Y27440000D01*
X46000000Y27440000D02*
X46000000Y27940000D01*
X46000000Y26840000D02*
X45450000Y26840000D01*
X46000000Y26840000D02*
X45600000Y27440000D01*
X46000000Y26840000D02*
X46550000Y26840000D01*
X46000000Y26440000D02*
X46000000Y26840000D01*
X46400000Y27440000D02*
X46000000Y26840000D01*
%TO.C,D6*%
X26100000Y-60000D02*
X26900000Y-60000D01*
X26500000Y-60000D02*
X26500000Y440000D01*
X26500000Y-660000D02*
X25950000Y-660000D01*
X26500000Y-660000D02*
X26100000Y-60000D01*
X26500000Y-660000D02*
X27050000Y-660000D01*
X26500000Y-1060000D02*
X26500000Y-660000D01*
X26900000Y-60000D02*
X26500000Y-660000D01*
%TO.C,D29*%
X102100000Y63060000D02*
X102900000Y63060000D01*
X102500000Y63060000D02*
X102500000Y63560000D01*
X102500000Y62460000D02*
X101950000Y62460000D01*
X102500000Y62460000D02*
X102100000Y63060000D01*
X102500000Y62460000D02*
X103050000Y62460000D01*
X102500000Y62060000D02*
X102500000Y62460000D01*
X102900000Y63060000D02*
X102500000Y62460000D01*
%TO.C,D11*%
X45600000Y8440000D02*
X46400000Y8440000D01*
X46000000Y8440000D02*
X46000000Y8940000D01*
X46000000Y7840000D02*
X45450000Y7840000D01*
X46000000Y7840000D02*
X45600000Y8440000D01*
X46000000Y7840000D02*
X46550000Y7840000D01*
X46000000Y7440000D02*
X46000000Y7840000D01*
X46400000Y8440000D02*
X46000000Y7840000D01*
%TO.C,D1*%
X7100000Y-2060000D02*
X7900000Y-2060000D01*
X7500000Y-2060000D02*
X7500000Y-1560000D01*
X7500000Y-2660000D02*
X6950000Y-2660000D01*
X7500000Y-2660000D02*
X7100000Y-2060000D01*
X7500000Y-2660000D02*
X8050000Y-2660000D01*
X7500000Y-3060000D02*
X7500000Y-2660000D01*
X7900000Y-2060000D02*
X7500000Y-2660000D01*
%TO.C,D27*%
X100600000Y23100000D02*
X101400000Y23100000D01*
X101000000Y23100000D02*
X101000000Y23600000D01*
X101000000Y22500000D02*
X100450000Y22500000D01*
X101000000Y22500000D02*
X100600000Y23100000D01*
X101000000Y22500000D02*
X101550000Y22500000D01*
X101000000Y22100000D02*
X101000000Y22500000D01*
X101400000Y23100000D02*
X101000000Y22500000D01*
%TO.C,D23*%
X81600000Y44940000D02*
X82400000Y44940000D01*
X82000000Y44940000D02*
X82000000Y45440000D01*
X82000000Y44340000D02*
X81450000Y44340000D01*
X82000000Y44340000D02*
X81600000Y44940000D01*
X82000000Y44340000D02*
X82550000Y44340000D01*
X82000000Y43940000D02*
X82000000Y44340000D01*
X82400000Y44940000D02*
X82000000Y44340000D01*
%TO.C,D14*%
X45600000Y65440000D02*
X46400000Y65440000D01*
X46000000Y65440000D02*
X46000000Y65940000D01*
X46000000Y64840000D02*
X45450000Y64840000D01*
X46000000Y64840000D02*
X45600000Y65440000D01*
X46000000Y64840000D02*
X46550000Y64840000D01*
X46000000Y64440000D02*
X46000000Y64840000D01*
X46400000Y65440000D02*
X46000000Y64840000D01*
%TO.C,D10*%
X24600000Y69440000D02*
X25400000Y69440000D01*
X25000000Y69440000D02*
X25000000Y69940000D01*
X25000000Y68840000D02*
X24450000Y68840000D01*
X25000000Y68840000D02*
X24600000Y69440000D01*
X25000000Y68840000D02*
X25550000Y68840000D01*
X25000000Y68440000D02*
X25000000Y68840000D01*
X25400000Y69440000D02*
X25000000Y68840000D01*
%TO.C,D16*%
X64600000Y19440000D02*
X65400000Y19440000D01*
X65000000Y19440000D02*
X65000000Y19940000D01*
X65000000Y18840000D02*
X64450000Y18840000D01*
X65000000Y18840000D02*
X64600000Y19440000D01*
X65000000Y18840000D02*
X65550000Y18840000D01*
X65000000Y18440000D02*
X65000000Y18840000D01*
X65400000Y19440000D02*
X65000000Y18840000D01*
%TO.C,D18*%
X64600000Y55440000D02*
X65400000Y55440000D01*
X65000000Y55440000D02*
X65000000Y55940000D01*
X65000000Y54840000D02*
X64450000Y54840000D01*
X65000000Y54840000D02*
X64600000Y55440000D01*
X65000000Y54840000D02*
X65550000Y54840000D01*
X65000000Y54440000D02*
X65000000Y54840000D01*
X65400000Y55440000D02*
X65000000Y54840000D01*
%TO.C,D28*%
X100600000Y42440000D02*
X101400000Y42440000D01*
X101000000Y42440000D02*
X101000000Y42940000D01*
X101000000Y41840000D02*
X100450000Y41840000D01*
X101000000Y41840000D02*
X100600000Y42440000D01*
X101000000Y41840000D02*
X101550000Y41840000D01*
X101000000Y41440000D02*
X101000000Y41840000D01*
X101400000Y42440000D02*
X101000000Y41840000D01*
%TO.C,D8*%
X26100000Y37440000D02*
X26900000Y37440000D01*
X26500000Y37440000D02*
X26500000Y37940000D01*
X26500000Y36840000D02*
X25950000Y36840000D01*
X26500000Y36840000D02*
X26100000Y37440000D01*
X26500000Y36840000D02*
X27050000Y36840000D01*
X26500000Y36440000D02*
X26500000Y36840000D01*
X26900000Y37440000D02*
X26500000Y36840000D01*
%TO.C,D15*%
X45600000Y84440000D02*
X46400000Y84440000D01*
X46000000Y84440000D02*
X46000000Y84940000D01*
X46000000Y83840000D02*
X45450000Y83840000D01*
X46000000Y83840000D02*
X45600000Y84440000D01*
X46000000Y83840000D02*
X46550000Y83840000D01*
X46000000Y83440000D02*
X46000000Y83840000D01*
X46400000Y84440000D02*
X46000000Y83840000D01*
%TO.C,D25*%
X83600000Y85060000D02*
X84400000Y85060000D01*
X84000000Y85060000D02*
X84000000Y85560000D01*
X84000000Y84460000D02*
X83450000Y84460000D01*
X84000000Y84460000D02*
X83600000Y85060000D01*
X84000000Y84460000D02*
X84550000Y84460000D01*
X84000000Y84060000D02*
X84000000Y84460000D01*
X84400000Y85060000D02*
X84000000Y84460000D01*
%TO.C,D19*%
X64600000Y74940000D02*
X65400000Y74940000D01*
X65000000Y74940000D02*
X65000000Y75440000D01*
X65000000Y74340000D02*
X64450000Y74340000D01*
X65000000Y74340000D02*
X64600000Y74940000D01*
X65000000Y74340000D02*
X65550000Y74340000D01*
X65000000Y73940000D02*
X65000000Y74340000D01*
X65400000Y74940000D02*
X65000000Y74340000D01*
%TO.C,D24*%
X81600000Y63940000D02*
X82400000Y63940000D01*
X82000000Y63940000D02*
X82000000Y64440000D01*
X82000000Y63340000D02*
X81450000Y63340000D01*
X82000000Y63340000D02*
X81600000Y63940000D01*
X82000000Y63340000D02*
X82550000Y63340000D01*
X82000000Y62940000D02*
X82000000Y63340000D01*
X82400000Y63940000D02*
X82000000Y63340000D01*
%TO.C,D20*%
X64600000Y91440000D02*
X65400000Y91440000D01*
X65000000Y91440000D02*
X65000000Y91940000D01*
X65000000Y90840000D02*
X64450000Y90840000D01*
X65000000Y90840000D02*
X64600000Y91440000D01*
X65000000Y90840000D02*
X65550000Y90840000D01*
X65000000Y90440000D02*
X65000000Y90840000D01*
X65400000Y91440000D02*
X65000000Y90840000D01*
%TO.C,D13*%
X45600000Y46440000D02*
X46400000Y46440000D01*
X46000000Y46440000D02*
X46000000Y46940000D01*
X46000000Y45840000D02*
X45450000Y45840000D01*
X46000000Y45840000D02*
X45600000Y46440000D01*
X46000000Y45840000D02*
X46550000Y45840000D01*
X46000000Y45440000D02*
X46000000Y45840000D01*
X46400000Y46440000D02*
X46000000Y45840000D01*
%TO.C,D21*%
X81600000Y6940000D02*
X82400000Y6940000D01*
X82000000Y6940000D02*
X82000000Y7440000D01*
X82000000Y6340000D02*
X81450000Y6340000D01*
X82000000Y6340000D02*
X81600000Y6940000D01*
X82000000Y6340000D02*
X82550000Y6340000D01*
X82000000Y5940000D02*
X82000000Y6340000D01*
X82400000Y6940000D02*
X82000000Y6340000D01*
%TO.C,D3*%
X7600000Y36440000D02*
X8400000Y36440000D01*
X8000000Y36440000D02*
X8000000Y36940000D01*
X8000000Y35840000D02*
X7450000Y35840000D01*
X8000000Y35840000D02*
X7600000Y36440000D01*
X8000000Y35840000D02*
X8550000Y35840000D01*
X8000000Y35440000D02*
X8000000Y35840000D01*
X8400000Y36440000D02*
X8000000Y35840000D01*
%TO.C,D17*%
X64100000Y32940000D02*
X64900000Y32940000D01*
X64500000Y32940000D02*
X64500000Y33440000D01*
X64500000Y32340000D02*
X63950000Y32340000D01*
X64500000Y32340000D02*
X64100000Y32940000D01*
X64500000Y32340000D02*
X65050000Y32340000D01*
X64500000Y31940000D02*
X64500000Y32340000D01*
X64900000Y32940000D02*
X64500000Y32340000D01*
D12*
%TO.C,MCU1*%
X70760000Y93890000D02*
X70760000Y76110000D01*
X70760000Y76110000D02*
X103780000Y76110000D01*
X103780000Y93890000D02*
X70760000Y93890000D01*
X103780000Y76110000D02*
X103780000Y93890000D01*
D11*
%TO.C,D22*%
X82100000Y25940000D02*
X82900000Y25940000D01*
X82500000Y25940000D02*
X82500000Y26440000D01*
X82500000Y25340000D02*
X81950000Y25340000D01*
X82500000Y25340000D02*
X82100000Y25940000D01*
X82500000Y25340000D02*
X83050000Y25340000D01*
X82500000Y24940000D02*
X82500000Y25340000D01*
X82900000Y25940000D02*
X82500000Y25340000D01*
%TD*%
D13*
%TO.C,MCU1*%
X99970000Y92620000D03*
X97430000Y92620000D03*
X94890000Y92620000D03*
X92350000Y92620000D03*
X89810000Y92620000D03*
X87270000Y92620000D03*
X84730000Y92620000D03*
X82190000Y92620000D03*
X79650000Y92620000D03*
X77110000Y92620000D03*
X74570000Y92620000D03*
X72030000Y92620000D03*
X72030000Y77380000D03*
X74570000Y77380000D03*
X77110000Y77380000D03*
X79650000Y77380000D03*
X82190000Y77380000D03*
X84730000Y77380000D03*
X87270000Y77380000D03*
X89810000Y77380000D03*
X92350000Y77380000D03*
X94890000Y77380000D03*
X97430000Y77380000D03*
X99970000Y77380000D03*
%TD*%
M02*
