%TF.GenerationSoftware,KiCad,Pcbnew,9.0.8*%
%TF.CreationDate,2026-03-20T01:08:06-07:00*%
%TF.ProjectId,left,6c656674-2e6b-4696-9361-645f70636258,v1.0.0*%
%TF.SameCoordinates,Original*%
%TF.FileFunction,Legend,Top*%
%TF.FilePolarity,Positive*%
%FSLAX46Y46*%
G04 Gerber Fmt 4.6, Leading zero omitted, Abs format (unit mm)*
G04 Created by KiCad (PCBNEW 9.0.8) date 2026-03-20 01:08:06*
%MOMM*%
%LPD*%
G01*
G04 APERTURE LIST*
%ADD10C,0.150000*%
%ADD11C,0.300000*%
%ADD12C,0.100000*%
%ADD13C,0.381000*%
%ADD14C,1.752600*%
G04 APERTURE END LIST*
D10*
X84292295Y78662809D02*
X84292295Y78738999D01*
X84292295Y78738999D02*
X84330390Y78815190D01*
X84330390Y78815190D02*
X84368485Y78853285D01*
X84368485Y78853285D02*
X84444676Y78891380D01*
X84444676Y78891380D02*
X84597057Y78929475D01*
X84597057Y78929475D02*
X84787533Y78929475D01*
X84787533Y78929475D02*
X84939914Y78891380D01*
X84939914Y78891380D02*
X85016104Y78853285D01*
X85016104Y78853285D02*
X85054200Y78815190D01*
X85054200Y78815190D02*
X85092295Y78738999D01*
X85092295Y78738999D02*
X85092295Y78662809D01*
X85092295Y78662809D02*
X85054200Y78586618D01*
X85054200Y78586618D02*
X85016104Y78548523D01*
X85016104Y78548523D02*
X84939914Y78510428D01*
X84939914Y78510428D02*
X84787533Y78472332D01*
X84787533Y78472332D02*
X84597057Y78472332D01*
X84597057Y78472332D02*
X84444676Y78510428D01*
X84444676Y78510428D02*
X84368485Y78548523D01*
X84368485Y78548523D02*
X84330390Y78586618D01*
X84330390Y78586618D02*
X84292295Y78662809D01*
X84292295Y79424714D02*
X84292295Y79500904D01*
X84292295Y79500904D02*
X84330390Y79577095D01*
X84330390Y79577095D02*
X84368485Y79615190D01*
X84368485Y79615190D02*
X84444676Y79653285D01*
X84444676Y79653285D02*
X84597057Y79691380D01*
X84597057Y79691380D02*
X84787533Y79691380D01*
X84787533Y79691380D02*
X84939914Y79653285D01*
X84939914Y79653285D02*
X85016104Y79615190D01*
X85016104Y79615190D02*
X85054200Y79577095D01*
X85054200Y79577095D02*
X85092295Y79500904D01*
X85092295Y79500904D02*
X85092295Y79424714D01*
X85092295Y79424714D02*
X85054200Y79348523D01*
X85054200Y79348523D02*
X85016104Y79310428D01*
X85016104Y79310428D02*
X84939914Y79272333D01*
X84939914Y79272333D02*
X84787533Y79234237D01*
X84787533Y79234237D02*
X84597057Y79234237D01*
X84597057Y79234237D02*
X84444676Y79272333D01*
X84444676Y79272333D02*
X84368485Y79310428D01*
X84368485Y79310428D02*
X84330390Y79348523D01*
X84330390Y79348523D02*
X84292295Y79424714D01*
X84368485Y79996142D02*
X84330390Y80034238D01*
X84330390Y80034238D02*
X84292295Y80110428D01*
X84292295Y80110428D02*
X84292295Y80300904D01*
X84292295Y80300904D02*
X84330390Y80377095D01*
X84330390Y80377095D02*
X84368485Y80415190D01*
X84368485Y80415190D02*
X84444676Y80453285D01*
X84444676Y80453285D02*
X84520866Y80453285D01*
X84520866Y80453285D02*
X84635152Y80415190D01*
X84635152Y80415190D02*
X85092295Y79958047D01*
X85092295Y79958047D02*
X85092295Y80453285D01*
X99532295Y89737190D02*
X99532295Y89813380D01*
X99532295Y89813380D02*
X99570390Y89889571D01*
X99570390Y89889571D02*
X99608485Y89927666D01*
X99608485Y89927666D02*
X99684676Y89965761D01*
X99684676Y89965761D02*
X99837057Y90003856D01*
X99837057Y90003856D02*
X100027533Y90003856D01*
X100027533Y90003856D02*
X100179914Y89965761D01*
X100179914Y89965761D02*
X100256104Y89927666D01*
X100256104Y89927666D02*
X100294200Y89889571D01*
X100294200Y89889571D02*
X100332295Y89813380D01*
X100332295Y89813380D02*
X100332295Y89737190D01*
X100332295Y89737190D02*
X100294200Y89660999D01*
X100294200Y89660999D02*
X100256104Y89622904D01*
X100256104Y89622904D02*
X100179914Y89584809D01*
X100179914Y89584809D02*
X100027533Y89546713D01*
X100027533Y89546713D02*
X99837057Y89546713D01*
X99837057Y89546713D02*
X99684676Y89584809D01*
X99684676Y89584809D02*
X99608485Y89622904D01*
X99608485Y89622904D02*
X99570390Y89660999D01*
X99570390Y89660999D02*
X99532295Y89737190D01*
X99532295Y90499095D02*
X99532295Y90575285D01*
X99532295Y90575285D02*
X99570390Y90651476D01*
X99570390Y90651476D02*
X99608485Y90689571D01*
X99608485Y90689571D02*
X99684676Y90727666D01*
X99684676Y90727666D02*
X99837057Y90765761D01*
X99837057Y90765761D02*
X100027533Y90765761D01*
X100027533Y90765761D02*
X100179914Y90727666D01*
X100179914Y90727666D02*
X100256104Y90689571D01*
X100256104Y90689571D02*
X100294200Y90651476D01*
X100294200Y90651476D02*
X100332295Y90575285D01*
X100332295Y90575285D02*
X100332295Y90499095D01*
X100332295Y90499095D02*
X100294200Y90422904D01*
X100294200Y90422904D02*
X100256104Y90384809D01*
X100256104Y90384809D02*
X100179914Y90346714D01*
X100179914Y90346714D02*
X100027533Y90308618D01*
X100027533Y90308618D02*
X99837057Y90308618D01*
X99837057Y90308618D02*
X99684676Y90346714D01*
X99684676Y90346714D02*
X99608485Y90384809D01*
X99608485Y90384809D02*
X99570390Y90422904D01*
X99570390Y90422904D02*
X99532295Y90499095D01*
X99532295Y91451476D02*
X99532295Y91299095D01*
X99532295Y91299095D02*
X99570390Y91222904D01*
X99570390Y91222904D02*
X99608485Y91184809D01*
X99608485Y91184809D02*
X99722771Y91108619D01*
X99722771Y91108619D02*
X99875152Y91070523D01*
X99875152Y91070523D02*
X100179914Y91070523D01*
X100179914Y91070523D02*
X100256104Y91108619D01*
X100256104Y91108619D02*
X100294200Y91146714D01*
X100294200Y91146714D02*
X100332295Y91222904D01*
X100332295Y91222904D02*
X100332295Y91375285D01*
X100332295Y91375285D02*
X100294200Y91451476D01*
X100294200Y91451476D02*
X100256104Y91489571D01*
X100256104Y91489571D02*
X100179914Y91527666D01*
X100179914Y91527666D02*
X99989438Y91527666D01*
X99989438Y91527666D02*
X99913247Y91489571D01*
X99913247Y91489571D02*
X99875152Y91451476D01*
X99875152Y91451476D02*
X99837057Y91375285D01*
X99837057Y91375285D02*
X99837057Y91222904D01*
X99837057Y91222904D02*
X99875152Y91146714D01*
X99875152Y91146714D02*
X99913247Y91108619D01*
X99913247Y91108619D02*
X99989438Y91070523D01*
X74932295Y90003856D02*
X74932295Y89546713D01*
X74932295Y89775285D02*
X74132295Y89775285D01*
X74132295Y89775285D02*
X74246580Y89699094D01*
X74246580Y89699094D02*
X74322771Y89622904D01*
X74322771Y89622904D02*
X74360866Y89546713D01*
X74132295Y90499095D02*
X74132295Y90575285D01*
X74132295Y90575285D02*
X74170390Y90651476D01*
X74170390Y90651476D02*
X74208485Y90689571D01*
X74208485Y90689571D02*
X74284676Y90727666D01*
X74284676Y90727666D02*
X74437057Y90765761D01*
X74437057Y90765761D02*
X74627533Y90765761D01*
X74627533Y90765761D02*
X74779914Y90727666D01*
X74779914Y90727666D02*
X74856104Y90689571D01*
X74856104Y90689571D02*
X74894200Y90651476D01*
X74894200Y90651476D02*
X74932295Y90575285D01*
X74932295Y90575285D02*
X74932295Y90499095D01*
X74932295Y90499095D02*
X74894200Y90422904D01*
X74894200Y90422904D02*
X74856104Y90384809D01*
X74856104Y90384809D02*
X74779914Y90346714D01*
X74779914Y90346714D02*
X74627533Y90308618D01*
X74627533Y90308618D02*
X74437057Y90308618D01*
X74437057Y90308618D02*
X74284676Y90346714D01*
X74284676Y90346714D02*
X74208485Y90384809D01*
X74208485Y90384809D02*
X74170390Y90422904D01*
X74170390Y90422904D02*
X74132295Y90499095D01*
X74398961Y91451476D02*
X74932295Y91451476D01*
X74094200Y91261000D02*
X74665628Y91070523D01*
X74665628Y91070523D02*
X74665628Y91565762D01*
X100332295Y78973904D02*
X99951342Y78707237D01*
X100332295Y78516761D02*
X99532295Y78516761D01*
X99532295Y78516761D02*
X99532295Y78821523D01*
X99532295Y78821523D02*
X99570390Y78897713D01*
X99570390Y78897713D02*
X99608485Y78935808D01*
X99608485Y78935808D02*
X99684676Y78973904D01*
X99684676Y78973904D02*
X99798961Y78973904D01*
X99798961Y78973904D02*
X99875152Y78935808D01*
X99875152Y78935808D02*
X99913247Y78897713D01*
X99913247Y78897713D02*
X99951342Y78821523D01*
X99951342Y78821523D02*
X99951342Y78516761D01*
X100103723Y79278665D02*
X100103723Y79659618D01*
X100332295Y79202475D02*
X99532295Y79469142D01*
X99532295Y79469142D02*
X100332295Y79735808D01*
X99532295Y79926284D02*
X100332295Y80116760D01*
X100332295Y80116760D02*
X99760866Y80269141D01*
X99760866Y80269141D02*
X100332295Y80421522D01*
X100332295Y80421522D02*
X99532295Y80611999D01*
X81752295Y89737190D02*
X81752295Y89813380D01*
X81752295Y89813380D02*
X81790390Y89889571D01*
X81790390Y89889571D02*
X81828485Y89927666D01*
X81828485Y89927666D02*
X81904676Y89965761D01*
X81904676Y89965761D02*
X82057057Y90003856D01*
X82057057Y90003856D02*
X82247533Y90003856D01*
X82247533Y90003856D02*
X82399914Y89965761D01*
X82399914Y89965761D02*
X82476104Y89927666D01*
X82476104Y89927666D02*
X82514200Y89889571D01*
X82514200Y89889571D02*
X82552295Y89813380D01*
X82552295Y89813380D02*
X82552295Y89737190D01*
X82552295Y89737190D02*
X82514200Y89660999D01*
X82514200Y89660999D02*
X82476104Y89622904D01*
X82476104Y89622904D02*
X82399914Y89584809D01*
X82399914Y89584809D02*
X82247533Y89546713D01*
X82247533Y89546713D02*
X82057057Y89546713D01*
X82057057Y89546713D02*
X81904676Y89584809D01*
X81904676Y89584809D02*
X81828485Y89622904D01*
X81828485Y89622904D02*
X81790390Y89660999D01*
X81790390Y89660999D02*
X81752295Y89737190D01*
X81828485Y90308618D02*
X81790390Y90346714D01*
X81790390Y90346714D02*
X81752295Y90422904D01*
X81752295Y90422904D02*
X81752295Y90613380D01*
X81752295Y90613380D02*
X81790390Y90689571D01*
X81790390Y90689571D02*
X81828485Y90727666D01*
X81828485Y90727666D02*
X81904676Y90765761D01*
X81904676Y90765761D02*
X81980866Y90765761D01*
X81980866Y90765761D02*
X82095152Y90727666D01*
X82095152Y90727666D02*
X82552295Y90270523D01*
X82552295Y90270523D02*
X82552295Y90765761D01*
X82018961Y91451476D02*
X82552295Y91451476D01*
X81714200Y91261000D02*
X82285628Y91070523D01*
X82285628Y91070523D02*
X82285628Y91565762D01*
X94490390Y89851476D02*
X94452295Y89775286D01*
X94452295Y89775286D02*
X94452295Y89661000D01*
X94452295Y89661000D02*
X94490390Y89546714D01*
X94490390Y89546714D02*
X94566580Y89470524D01*
X94566580Y89470524D02*
X94642771Y89432429D01*
X94642771Y89432429D02*
X94795152Y89394333D01*
X94795152Y89394333D02*
X94909438Y89394333D01*
X94909438Y89394333D02*
X95061819Y89432429D01*
X95061819Y89432429D02*
X95138009Y89470524D01*
X95138009Y89470524D02*
X95214200Y89546714D01*
X95214200Y89546714D02*
X95252295Y89661000D01*
X95252295Y89661000D02*
X95252295Y89737191D01*
X95252295Y89737191D02*
X95214200Y89851476D01*
X95214200Y89851476D02*
X95176104Y89889572D01*
X95176104Y89889572D02*
X94909438Y89889572D01*
X94909438Y89889572D02*
X94909438Y89737191D01*
X95252295Y90232429D02*
X94452295Y90232429D01*
X94452295Y90232429D02*
X95252295Y90689572D01*
X95252295Y90689572D02*
X94452295Y90689572D01*
X95252295Y91070524D02*
X94452295Y91070524D01*
X94452295Y91070524D02*
X94452295Y91261000D01*
X94452295Y91261000D02*
X94490390Y91375286D01*
X94490390Y91375286D02*
X94566580Y91451476D01*
X94566580Y91451476D02*
X94642771Y91489571D01*
X94642771Y91489571D02*
X94795152Y91527667D01*
X94795152Y91527667D02*
X94909438Y91527667D01*
X94909438Y91527667D02*
X95061819Y91489571D01*
X95061819Y91489571D02*
X95138009Y91451476D01*
X95138009Y91451476D02*
X95214200Y91375286D01*
X95214200Y91375286D02*
X95252295Y91261000D01*
X95252295Y91261000D02*
X95252295Y91070524D01*
X97030390Y78935809D02*
X96992295Y78859619D01*
X96992295Y78859619D02*
X96992295Y78745333D01*
X96992295Y78745333D02*
X97030390Y78631047D01*
X97030390Y78631047D02*
X97106580Y78554857D01*
X97106580Y78554857D02*
X97182771Y78516762D01*
X97182771Y78516762D02*
X97335152Y78478666D01*
X97335152Y78478666D02*
X97449438Y78478666D01*
X97449438Y78478666D02*
X97601819Y78516762D01*
X97601819Y78516762D02*
X97678009Y78554857D01*
X97678009Y78554857D02*
X97754200Y78631047D01*
X97754200Y78631047D02*
X97792295Y78745333D01*
X97792295Y78745333D02*
X97792295Y78821524D01*
X97792295Y78821524D02*
X97754200Y78935809D01*
X97754200Y78935809D02*
X97716104Y78973905D01*
X97716104Y78973905D02*
X97449438Y78973905D01*
X97449438Y78973905D02*
X97449438Y78821524D01*
X97792295Y79316762D02*
X96992295Y79316762D01*
X96992295Y79316762D02*
X97792295Y79773905D01*
X97792295Y79773905D02*
X96992295Y79773905D01*
X97792295Y80154857D02*
X96992295Y80154857D01*
X96992295Y80154857D02*
X96992295Y80345333D01*
X96992295Y80345333D02*
X97030390Y80459619D01*
X97030390Y80459619D02*
X97106580Y80535809D01*
X97106580Y80535809D02*
X97182771Y80573904D01*
X97182771Y80573904D02*
X97335152Y80612000D01*
X97335152Y80612000D02*
X97449438Y80612000D01*
X97449438Y80612000D02*
X97601819Y80573904D01*
X97601819Y80573904D02*
X97678009Y80535809D01*
X97678009Y80535809D02*
X97754200Y80459619D01*
X97754200Y80459619D02*
X97792295Y80345333D01*
X97792295Y80345333D02*
X97792295Y80154857D01*
X97062295Y89737190D02*
X97062295Y89813380D01*
X97062295Y89813380D02*
X97100390Y89889571D01*
X97100390Y89889571D02*
X97138485Y89927666D01*
X97138485Y89927666D02*
X97214676Y89965761D01*
X97214676Y89965761D02*
X97367057Y90003856D01*
X97367057Y90003856D02*
X97557533Y90003856D01*
X97557533Y90003856D02*
X97709914Y89965761D01*
X97709914Y89965761D02*
X97786104Y89927666D01*
X97786104Y89927666D02*
X97824200Y89889571D01*
X97824200Y89889571D02*
X97862295Y89813380D01*
X97862295Y89813380D02*
X97862295Y89737190D01*
X97862295Y89737190D02*
X97824200Y89660999D01*
X97824200Y89660999D02*
X97786104Y89622904D01*
X97786104Y89622904D02*
X97709914Y89584809D01*
X97709914Y89584809D02*
X97557533Y89546713D01*
X97557533Y89546713D02*
X97367057Y89546713D01*
X97367057Y89546713D02*
X97214676Y89584809D01*
X97214676Y89584809D02*
X97138485Y89622904D01*
X97138485Y89622904D02*
X97100390Y89660999D01*
X97100390Y89660999D02*
X97062295Y89737190D01*
X97062295Y90499095D02*
X97062295Y90575285D01*
X97062295Y90575285D02*
X97100390Y90651476D01*
X97100390Y90651476D02*
X97138485Y90689571D01*
X97138485Y90689571D02*
X97214676Y90727666D01*
X97214676Y90727666D02*
X97367057Y90765761D01*
X97367057Y90765761D02*
X97557533Y90765761D01*
X97557533Y90765761D02*
X97709914Y90727666D01*
X97709914Y90727666D02*
X97786104Y90689571D01*
X97786104Y90689571D02*
X97824200Y90651476D01*
X97824200Y90651476D02*
X97862295Y90575285D01*
X97862295Y90575285D02*
X97862295Y90499095D01*
X97862295Y90499095D02*
X97824200Y90422904D01*
X97824200Y90422904D02*
X97786104Y90384809D01*
X97786104Y90384809D02*
X97709914Y90346714D01*
X97709914Y90346714D02*
X97557533Y90308618D01*
X97557533Y90308618D02*
X97367057Y90308618D01*
X97367057Y90308618D02*
X97214676Y90346714D01*
X97214676Y90346714D02*
X97138485Y90384809D01*
X97138485Y90384809D02*
X97100390Y90422904D01*
X97100390Y90422904D02*
X97062295Y90499095D01*
X97405152Y91222904D02*
X97367057Y91146714D01*
X97367057Y91146714D02*
X97328961Y91108619D01*
X97328961Y91108619D02*
X97252771Y91070523D01*
X97252771Y91070523D02*
X97214676Y91070523D01*
X97214676Y91070523D02*
X97138485Y91108619D01*
X97138485Y91108619D02*
X97100390Y91146714D01*
X97100390Y91146714D02*
X97062295Y91222904D01*
X97062295Y91222904D02*
X97062295Y91375285D01*
X97062295Y91375285D02*
X97100390Y91451476D01*
X97100390Y91451476D02*
X97138485Y91489571D01*
X97138485Y91489571D02*
X97214676Y91527666D01*
X97214676Y91527666D02*
X97252771Y91527666D01*
X97252771Y91527666D02*
X97328961Y91489571D01*
X97328961Y91489571D02*
X97367057Y91451476D01*
X97367057Y91451476D02*
X97405152Y91375285D01*
X97405152Y91375285D02*
X97405152Y91222904D01*
X97405152Y91222904D02*
X97443247Y91146714D01*
X97443247Y91146714D02*
X97481342Y91108619D01*
X97481342Y91108619D02*
X97557533Y91070523D01*
X97557533Y91070523D02*
X97709914Y91070523D01*
X97709914Y91070523D02*
X97786104Y91108619D01*
X97786104Y91108619D02*
X97824200Y91146714D01*
X97824200Y91146714D02*
X97862295Y91222904D01*
X97862295Y91222904D02*
X97862295Y91375285D01*
X97862295Y91375285D02*
X97824200Y91451476D01*
X97824200Y91451476D02*
X97786104Y91489571D01*
X97786104Y91489571D02*
X97709914Y91527666D01*
X97709914Y91527666D02*
X97557533Y91527666D01*
X97557533Y91527666D02*
X97481342Y91489571D01*
X97481342Y91489571D02*
X97443247Y91451476D01*
X97443247Y91451476D02*
X97405152Y91375285D01*
X95252295Y78973905D02*
X94871342Y78707238D01*
X95252295Y78516762D02*
X94452295Y78516762D01*
X94452295Y78516762D02*
X94452295Y78821524D01*
X94452295Y78821524D02*
X94490390Y78897714D01*
X94490390Y78897714D02*
X94528485Y78935809D01*
X94528485Y78935809D02*
X94604676Y78973905D01*
X94604676Y78973905D02*
X94718961Y78973905D01*
X94718961Y78973905D02*
X94795152Y78935809D01*
X94795152Y78935809D02*
X94833247Y78897714D01*
X94833247Y78897714D02*
X94871342Y78821524D01*
X94871342Y78821524D02*
X94871342Y78516762D01*
X95214200Y79278666D02*
X95252295Y79392952D01*
X95252295Y79392952D02*
X95252295Y79583428D01*
X95252295Y79583428D02*
X95214200Y79659619D01*
X95214200Y79659619D02*
X95176104Y79697714D01*
X95176104Y79697714D02*
X95099914Y79735809D01*
X95099914Y79735809D02*
X95023723Y79735809D01*
X95023723Y79735809D02*
X94947533Y79697714D01*
X94947533Y79697714D02*
X94909438Y79659619D01*
X94909438Y79659619D02*
X94871342Y79583428D01*
X94871342Y79583428D02*
X94833247Y79431047D01*
X94833247Y79431047D02*
X94795152Y79354857D01*
X94795152Y79354857D02*
X94757057Y79316762D01*
X94757057Y79316762D02*
X94680866Y79278666D01*
X94680866Y79278666D02*
X94604676Y79278666D01*
X94604676Y79278666D02*
X94528485Y79316762D01*
X94528485Y79316762D02*
X94490390Y79354857D01*
X94490390Y79354857D02*
X94452295Y79431047D01*
X94452295Y79431047D02*
X94452295Y79621524D01*
X94452295Y79621524D02*
X94490390Y79735809D01*
X94452295Y79964381D02*
X94452295Y80421524D01*
X95252295Y80192952D02*
X94452295Y80192952D01*
X80012295Y90003856D02*
X80012295Y89546713D01*
X80012295Y89775285D02*
X79212295Y89775285D01*
X79212295Y89775285D02*
X79326580Y89699094D01*
X79326580Y89699094D02*
X79402771Y89622904D01*
X79402771Y89622904D02*
X79440866Y89546713D01*
X79212295Y90499095D02*
X79212295Y90575285D01*
X79212295Y90575285D02*
X79250390Y90651476D01*
X79250390Y90651476D02*
X79288485Y90689571D01*
X79288485Y90689571D02*
X79364676Y90727666D01*
X79364676Y90727666D02*
X79517057Y90765761D01*
X79517057Y90765761D02*
X79707533Y90765761D01*
X79707533Y90765761D02*
X79859914Y90727666D01*
X79859914Y90727666D02*
X79936104Y90689571D01*
X79936104Y90689571D02*
X79974200Y90651476D01*
X79974200Y90651476D02*
X80012295Y90575285D01*
X80012295Y90575285D02*
X80012295Y90499095D01*
X80012295Y90499095D02*
X79974200Y90422904D01*
X79974200Y90422904D02*
X79936104Y90384809D01*
X79936104Y90384809D02*
X79859914Y90346714D01*
X79859914Y90346714D02*
X79707533Y90308618D01*
X79707533Y90308618D02*
X79517057Y90308618D01*
X79517057Y90308618D02*
X79364676Y90346714D01*
X79364676Y90346714D02*
X79288485Y90384809D01*
X79288485Y90384809D02*
X79250390Y90422904D01*
X79250390Y90422904D02*
X79212295Y90499095D01*
X79212295Y91261000D02*
X79212295Y91337190D01*
X79212295Y91337190D02*
X79250390Y91413381D01*
X79250390Y91413381D02*
X79288485Y91451476D01*
X79288485Y91451476D02*
X79364676Y91489571D01*
X79364676Y91489571D02*
X79517057Y91527666D01*
X79517057Y91527666D02*
X79707533Y91527666D01*
X79707533Y91527666D02*
X79859914Y91489571D01*
X79859914Y91489571D02*
X79936104Y91451476D01*
X79936104Y91451476D02*
X79974200Y91413381D01*
X79974200Y91413381D02*
X80012295Y91337190D01*
X80012295Y91337190D02*
X80012295Y91261000D01*
X80012295Y91261000D02*
X79974200Y91184809D01*
X79974200Y91184809D02*
X79936104Y91146714D01*
X79936104Y91146714D02*
X79859914Y91108619D01*
X79859914Y91108619D02*
X79707533Y91070523D01*
X79707533Y91070523D02*
X79517057Y91070523D01*
X79517057Y91070523D02*
X79364676Y91108619D01*
X79364676Y91108619D02*
X79288485Y91146714D01*
X79288485Y91146714D02*
X79250390Y91184809D01*
X79250390Y91184809D02*
X79212295Y91261000D01*
X74132295Y78662809D02*
X74132295Y78738999D01*
X74132295Y78738999D02*
X74170390Y78815190D01*
X74170390Y78815190D02*
X74208485Y78853285D01*
X74208485Y78853285D02*
X74284676Y78891380D01*
X74284676Y78891380D02*
X74437057Y78929475D01*
X74437057Y78929475D02*
X74627533Y78929475D01*
X74627533Y78929475D02*
X74779914Y78891380D01*
X74779914Y78891380D02*
X74856104Y78853285D01*
X74856104Y78853285D02*
X74894200Y78815190D01*
X74894200Y78815190D02*
X74932295Y78738999D01*
X74932295Y78738999D02*
X74932295Y78662809D01*
X74932295Y78662809D02*
X74894200Y78586618D01*
X74894200Y78586618D02*
X74856104Y78548523D01*
X74856104Y78548523D02*
X74779914Y78510428D01*
X74779914Y78510428D02*
X74627533Y78472332D01*
X74627533Y78472332D02*
X74437057Y78472332D01*
X74437057Y78472332D02*
X74284676Y78510428D01*
X74284676Y78510428D02*
X74208485Y78548523D01*
X74208485Y78548523D02*
X74170390Y78586618D01*
X74170390Y78586618D02*
X74132295Y78662809D01*
X74932295Y79691380D02*
X74932295Y79234237D01*
X74932295Y79462809D02*
X74132295Y79462809D01*
X74132295Y79462809D02*
X74246580Y79386618D01*
X74246580Y79386618D02*
X74322771Y79310428D01*
X74322771Y79310428D02*
X74360866Y79234237D01*
X74132295Y80186619D02*
X74132295Y80262809D01*
X74132295Y80262809D02*
X74170390Y80339000D01*
X74170390Y80339000D02*
X74208485Y80377095D01*
X74208485Y80377095D02*
X74284676Y80415190D01*
X74284676Y80415190D02*
X74437057Y80453285D01*
X74437057Y80453285D02*
X74627533Y80453285D01*
X74627533Y80453285D02*
X74779914Y80415190D01*
X74779914Y80415190D02*
X74856104Y80377095D01*
X74856104Y80377095D02*
X74894200Y80339000D01*
X74894200Y80339000D02*
X74932295Y80262809D01*
X74932295Y80262809D02*
X74932295Y80186619D01*
X74932295Y80186619D02*
X74894200Y80110428D01*
X74894200Y80110428D02*
X74856104Y80072333D01*
X74856104Y80072333D02*
X74779914Y80034238D01*
X74779914Y80034238D02*
X74627533Y79996142D01*
X74627533Y79996142D02*
X74437057Y79996142D01*
X74437057Y79996142D02*
X74284676Y80034238D01*
X74284676Y80034238D02*
X74208485Y80072333D01*
X74208485Y80072333D02*
X74170390Y80110428D01*
X74170390Y80110428D02*
X74132295Y80186619D01*
X86832295Y78662809D02*
X86832295Y78738999D01*
X86832295Y78738999D02*
X86870390Y78815190D01*
X86870390Y78815190D02*
X86908485Y78853285D01*
X86908485Y78853285D02*
X86984676Y78891380D01*
X86984676Y78891380D02*
X87137057Y78929475D01*
X87137057Y78929475D02*
X87327533Y78929475D01*
X87327533Y78929475D02*
X87479914Y78891380D01*
X87479914Y78891380D02*
X87556104Y78853285D01*
X87556104Y78853285D02*
X87594200Y78815190D01*
X87594200Y78815190D02*
X87632295Y78738999D01*
X87632295Y78738999D02*
X87632295Y78662809D01*
X87632295Y78662809D02*
X87594200Y78586618D01*
X87594200Y78586618D02*
X87556104Y78548523D01*
X87556104Y78548523D02*
X87479914Y78510428D01*
X87479914Y78510428D02*
X87327533Y78472332D01*
X87327533Y78472332D02*
X87137057Y78472332D01*
X87137057Y78472332D02*
X86984676Y78510428D01*
X86984676Y78510428D02*
X86908485Y78548523D01*
X86908485Y78548523D02*
X86870390Y78586618D01*
X86870390Y78586618D02*
X86832295Y78662809D01*
X86908485Y79234237D02*
X86870390Y79272333D01*
X86870390Y79272333D02*
X86832295Y79348523D01*
X86832295Y79348523D02*
X86832295Y79538999D01*
X86832295Y79538999D02*
X86870390Y79615190D01*
X86870390Y79615190D02*
X86908485Y79653285D01*
X86908485Y79653285D02*
X86984676Y79691380D01*
X86984676Y79691380D02*
X87060866Y79691380D01*
X87060866Y79691380D02*
X87175152Y79653285D01*
X87175152Y79653285D02*
X87632295Y79196142D01*
X87632295Y79196142D02*
X87632295Y79691380D01*
X87632295Y80072333D02*
X87632295Y80224714D01*
X87632295Y80224714D02*
X87594200Y80300904D01*
X87594200Y80300904D02*
X87556104Y80339000D01*
X87556104Y80339000D02*
X87441819Y80415190D01*
X87441819Y80415190D02*
X87289438Y80453285D01*
X87289438Y80453285D02*
X86984676Y80453285D01*
X86984676Y80453285D02*
X86908485Y80415190D01*
X86908485Y80415190D02*
X86870390Y80377095D01*
X86870390Y80377095D02*
X86832295Y80300904D01*
X86832295Y80300904D02*
X86832295Y80148523D01*
X86832295Y80148523D02*
X86870390Y80072333D01*
X86870390Y80072333D02*
X86908485Y80034238D01*
X86908485Y80034238D02*
X86984676Y79996142D01*
X86984676Y79996142D02*
X87175152Y79996142D01*
X87175152Y79996142D02*
X87251342Y80034238D01*
X87251342Y80034238D02*
X87289438Y80072333D01*
X87289438Y80072333D02*
X87327533Y80148523D01*
X87327533Y80148523D02*
X87327533Y80300904D01*
X87327533Y80300904D02*
X87289438Y80377095D01*
X87289438Y80377095D02*
X87251342Y80415190D01*
X87251342Y80415190D02*
X87175152Y80453285D01*
X80012295Y78929475D02*
X80012295Y78472332D01*
X80012295Y78700904D02*
X79212295Y78700904D01*
X79212295Y78700904D02*
X79326580Y78624713D01*
X79326580Y78624713D02*
X79402771Y78548523D01*
X79402771Y78548523D02*
X79440866Y78472332D01*
X80012295Y79691380D02*
X80012295Y79234237D01*
X80012295Y79462809D02*
X79212295Y79462809D01*
X79212295Y79462809D02*
X79326580Y79386618D01*
X79326580Y79386618D02*
X79402771Y79310428D01*
X79402771Y79310428D02*
X79440866Y79234237D01*
X79212295Y79958047D02*
X79212295Y80453285D01*
X79212295Y80453285D02*
X79517057Y80186619D01*
X79517057Y80186619D02*
X79517057Y80300904D01*
X79517057Y80300904D02*
X79555152Y80377095D01*
X79555152Y80377095D02*
X79593247Y80415190D01*
X79593247Y80415190D02*
X79669438Y80453285D01*
X79669438Y80453285D02*
X79859914Y80453285D01*
X79859914Y80453285D02*
X79936104Y80415190D01*
X79936104Y80415190D02*
X79974200Y80377095D01*
X79974200Y80377095D02*
X80012295Y80300904D01*
X80012295Y80300904D02*
X80012295Y80072333D01*
X80012295Y80072333D02*
X79974200Y79996142D01*
X79974200Y79996142D02*
X79936104Y79958047D01*
X91912295Y78396142D02*
X92712295Y78662809D01*
X92712295Y78662809D02*
X91912295Y78929475D01*
X92636104Y79653285D02*
X92674200Y79615189D01*
X92674200Y79615189D02*
X92712295Y79500904D01*
X92712295Y79500904D02*
X92712295Y79424713D01*
X92712295Y79424713D02*
X92674200Y79310427D01*
X92674200Y79310427D02*
X92598009Y79234237D01*
X92598009Y79234237D02*
X92521819Y79196142D01*
X92521819Y79196142D02*
X92369438Y79158046D01*
X92369438Y79158046D02*
X92255152Y79158046D01*
X92255152Y79158046D02*
X92102771Y79196142D01*
X92102771Y79196142D02*
X92026580Y79234237D01*
X92026580Y79234237D02*
X91950390Y79310427D01*
X91950390Y79310427D02*
X91912295Y79424713D01*
X91912295Y79424713D02*
X91912295Y79500904D01*
X91912295Y79500904D02*
X91950390Y79615189D01*
X91950390Y79615189D02*
X91988485Y79653285D01*
X92636104Y80453285D02*
X92674200Y80415189D01*
X92674200Y80415189D02*
X92712295Y80300904D01*
X92712295Y80300904D02*
X92712295Y80224713D01*
X92712295Y80224713D02*
X92674200Y80110427D01*
X92674200Y80110427D02*
X92598009Y80034237D01*
X92598009Y80034237D02*
X92521819Y79996142D01*
X92521819Y79996142D02*
X92369438Y79958046D01*
X92369438Y79958046D02*
X92255152Y79958046D01*
X92255152Y79958046D02*
X92102771Y79996142D01*
X92102771Y79996142D02*
X92026580Y80034237D01*
X92026580Y80034237D02*
X91950390Y80110427D01*
X91950390Y80110427D02*
X91912295Y80224713D01*
X91912295Y80224713D02*
X91912295Y80300904D01*
X91912295Y80300904D02*
X91950390Y80415189D01*
X91950390Y80415189D02*
X91988485Y80453285D01*
X77472295Y78929475D02*
X77472295Y78472332D01*
X77472295Y78700904D02*
X76672295Y78700904D01*
X76672295Y78700904D02*
X76786580Y78624713D01*
X76786580Y78624713D02*
X76862771Y78548523D01*
X76862771Y78548523D02*
X76900866Y78472332D01*
X77472295Y79691380D02*
X77472295Y79234237D01*
X77472295Y79462809D02*
X76672295Y79462809D01*
X76672295Y79462809D02*
X76786580Y79386618D01*
X76786580Y79386618D02*
X76862771Y79310428D01*
X76862771Y79310428D02*
X76900866Y79234237D01*
X77472295Y80453285D02*
X77472295Y79996142D01*
X77472295Y80224714D02*
X76672295Y80224714D01*
X76672295Y80224714D02*
X76786580Y80148523D01*
X76786580Y80148523D02*
X76862771Y80072333D01*
X76862771Y80072333D02*
X76900866Y79996142D01*
X89362295Y89737190D02*
X89362295Y89813380D01*
X89362295Y89813380D02*
X89400390Y89889571D01*
X89400390Y89889571D02*
X89438485Y89927666D01*
X89438485Y89927666D02*
X89514676Y89965761D01*
X89514676Y89965761D02*
X89667057Y90003856D01*
X89667057Y90003856D02*
X89857533Y90003856D01*
X89857533Y90003856D02*
X90009914Y89965761D01*
X90009914Y89965761D02*
X90086104Y89927666D01*
X90086104Y89927666D02*
X90124200Y89889571D01*
X90124200Y89889571D02*
X90162295Y89813380D01*
X90162295Y89813380D02*
X90162295Y89737190D01*
X90162295Y89737190D02*
X90124200Y89660999D01*
X90124200Y89660999D02*
X90086104Y89622904D01*
X90086104Y89622904D02*
X90009914Y89584809D01*
X90009914Y89584809D02*
X89857533Y89546713D01*
X89857533Y89546713D02*
X89667057Y89546713D01*
X89667057Y89546713D02*
X89514676Y89584809D01*
X89514676Y89584809D02*
X89438485Y89622904D01*
X89438485Y89622904D02*
X89400390Y89660999D01*
X89400390Y89660999D02*
X89362295Y89737190D01*
X90162295Y90765761D02*
X90162295Y90308618D01*
X90162295Y90537190D02*
X89362295Y90537190D01*
X89362295Y90537190D02*
X89476580Y90460999D01*
X89476580Y90460999D02*
X89552771Y90384809D01*
X89552771Y90384809D02*
X89590866Y90308618D01*
X89362295Y91032428D02*
X89362295Y91565762D01*
X89362295Y91565762D02*
X90162295Y91222904D01*
D11*
X72216328Y79710285D02*
X73216328Y79710285D01*
X72359185Y79710285D02*
X72287757Y79781714D01*
X72287757Y79781714D02*
X72216328Y79924571D01*
X72216328Y79924571D02*
X72216328Y80138857D01*
X72216328Y80138857D02*
X72287757Y80281714D01*
X72287757Y80281714D02*
X72430614Y80353143D01*
X72430614Y80353143D02*
X73216328Y80353143D01*
X73216328Y81067428D02*
X72216328Y81067428D01*
X71716328Y81067428D02*
X71787757Y80996000D01*
X71787757Y80996000D02*
X71859185Y81067428D01*
X71859185Y81067428D02*
X71787757Y81138857D01*
X71787757Y81138857D02*
X71716328Y81067428D01*
X71716328Y81067428D02*
X71859185Y81067428D01*
X73144900Y82424572D02*
X73216328Y82281714D01*
X73216328Y82281714D02*
X73216328Y81996000D01*
X73216328Y81996000D02*
X73144900Y81853143D01*
X73144900Y81853143D02*
X73073471Y81781714D01*
X73073471Y81781714D02*
X72930614Y81710286D01*
X72930614Y81710286D02*
X72502042Y81710286D01*
X72502042Y81710286D02*
X72359185Y81781714D01*
X72359185Y81781714D02*
X72287757Y81853143D01*
X72287757Y81853143D02*
X72216328Y81996000D01*
X72216328Y81996000D02*
X72216328Y82281714D01*
X72216328Y82281714D02*
X72287757Y82424572D01*
X73144900Y83638857D02*
X73216328Y83496000D01*
X73216328Y83496000D02*
X73216328Y83210286D01*
X73216328Y83210286D02*
X73144900Y83067428D01*
X73144900Y83067428D02*
X73002042Y82996000D01*
X73002042Y82996000D02*
X72430614Y82996000D01*
X72430614Y82996000D02*
X72287757Y83067428D01*
X72287757Y83067428D02*
X72216328Y83210286D01*
X72216328Y83210286D02*
X72216328Y83496000D01*
X72216328Y83496000D02*
X72287757Y83638857D01*
X72287757Y83638857D02*
X72430614Y83710286D01*
X72430614Y83710286D02*
X72573471Y83710286D01*
X72573471Y83710286D02*
X72716328Y82996000D01*
X73073471Y84353142D02*
X73144900Y84424571D01*
X73144900Y84424571D02*
X73216328Y84353142D01*
X73216328Y84353142D02*
X73144900Y84281714D01*
X73144900Y84281714D02*
X73073471Y84353142D01*
X73073471Y84353142D02*
X73216328Y84353142D01*
X72644900Y84353142D02*
X71787757Y84281714D01*
X71787757Y84281714D02*
X71716328Y84353142D01*
X71716328Y84353142D02*
X71787757Y84424571D01*
X71787757Y84424571D02*
X72644900Y84353142D01*
X72644900Y84353142D02*
X71716328Y84353142D01*
X72216328Y85067428D02*
X73216328Y85067428D01*
X72359185Y85067428D02*
X72287757Y85138857D01*
X72287757Y85138857D02*
X72216328Y85281714D01*
X72216328Y85281714D02*
X72216328Y85496000D01*
X72216328Y85496000D02*
X72287757Y85638857D01*
X72287757Y85638857D02*
X72430614Y85710286D01*
X72430614Y85710286D02*
X73216328Y85710286D01*
X73216328Y87067429D02*
X72430614Y87067429D01*
X72430614Y87067429D02*
X72287757Y86996000D01*
X72287757Y86996000D02*
X72216328Y86853143D01*
X72216328Y86853143D02*
X72216328Y86567429D01*
X72216328Y86567429D02*
X72287757Y86424571D01*
X73144900Y87067429D02*
X73216328Y86924571D01*
X73216328Y86924571D02*
X73216328Y86567429D01*
X73216328Y86567429D02*
X73144900Y86424571D01*
X73144900Y86424571D02*
X73002042Y86353143D01*
X73002042Y86353143D02*
X72859185Y86353143D01*
X72859185Y86353143D02*
X72716328Y86424571D01*
X72716328Y86424571D02*
X72644900Y86567429D01*
X72644900Y86567429D02*
X72644900Y86924571D01*
X72644900Y86924571D02*
X72573471Y87067429D01*
X72216328Y87781714D02*
X73216328Y87781714D01*
X72359185Y87781714D02*
X72287757Y87853143D01*
X72287757Y87853143D02*
X72216328Y87996000D01*
X72216328Y87996000D02*
X72216328Y88210286D01*
X72216328Y88210286D02*
X72287757Y88353143D01*
X72287757Y88353143D02*
X72430614Y88424572D01*
X72430614Y88424572D02*
X73216328Y88424572D01*
X73216328Y89353143D02*
X73144900Y89210286D01*
X73144900Y89210286D02*
X73073471Y89138857D01*
X73073471Y89138857D02*
X72930614Y89067429D01*
X72930614Y89067429D02*
X72502042Y89067429D01*
X72502042Y89067429D02*
X72359185Y89138857D01*
X72359185Y89138857D02*
X72287757Y89210286D01*
X72287757Y89210286D02*
X72216328Y89353143D01*
X72216328Y89353143D02*
X72216328Y89567429D01*
X72216328Y89567429D02*
X72287757Y89710286D01*
X72287757Y89710286D02*
X72359185Y89781715D01*
X72359185Y89781715D02*
X72502042Y89853143D01*
X72502042Y89853143D02*
X72930614Y89853143D01*
X72930614Y89853143D02*
X73073471Y89781715D01*
X73073471Y89781715D02*
X73144900Y89710286D01*
X73144900Y89710286D02*
X73216328Y89567429D01*
X73216328Y89567429D02*
X73216328Y89353143D01*
D10*
X91950390Y89851476D02*
X91912295Y89775286D01*
X91912295Y89775286D02*
X91912295Y89661000D01*
X91912295Y89661000D02*
X91950390Y89546714D01*
X91950390Y89546714D02*
X92026580Y89470524D01*
X92026580Y89470524D02*
X92102771Y89432429D01*
X92102771Y89432429D02*
X92255152Y89394333D01*
X92255152Y89394333D02*
X92369438Y89394333D01*
X92369438Y89394333D02*
X92521819Y89432429D01*
X92521819Y89432429D02*
X92598009Y89470524D01*
X92598009Y89470524D02*
X92674200Y89546714D01*
X92674200Y89546714D02*
X92712295Y89661000D01*
X92712295Y89661000D02*
X92712295Y89737191D01*
X92712295Y89737191D02*
X92674200Y89851476D01*
X92674200Y89851476D02*
X92636104Y89889572D01*
X92636104Y89889572D02*
X92369438Y89889572D01*
X92369438Y89889572D02*
X92369438Y89737191D01*
X92712295Y90232429D02*
X91912295Y90232429D01*
X91912295Y90232429D02*
X92712295Y90689572D01*
X92712295Y90689572D02*
X91912295Y90689572D01*
X92712295Y91070524D02*
X91912295Y91070524D01*
X91912295Y91070524D02*
X91912295Y91261000D01*
X91912295Y91261000D02*
X91950390Y91375286D01*
X91950390Y91375286D02*
X92026580Y91451476D01*
X92026580Y91451476D02*
X92102771Y91489571D01*
X92102771Y91489571D02*
X92255152Y91527667D01*
X92255152Y91527667D02*
X92369438Y91527667D01*
X92369438Y91527667D02*
X92521819Y91489571D01*
X92521819Y91489571D02*
X92598009Y91451476D01*
X92598009Y91451476D02*
X92674200Y91375286D01*
X92674200Y91375286D02*
X92712295Y91261000D01*
X92712295Y91261000D02*
X92712295Y91070524D01*
X82552295Y78929475D02*
X82552295Y78472332D01*
X82552295Y78700904D02*
X81752295Y78700904D01*
X81752295Y78700904D02*
X81866580Y78624713D01*
X81866580Y78624713D02*
X81942771Y78548523D01*
X81942771Y78548523D02*
X81980866Y78472332D01*
X82552295Y79691380D02*
X82552295Y79234237D01*
X82552295Y79462809D02*
X81752295Y79462809D01*
X81752295Y79462809D02*
X81866580Y79386618D01*
X81866580Y79386618D02*
X81942771Y79310428D01*
X81942771Y79310428D02*
X81980866Y79234237D01*
X81752295Y80415190D02*
X81752295Y80034238D01*
X81752295Y80034238D02*
X82133247Y79996142D01*
X82133247Y79996142D02*
X82095152Y80034238D01*
X82095152Y80034238D02*
X82057057Y80110428D01*
X82057057Y80110428D02*
X82057057Y80300904D01*
X82057057Y80300904D02*
X82095152Y80377095D01*
X82095152Y80377095D02*
X82133247Y80415190D01*
X82133247Y80415190D02*
X82209438Y80453285D01*
X82209438Y80453285D02*
X82399914Y80453285D01*
X82399914Y80453285D02*
X82476104Y80415190D01*
X82476104Y80415190D02*
X82514200Y80377095D01*
X82514200Y80377095D02*
X82552295Y80300904D01*
X82552295Y80300904D02*
X82552295Y80110428D01*
X82552295Y80110428D02*
X82514200Y80034238D01*
X82514200Y80034238D02*
X82476104Y79996142D01*
X89372295Y78662809D02*
X89372295Y78738999D01*
X89372295Y78738999D02*
X89410390Y78815190D01*
X89410390Y78815190D02*
X89448485Y78853285D01*
X89448485Y78853285D02*
X89524676Y78891380D01*
X89524676Y78891380D02*
X89677057Y78929475D01*
X89677057Y78929475D02*
X89867533Y78929475D01*
X89867533Y78929475D02*
X90019914Y78891380D01*
X90019914Y78891380D02*
X90096104Y78853285D01*
X90096104Y78853285D02*
X90134200Y78815190D01*
X90134200Y78815190D02*
X90172295Y78738999D01*
X90172295Y78738999D02*
X90172295Y78662809D01*
X90172295Y78662809D02*
X90134200Y78586618D01*
X90134200Y78586618D02*
X90096104Y78548523D01*
X90096104Y78548523D02*
X90019914Y78510428D01*
X90019914Y78510428D02*
X89867533Y78472332D01*
X89867533Y78472332D02*
X89677057Y78472332D01*
X89677057Y78472332D02*
X89524676Y78510428D01*
X89524676Y78510428D02*
X89448485Y78548523D01*
X89448485Y78548523D02*
X89410390Y78586618D01*
X89410390Y78586618D02*
X89372295Y78662809D01*
X89372295Y79196142D02*
X89372295Y79691380D01*
X89372295Y79691380D02*
X89677057Y79424714D01*
X89677057Y79424714D02*
X89677057Y79538999D01*
X89677057Y79538999D02*
X89715152Y79615190D01*
X89715152Y79615190D02*
X89753247Y79653285D01*
X89753247Y79653285D02*
X89829438Y79691380D01*
X89829438Y79691380D02*
X90019914Y79691380D01*
X90019914Y79691380D02*
X90096104Y79653285D01*
X90096104Y79653285D02*
X90134200Y79615190D01*
X90134200Y79615190D02*
X90172295Y79538999D01*
X90172295Y79538999D02*
X90172295Y79310428D01*
X90172295Y79310428D02*
X90134200Y79234237D01*
X90134200Y79234237D02*
X90096104Y79196142D01*
X90172295Y80453285D02*
X90172295Y79996142D01*
X90172295Y80224714D02*
X89372295Y80224714D01*
X89372295Y80224714D02*
X89486580Y80148523D01*
X89486580Y80148523D02*
X89562771Y80072333D01*
X89562771Y80072333D02*
X89600866Y79996142D01*
X84262295Y89737190D02*
X84262295Y89813380D01*
X84262295Y89813380D02*
X84300390Y89889571D01*
X84300390Y89889571D02*
X84338485Y89927666D01*
X84338485Y89927666D02*
X84414676Y89965761D01*
X84414676Y89965761D02*
X84567057Y90003856D01*
X84567057Y90003856D02*
X84757533Y90003856D01*
X84757533Y90003856D02*
X84909914Y89965761D01*
X84909914Y89965761D02*
X84986104Y89927666D01*
X84986104Y89927666D02*
X85024200Y89889571D01*
X85024200Y89889571D02*
X85062295Y89813380D01*
X85062295Y89813380D02*
X85062295Y89737190D01*
X85062295Y89737190D02*
X85024200Y89660999D01*
X85024200Y89660999D02*
X84986104Y89622904D01*
X84986104Y89622904D02*
X84909914Y89584809D01*
X84909914Y89584809D02*
X84757533Y89546713D01*
X84757533Y89546713D02*
X84567057Y89546713D01*
X84567057Y89546713D02*
X84414676Y89584809D01*
X84414676Y89584809D02*
X84338485Y89622904D01*
X84338485Y89622904D02*
X84300390Y89660999D01*
X84300390Y89660999D02*
X84262295Y89737190D01*
X84338485Y90308618D02*
X84300390Y90346714D01*
X84300390Y90346714D02*
X84262295Y90422904D01*
X84262295Y90422904D02*
X84262295Y90613380D01*
X84262295Y90613380D02*
X84300390Y90689571D01*
X84300390Y90689571D02*
X84338485Y90727666D01*
X84338485Y90727666D02*
X84414676Y90765761D01*
X84414676Y90765761D02*
X84490866Y90765761D01*
X84490866Y90765761D02*
X84605152Y90727666D01*
X84605152Y90727666D02*
X85062295Y90270523D01*
X85062295Y90270523D02*
X85062295Y90765761D01*
X84338485Y91070523D02*
X84300390Y91108619D01*
X84300390Y91108619D02*
X84262295Y91184809D01*
X84262295Y91184809D02*
X84262295Y91375285D01*
X84262295Y91375285D02*
X84300390Y91451476D01*
X84300390Y91451476D02*
X84338485Y91489571D01*
X84338485Y91489571D02*
X84414676Y91527666D01*
X84414676Y91527666D02*
X84490866Y91527666D01*
X84490866Y91527666D02*
X84605152Y91489571D01*
X84605152Y91489571D02*
X85062295Y91032428D01*
X85062295Y91032428D02*
X85062295Y91527666D01*
X86762295Y89737190D02*
X86762295Y89813380D01*
X86762295Y89813380D02*
X86800390Y89889571D01*
X86800390Y89889571D02*
X86838485Y89927666D01*
X86838485Y89927666D02*
X86914676Y89965761D01*
X86914676Y89965761D02*
X87067057Y90003856D01*
X87067057Y90003856D02*
X87257533Y90003856D01*
X87257533Y90003856D02*
X87409914Y89965761D01*
X87409914Y89965761D02*
X87486104Y89927666D01*
X87486104Y89927666D02*
X87524200Y89889571D01*
X87524200Y89889571D02*
X87562295Y89813380D01*
X87562295Y89813380D02*
X87562295Y89737190D01*
X87562295Y89737190D02*
X87524200Y89660999D01*
X87524200Y89660999D02*
X87486104Y89622904D01*
X87486104Y89622904D02*
X87409914Y89584809D01*
X87409914Y89584809D02*
X87257533Y89546713D01*
X87257533Y89546713D02*
X87067057Y89546713D01*
X87067057Y89546713D02*
X86914676Y89584809D01*
X86914676Y89584809D02*
X86838485Y89622904D01*
X86838485Y89622904D02*
X86800390Y89660999D01*
X86800390Y89660999D02*
X86762295Y89737190D01*
X86838485Y90308618D02*
X86800390Y90346714D01*
X86800390Y90346714D02*
X86762295Y90422904D01*
X86762295Y90422904D02*
X86762295Y90613380D01*
X86762295Y90613380D02*
X86800390Y90689571D01*
X86800390Y90689571D02*
X86838485Y90727666D01*
X86838485Y90727666D02*
X86914676Y90765761D01*
X86914676Y90765761D02*
X86990866Y90765761D01*
X86990866Y90765761D02*
X87105152Y90727666D01*
X87105152Y90727666D02*
X87562295Y90270523D01*
X87562295Y90270523D02*
X87562295Y90765761D01*
X86762295Y91261000D02*
X86762295Y91337190D01*
X86762295Y91337190D02*
X86800390Y91413381D01*
X86800390Y91413381D02*
X86838485Y91451476D01*
X86838485Y91451476D02*
X86914676Y91489571D01*
X86914676Y91489571D02*
X87067057Y91527666D01*
X87067057Y91527666D02*
X87257533Y91527666D01*
X87257533Y91527666D02*
X87409914Y91489571D01*
X87409914Y91489571D02*
X87486104Y91451476D01*
X87486104Y91451476D02*
X87524200Y91413381D01*
X87524200Y91413381D02*
X87562295Y91337190D01*
X87562295Y91337190D02*
X87562295Y91261000D01*
X87562295Y91261000D02*
X87524200Y91184809D01*
X87524200Y91184809D02*
X87486104Y91146714D01*
X87486104Y91146714D02*
X87409914Y91108619D01*
X87409914Y91108619D02*
X87257533Y91070523D01*
X87257533Y91070523D02*
X87067057Y91070523D01*
X87067057Y91070523D02*
X86914676Y91108619D01*
X86914676Y91108619D02*
X86838485Y91146714D01*
X86838485Y91146714D02*
X86800390Y91184809D01*
X86800390Y91184809D02*
X86762295Y91261000D01*
%TO.C,T1*%
X102500000Y56300000D02*
X102500000Y49700000D01*
X102500000Y49700000D02*
X105350000Y49700000D01*
X105350000Y56300000D02*
X102500000Y56300000D01*
X105350000Y53000000D02*
X105350000Y56300000D01*
X105350000Y53000000D02*
X105350000Y49700000D01*
X105350000Y51050000D02*
X105350000Y54950000D01*
D12*
%TO.C,D9*%
X26100000Y55940000D02*
X26900000Y55940000D01*
X26500000Y55940000D02*
X26500000Y56440000D01*
X26500000Y55340000D02*
X25950000Y55340000D01*
X26500000Y55340000D02*
X26100000Y55940000D01*
X26500000Y55340000D02*
X27050000Y55340000D01*
X26500000Y54940000D02*
X26500000Y55340000D01*
X26900000Y55940000D02*
X26500000Y55340000D01*
%TO.C,D30*%
X102100000Y81440000D02*
X102900000Y81440000D01*
X102500000Y81440000D02*
X102500000Y81940000D01*
X102500000Y80840000D02*
X101950000Y80840000D01*
X102500000Y80840000D02*
X102100000Y81440000D01*
X102500000Y80840000D02*
X103050000Y80840000D01*
X102500000Y80440000D02*
X102500000Y80840000D01*
X102900000Y81440000D02*
X102500000Y80840000D01*
%TO.C,D26*%
X102600000Y8940000D02*
X103400000Y8940000D01*
X103000000Y8940000D02*
X103000000Y9440000D01*
X103000000Y8340000D02*
X102450000Y8340000D01*
X103000000Y8340000D02*
X102600000Y8940000D01*
X103000000Y8340000D02*
X103550000Y8340000D01*
X103000000Y7940000D02*
X103000000Y8340000D01*
X103400000Y8940000D02*
X103000000Y8340000D01*
%TO.C,D7*%
X26100000Y18940000D02*
X26900000Y18940000D01*
X26500000Y18940000D02*
X26500000Y19440000D01*
X26500000Y18340000D02*
X25950000Y18340000D01*
X26500000Y18340000D02*
X26100000Y18940000D01*
X26500000Y18340000D02*
X27050000Y18340000D01*
X26500000Y17940000D02*
X26500000Y18340000D01*
X26900000Y18940000D02*
X26500000Y18340000D01*
%TO.C,D2*%
X6600000Y11940000D02*
X7400000Y11940000D01*
X7000000Y11940000D02*
X7000000Y12440000D01*
X7000000Y11340000D02*
X6450000Y11340000D01*
X7000000Y11340000D02*
X6600000Y11940000D01*
X7000000Y11340000D02*
X7550000Y11340000D01*
X7000000Y10940000D02*
X7000000Y11340000D01*
X7400000Y11940000D02*
X7000000Y11340000D01*
%TO.C,D5*%
X6100000Y68100000D02*
X6900000Y68100000D01*
X6500000Y68100000D02*
X6500000Y68600000D01*
X6500000Y67500000D02*
X5950000Y67500000D01*
X6500000Y67500000D02*
X6100000Y68100000D01*
X6500000Y67500000D02*
X7050000Y67500000D01*
X6500000Y67100000D02*
X6500000Y67500000D01*
X6900000Y68100000D02*
X6500000Y67500000D01*
%TO.C,D4*%
X5600000Y50940000D02*
X6400000Y50940000D01*
X6000000Y50940000D02*
X6000000Y51440000D01*
X6000000Y50340000D02*
X5450000Y50340000D01*
X6000000Y50340000D02*
X5600000Y50940000D01*
X6000000Y50340000D02*
X6550000Y50340000D01*
X6000000Y49940000D02*
X6000000Y50340000D01*
X6400000Y50940000D02*
X6000000Y50340000D01*
%TO.C,D12*%
X45600000Y27440000D02*
X46400000Y27440000D01*
X46000000Y27440000D02*
X46000000Y27940000D01*
X46000000Y26840000D02*
X45450000Y26840000D01*
X46000000Y26840000D02*
X45600000Y27440000D01*
X46000000Y26840000D02*
X46550000Y26840000D01*
X46000000Y26440000D02*
X46000000Y26840000D01*
X46400000Y27440000D02*
X46000000Y26840000D01*
%TO.C,D6*%
X26100000Y-60000D02*
X26900000Y-60000D01*
X26500000Y-60000D02*
X26500000Y440000D01*
X26500000Y-660000D02*
X25950000Y-660000D01*
X26500000Y-660000D02*
X26100000Y-60000D01*
X26500000Y-660000D02*
X27050000Y-660000D01*
X26500000Y-1060000D02*
X26500000Y-660000D01*
X26900000Y-60000D02*
X26500000Y-660000D01*
%TO.C,D29*%
X102100000Y63060000D02*
X102900000Y63060000D01*
X102500000Y63060000D02*
X102500000Y63560000D01*
X102500000Y62460000D02*
X101950000Y62460000D01*
X102500000Y62460000D02*
X102100000Y63060000D01*
X102500000Y62460000D02*
X103050000Y62460000D01*
X102500000Y62060000D02*
X102500000Y62460000D01*
X102900000Y63060000D02*
X102500000Y62460000D01*
%TO.C,D11*%
X45600000Y8440000D02*
X46400000Y8440000D01*
X46000000Y8440000D02*
X46000000Y8940000D01*
X46000000Y7840000D02*
X45450000Y7840000D01*
X46000000Y7840000D02*
X45600000Y8440000D01*
X46000000Y7840000D02*
X46550000Y7840000D01*
X46000000Y7440000D02*
X46000000Y7840000D01*
X46400000Y8440000D02*
X46000000Y7840000D01*
%TO.C,D1*%
X7100000Y-2060000D02*
X7900000Y-2060000D01*
X7500000Y-2060000D02*
X7500000Y-1560000D01*
X7500000Y-2660000D02*
X6950000Y-2660000D01*
X7500000Y-2660000D02*
X7100000Y-2060000D01*
X7500000Y-2660000D02*
X8050000Y-2660000D01*
X7500000Y-3060000D02*
X7500000Y-2660000D01*
X7900000Y-2060000D02*
X7500000Y-2660000D01*
%TO.C,D27*%
X100600000Y23100000D02*
X101400000Y23100000D01*
X101000000Y23100000D02*
X101000000Y23600000D01*
X101000000Y22500000D02*
X100450000Y22500000D01*
X101000000Y22500000D02*
X100600000Y23100000D01*
X101000000Y22500000D02*
X101550000Y22500000D01*
X101000000Y22100000D02*
X101000000Y22500000D01*
X101400000Y23100000D02*
X101000000Y22500000D01*
D10*
%TO.C,JST1*%
X97150000Y75450000D02*
X97150000Y74750000D01*
X97150000Y74750000D02*
X98750000Y74750000D01*
X97150000Y70250000D02*
X97150000Y69550000D01*
X97150000Y69550000D02*
X104750000Y69550000D01*
X98750000Y74750000D02*
X98750000Y70250000D01*
X98750000Y70250000D02*
X97150000Y70250000D01*
X100000000Y71500000D02*
X100500000Y71500000D01*
X100250000Y71250000D02*
X100250000Y71750000D01*
X104750000Y75450000D02*
X97150000Y75450000D01*
X104750000Y69550000D02*
X104750000Y75450000D01*
D12*
%TO.C,D23*%
X81600000Y44940000D02*
X82400000Y44940000D01*
X82000000Y44940000D02*
X82000000Y45440000D01*
X82000000Y44340000D02*
X81450000Y44340000D01*
X82000000Y44340000D02*
X81600000Y44940000D01*
X82000000Y44340000D02*
X82550000Y44340000D01*
X82000000Y43940000D02*
X82000000Y44340000D01*
X82400000Y44940000D02*
X82000000Y44340000D01*
%TO.C,D14*%
X45600000Y65440000D02*
X46400000Y65440000D01*
X46000000Y65440000D02*
X46000000Y65940000D01*
X46000000Y64840000D02*
X45450000Y64840000D01*
X46000000Y64840000D02*
X45600000Y65440000D01*
X46000000Y64840000D02*
X46550000Y64840000D01*
X46000000Y64440000D02*
X46000000Y64840000D01*
X46400000Y65440000D02*
X46000000Y64840000D01*
%TO.C,D10*%
X24600000Y69440000D02*
X25400000Y69440000D01*
X25000000Y69440000D02*
X25000000Y69940000D01*
X25000000Y68840000D02*
X24450000Y68840000D01*
X25000000Y68840000D02*
X24600000Y69440000D01*
X25000000Y68840000D02*
X25550000Y68840000D01*
X25000000Y68440000D02*
X25000000Y68840000D01*
X25400000Y69440000D02*
X25000000Y68840000D01*
%TO.C,D16*%
X64600000Y19440000D02*
X65400000Y19440000D01*
X65000000Y19440000D02*
X65000000Y19940000D01*
X65000000Y18840000D02*
X64450000Y18840000D01*
X65000000Y18840000D02*
X64600000Y19440000D01*
X65000000Y18840000D02*
X65550000Y18840000D01*
X65000000Y18440000D02*
X65000000Y18840000D01*
X65400000Y19440000D02*
X65000000Y18840000D01*
%TO.C,D18*%
X64600000Y55440000D02*
X65400000Y55440000D01*
X65000000Y55440000D02*
X65000000Y55940000D01*
X65000000Y54840000D02*
X64450000Y54840000D01*
X65000000Y54840000D02*
X64600000Y55440000D01*
X65000000Y54840000D02*
X65550000Y54840000D01*
X65000000Y54440000D02*
X65000000Y54840000D01*
X65400000Y55440000D02*
X65000000Y54840000D01*
%TO.C,D28*%
X100600000Y42440000D02*
X101400000Y42440000D01*
X101000000Y42440000D02*
X101000000Y42940000D01*
X101000000Y41840000D02*
X100450000Y41840000D01*
X101000000Y41840000D02*
X100600000Y42440000D01*
X101000000Y41840000D02*
X101550000Y41840000D01*
X101000000Y41440000D02*
X101000000Y41840000D01*
X101400000Y42440000D02*
X101000000Y41840000D01*
%TO.C,D8*%
X26100000Y37440000D02*
X26900000Y37440000D01*
X26500000Y37440000D02*
X26500000Y37940000D01*
X26500000Y36840000D02*
X25950000Y36840000D01*
X26500000Y36840000D02*
X26100000Y37440000D01*
X26500000Y36840000D02*
X27050000Y36840000D01*
X26500000Y36440000D02*
X26500000Y36840000D01*
X26900000Y37440000D02*
X26500000Y36840000D01*
%TO.C,D15*%
X45600000Y84440000D02*
X46400000Y84440000D01*
X46000000Y84440000D02*
X46000000Y84940000D01*
X46000000Y83840000D02*
X45450000Y83840000D01*
X46000000Y83840000D02*
X45600000Y84440000D01*
X46000000Y83840000D02*
X46550000Y83840000D01*
X46000000Y83440000D02*
X46000000Y83840000D01*
X46400000Y84440000D02*
X46000000Y83840000D01*
%TO.C,D25*%
X83600000Y85060000D02*
X84400000Y85060000D01*
X84000000Y85060000D02*
X84000000Y85560000D01*
X84000000Y84460000D02*
X83450000Y84460000D01*
X84000000Y84460000D02*
X83600000Y85060000D01*
X84000000Y84460000D02*
X84550000Y84460000D01*
X84000000Y84060000D02*
X84000000Y84460000D01*
X84400000Y85060000D02*
X84000000Y84460000D01*
%TO.C,D19*%
X64600000Y74940000D02*
X65400000Y74940000D01*
X65000000Y74940000D02*
X65000000Y75440000D01*
X65000000Y74340000D02*
X64450000Y74340000D01*
X65000000Y74340000D02*
X64600000Y74940000D01*
X65000000Y74340000D02*
X65550000Y74340000D01*
X65000000Y73940000D02*
X65000000Y74340000D01*
X65400000Y74940000D02*
X65000000Y74340000D01*
%TO.C,D24*%
X81600000Y63940000D02*
X82400000Y63940000D01*
X82000000Y63940000D02*
X82000000Y64440000D01*
X82000000Y63340000D02*
X81450000Y63340000D01*
X82000000Y63340000D02*
X81600000Y63940000D01*
X82000000Y63340000D02*
X82550000Y63340000D01*
X82000000Y62940000D02*
X82000000Y63340000D01*
X82400000Y63940000D02*
X82000000Y63340000D01*
%TO.C,D20*%
X64600000Y91440000D02*
X65400000Y91440000D01*
X65000000Y91440000D02*
X65000000Y91940000D01*
X65000000Y90840000D02*
X64450000Y90840000D01*
X65000000Y90840000D02*
X64600000Y91440000D01*
X65000000Y90840000D02*
X65550000Y90840000D01*
X65000000Y90440000D02*
X65000000Y90840000D01*
X65400000Y91440000D02*
X65000000Y90840000D01*
%TO.C,D13*%
X45600000Y46440000D02*
X46400000Y46440000D01*
X46000000Y46440000D02*
X46000000Y46940000D01*
X46000000Y45840000D02*
X45450000Y45840000D01*
X46000000Y45840000D02*
X45600000Y46440000D01*
X46000000Y45840000D02*
X46550000Y45840000D01*
X46000000Y45440000D02*
X46000000Y45840000D01*
X46400000Y46440000D02*
X46000000Y45840000D01*
%TO.C,D21*%
X81600000Y6940000D02*
X82400000Y6940000D01*
X82000000Y6940000D02*
X82000000Y7440000D01*
X82000000Y6340000D02*
X81450000Y6340000D01*
X82000000Y6340000D02*
X81600000Y6940000D01*
X82000000Y6340000D02*
X82550000Y6340000D01*
X82000000Y5940000D02*
X82000000Y6340000D01*
X82400000Y6940000D02*
X82000000Y6340000D01*
%TO.C,D3*%
X7600000Y36440000D02*
X8400000Y36440000D01*
X8000000Y36440000D02*
X8000000Y36940000D01*
X8000000Y35840000D02*
X7450000Y35840000D01*
X8000000Y35840000D02*
X7600000Y36440000D01*
X8000000Y35840000D02*
X8550000Y35840000D01*
X8000000Y35440000D02*
X8000000Y35840000D01*
X8400000Y36440000D02*
X8000000Y35840000D01*
%TO.C,D17*%
X64100000Y32940000D02*
X64900000Y32940000D01*
X64500000Y32940000D02*
X64500000Y33440000D01*
X64500000Y32340000D02*
X63950000Y32340000D01*
X64500000Y32340000D02*
X64100000Y32940000D01*
X64500000Y32340000D02*
X65050000Y32340000D01*
X64500000Y31940000D02*
X64500000Y32340000D01*
X64900000Y32940000D02*
X64500000Y32340000D01*
D13*
%TO.C,MCU1*%
X70760000Y93890000D02*
X70760000Y76110000D01*
X70760000Y76110000D02*
X103780000Y76110000D01*
X103780000Y93890000D02*
X70760000Y93890000D01*
X103780000Y76110000D02*
X103780000Y93890000D01*
D12*
%TO.C,D22*%
X82100000Y25940000D02*
X82900000Y25940000D01*
X82500000Y25940000D02*
X82500000Y26440000D01*
X82500000Y25340000D02*
X81950000Y25340000D01*
X82500000Y25340000D02*
X82100000Y25940000D01*
X82500000Y25340000D02*
X83050000Y25340000D01*
X82500000Y24940000D02*
X82500000Y25340000D01*
X82900000Y25940000D02*
X82500000Y25340000D01*
%TD*%
D14*
%TO.C,MCU1*%
X99970000Y92620000D03*
X97430000Y92620000D03*
X94890000Y92620000D03*
X92350000Y92620000D03*
X89810000Y92620000D03*
X87270000Y92620000D03*
X84730000Y92620000D03*
X82190000Y92620000D03*
X79650000Y92620000D03*
X77110000Y92620000D03*
X74570000Y92620000D03*
X72030000Y92620000D03*
X72030000Y77380000D03*
X74570000Y77380000D03*
X77110000Y77380000D03*
X79650000Y77380000D03*
X82190000Y77380000D03*
X84730000Y77380000D03*
X87270000Y77380000D03*
X89810000Y77380000D03*
X92350000Y77380000D03*
X94890000Y77380000D03*
X97430000Y77380000D03*
X99970000Y77380000D03*
%TD*%
M02*
